<svg width="2204" height="550" viewBox="500 0 2204 700" fill="none" xmlns="http://www.w3.org/2000/svg">
<g opacity="0.3">
<g style="mix-blend-mode:screen">
<path style="mix-blend-mode:overlay" opacity="0.33" d="M352.631 699.665C547.219 699.665 704.964 543.157 704.964 350.095C704.964 157.033 547.219 0.525391 352.631 0.525391C158.043 0.525391 0.297852 157.033 0.297852 350.095C0.297852 543.157 158.043 699.665 352.631 699.665Z" fill="url(#paint0_linear_2351_52559)"/>
</g>
<g style="mix-blend-mode:overlay">
<g style="mix-blend-mode:overlay" opacity="0.33">
<path d="M352.631 699.665C547.219 699.665 704.964 543.157 704.964 350.095C704.964 157.033 547.219 0.525391 352.631 0.525391C158.043 0.525391 0.297852 157.033 0.297852 350.095C0.297852 543.157 158.043 699.665 352.631 699.665Z" fill="#754ABC"/>
</g>
</g>
<g style="mix-blend-mode:overlay">
<g style="mix-blend-mode:overlay" opacity="0.33">
<path d="M352.631 699.665C547.219 699.665 704.964 543.157 704.964 350.095C704.964 157.033 547.219 0.525391 352.631 0.525391C158.043 0.525391 0.297852 157.033 0.297852 350.095C0.297852 543.157 158.043 699.665 352.631 699.665Z" fill="#754ABC"/>
</g>
</g>
</g>
<g opacity="0.3">
<g style="mix-blend-mode:screen">
<path style="mix-blend-mode:overlay" opacity="0.33" d="M554.199 699.665C748.788 699.665 906.533 543.157 906.533 350.095C906.533 157.033 748.788 0.525391 554.199 0.525391C359.611 0.525391 201.866 157.033 201.866 350.095C201.866 543.157 359.611 699.665 554.199 699.665Z" fill="url(#paint1_linear_2351_52559)"/>
</g>
<g style="mix-blend-mode:overlay">
<g style="mix-blend-mode:overlay" opacity="0.33">
<path d="M554.199 699.665C748.788 699.665 906.533 543.157 906.533 350.095C906.533 157.033 748.788 0.525391 554.199 0.525391C359.611 0.525391 201.866 157.033 201.866 350.095C201.866 543.157 359.611 699.665 554.199 699.665Z" fill="#754ABC"/>
</g>
</g>
<g style="mix-blend-mode:overlay">
<g style="mix-blend-mode:overlay" opacity="0.33">
<path d="M554.199 699.665C748.788 699.665 906.533 543.157 906.533 350.095C906.533 157.033 748.788 0.525391 554.199 0.525391C359.611 0.525391 201.866 157.033 201.866 350.095C201.866 543.157 359.611 699.665 554.199 699.665Z" fill="#754ABC"/>
</g>
</g>
</g>
<g opacity="0.3">
<g style="mix-blend-mode:screen">
<path style="mix-blend-mode:overlay" opacity="0.33" d="M745.689 699.665C940.277 699.665 1098.02 543.157 1098.02 350.095C1098.02 157.033 940.277 0.525391 745.689 0.525391C551.101 0.525391 393.356 157.033 393.356 350.095C393.356 543.157 551.101 699.665 745.689 699.665Z" fill="url(#paint2_linear_2351_52559)"/>
</g>
<g style="mix-blend-mode:overlay">
<g style="mix-blend-mode:overlay" opacity="0.33">
<path d="M745.689 699.665C940.277 699.665 1098.02 543.157 1098.02 350.095C1098.02 157.033 940.277 0.525391 745.689 0.525391C551.101 0.525391 393.356 157.033 393.356 350.095C393.356 543.157 551.101 699.665 745.689 699.665Z" fill="#754ABC"/>
</g>
</g>
<g style="mix-blend-mode:overlay">
<g style="mix-blend-mode:overlay" opacity="0.33">
<path d="M745.689 699.665C940.277 699.665 1098.02 543.157 1098.02 350.095C1098.02 157.033 940.277 0.525391 745.689 0.525391C551.101 0.525391 393.356 157.033 393.356 350.095C393.356 543.157 551.101 699.665 745.689 699.665Z" fill="#754ABC"/>
</g>
</g>
</g>
<g opacity="0.3">
<g style="mix-blend-mode:screen">
<path style="mix-blend-mode:overlay" opacity="0.33" d="M947.257 699.665C1141.85 699.665 1299.59 543.157 1299.59 350.095C1299.59 157.033 1141.85 0.525391 947.257 0.525391C752.669 0.525391 594.924 157.033 594.924 350.095C594.924 543.157 752.669 699.665 947.257 699.665Z" fill="url(#paint3_linear_2351_52559)"/>
</g>
<g style="mix-blend-mode:overlay">
<g style="mix-blend-mode:overlay" opacity="0.33">
<path d="M947.257 699.665C1141.85 699.665 1299.59 543.157 1299.59 350.095C1299.59 157.033 1141.85 0.525391 947.257 0.525391C752.669 0.525391 594.924 157.033 594.924 350.095C594.924 543.157 752.669 699.665 947.257 699.665Z" fill="#754ABC"/>
</g>
</g>
<g style="mix-blend-mode:overlay">
<g style="mix-blend-mode:overlay" opacity="0.33">
<path d="M947.257 699.665C1141.85 699.665 1299.59 543.157 1299.59 350.095C1299.59 157.033 1141.85 0.525391 947.257 0.525391C752.669 0.525391 594.924 157.033 594.924 350.095C594.924 543.157 752.669 699.665 947.257 699.665Z" fill="#754ABC"/>
</g>
</g>
</g>
<g opacity="0.3">
<g style="mix-blend-mode:screen">
<path style="mix-blend-mode:overlay" opacity="0.33" d="M1179.06 699.665C1373.65 699.665 1531.39 543.157 1531.39 350.095C1531.39 157.033 1373.65 0.525391 1179.06 0.525391C984.472 0.525391 826.727 157.033 826.727 350.095C826.727 543.157 984.472 699.665 1179.06 699.665Z" fill="url(#paint4_linear_2351_52559)"/>
</g>
<g style="mix-blend-mode:overlay">
<g style="mix-blend-mode:overlay" opacity="0.33">
<path d="M1179.06 699.665C1373.65 699.665 1531.39 543.157 1531.39 350.095C1531.39 157.033 1373.65 0.525391 1179.06 0.525391C984.472 0.525391 826.727 157.033 826.727 350.095C826.727 543.157 984.472 699.665 1179.06 699.665Z" fill="#754ABC"/>
</g>
</g>
<g style="mix-blend-mode:overlay">
<g style="mix-blend-mode:overlay" opacity="0.33">
<path d="M1179.06 699.665C1373.65 699.665 1531.39 543.157 1531.39 350.095C1531.39 157.033 1373.65 0.525391 1179.06 0.525391C984.472 0.525391 826.727 157.033 826.727 350.095C826.727 543.157 984.472 699.665 1179.06 699.665Z" fill="#754ABC"/>
</g>
</g>
</g>
<g opacity="0.3">
<g style="mix-blend-mode:screen">
<path style="mix-blend-mode:overlay" opacity="0.33" d="M1390.71 699.665C1585.3 699.665 1743.04 543.157 1743.04 350.095C1743.04 157.033 1585.3 0.525391 1390.71 0.525391C1196.12 0.525391 1038.37 157.033 1038.37 350.095C1038.37 543.157 1196.12 699.665 1390.71 699.665Z" fill="url(#paint5_linear_2351_52559)"/>
</g>
<g style="mix-blend-mode:overlay">
<g style="mix-blend-mode:overlay" opacity="0.33">
<path d="M1390.71 699.665C1585.3 699.665 1743.04 543.157 1743.04 350.095C1743.04 157.033 1585.3 0.525391 1390.71 0.525391C1196.12 0.525391 1038.37 157.033 1038.37 350.095C1038.37 543.157 1196.12 699.665 1390.71 699.665Z" fill="#754ABC"/>
</g>
</g>
<g style="mix-blend-mode:overlay">
<g style="mix-blend-mode:overlay" opacity="0.33">
<path d="M1390.71 699.665C1585.3 699.665 1743.04 543.157 1743.04 350.095C1743.04 157.033 1585.3 0.525391 1390.71 0.525391C1196.12 0.525391 1038.37 157.033 1038.37 350.095C1038.37 543.157 1196.12 699.665 1390.71 699.665Z" fill="#754ABC"/>
</g>
</g>
</g>
<g opacity="0.3">
<g style="mix-blend-mode:screen">
<path style="mix-blend-mode:overlay" opacity="0.33" d="M1622.51 699.665C1817.1 699.665 1974.84 543.157 1974.84 350.095C1974.84 157.033 1817.1 0.525391 1622.51 0.525391C1427.92 0.525391 1270.18 157.033 1270.18 350.095C1270.18 543.157 1427.92 699.665 1622.51 699.665Z" fill="url(#paint6_linear_2351_52559)"/>
</g>
<g style="mix-blend-mode:overlay">
<g style="mix-blend-mode:overlay" opacity="0.33">
<path d="M1622.51 699.665C1817.1 699.665 1974.84 543.157 1974.84 350.095C1974.84 157.033 1817.1 0.525391 1622.51 0.525391C1427.92 0.525391 1270.18 157.033 1270.18 350.095C1270.18 543.157 1427.92 699.665 1622.51 699.665Z" fill="#754ABC"/>
</g>
</g>
<g style="mix-blend-mode:overlay">
<g style="mix-blend-mode:overlay" opacity="0.33">
<path d="M1622.51 699.665C1817.1 699.665 1974.84 543.157 1974.84 350.095C1974.84 157.033 1817.1 0.525391 1622.51 0.525391C1427.92 0.525391 1270.18 157.033 1270.18 350.095C1270.18 543.157 1427.92 699.665 1622.51 699.665Z" fill="#754ABC"/>
</g>
</g>
</g>
<g opacity="0.3">
<g style="mix-blend-mode:screen">
<path style="mix-blend-mode:overlay" opacity="0.33" d="M1850.81 699.665C2045.4 699.665 2203.15 543.157 2203.15 350.095C2203.15 157.033 2045.4 0.525391 1850.81 0.525391C1656.22 0.525391 1498.48 157.033 1498.48 350.095C1498.48 543.157 1656.22 699.665 1850.81 699.665Z" fill="url(#paint7_linear_2351_52559)"/>
</g>
<g style="mix-blend-mode:overlay">
<g style="mix-blend-mode:overlay" opacity="0.33">
<path d="M1850.81 699.665C2045.4 699.665 2203.15 543.157 2203.15 350.095C2203.15 157.033 2045.4 0.525391 1850.81 0.525391C1656.22 0.525391 1498.48 157.033 1498.48 350.095C1498.48 543.157 1656.22 699.665 1850.81 699.665Z" fill="#754ABC"/>
</g>
</g>
<g style="mix-blend-mode:overlay">
<g style="mix-blend-mode:overlay" opacity="0.33">
<path d="M1850.81 699.665C2045.4 699.665 2203.15 543.157 2203.15 350.095C2203.15 157.033 2045.4 0.525391 1850.81 0.525391C1656.22 0.525391 1498.48 157.033 1498.48 350.095C1498.48 543.157 1656.22 699.665 1850.81 699.665Z" fill="#754ABC"/>
</g>
</g>
</g>
<defs>
<linearGradient id="paint0_linear_2351_52559" x1="45.4614" y1="178.502" x2="657.003" y2="526.238" gradientUnits="userSpaceOnUse">
<stop stop-color="#D2BCF7"/>
<stop offset="0.16" stop-color="#C5AAF5" stop-opacity="0.86"/>
<stop offset="0.42" stop-color="#B490F2" stop-opacity="0.66"/>
<stop offset="0.64" stop-color="#A87DF0" stop-opacity="0.52"/>
<stop offset="0.82" stop-color="#A072EE" stop-opacity="0.43"/>
<stop offset="0.94" stop-color="#9D6EEE" stop-opacity="0.4"/>
</linearGradient>
<linearGradient id="paint1_linear_2351_52559" x1="247.029" y1="178.502" x2="858.572" y2="526.238" gradientUnits="userSpaceOnUse">
<stop stop-color="#D2BCF7"/>
<stop offset="0.16" stop-color="#C5AAF5" stop-opacity="0.86"/>
<stop offset="0.42" stop-color="#B490F2" stop-opacity="0.66"/>
<stop offset="0.64" stop-color="#A87DF0" stop-opacity="0.52"/>
<stop offset="0.82" stop-color="#A072EE" stop-opacity="0.43"/>
<stop offset="0.94" stop-color="#9D6EEE" stop-opacity="0.4"/>
</linearGradient>
<linearGradient id="paint2_linear_2351_52559" x1="438.519" y1="178.502" x2="1050.06" y2="526.238" gradientUnits="userSpaceOnUse">
<stop stop-color="#D2BCF7"/>
<stop offset="0.16" stop-color="#C5AAF5" stop-opacity="0.86"/>
<stop offset="0.42" stop-color="#B490F2" stop-opacity="0.66"/>
<stop offset="0.64" stop-color="#A87DF0" stop-opacity="0.52"/>
<stop offset="0.82" stop-color="#A072EE" stop-opacity="0.43"/>
<stop offset="0.94" stop-color="#9D6EEE" stop-opacity="0.4"/>
</linearGradient>
<linearGradient id="paint3_linear_2351_52559" x1="640.087" y1="178.502" x2="1251.63" y2="526.238" gradientUnits="userSpaceOnUse">
<stop stop-color="#D2BCF7"/>
<stop offset="0.16" stop-color="#C5AAF5" stop-opacity="0.86"/>
<stop offset="0.42" stop-color="#B490F2" stop-opacity="0.66"/>
<stop offset="0.64" stop-color="#A87DF0" stop-opacity="0.52"/>
<stop offset="0.82" stop-color="#A072EE" stop-opacity="0.43"/>
<stop offset="0.94" stop-color="#9D6EEE" stop-opacity="0.4"/>
</linearGradient>
<linearGradient id="paint4_linear_2351_52559" x1="871.891" y1="178.502" x2="1483.43" y2="526.238" gradientUnits="userSpaceOnUse">
<stop stop-color="#D2BCF7"/>
<stop offset="0.16" stop-color="#C5AAF5" stop-opacity="0.86"/>
<stop offset="0.42" stop-color="#B490F2" stop-opacity="0.66"/>
<stop offset="0.64" stop-color="#A87DF0" stop-opacity="0.52"/>
<stop offset="0.82" stop-color="#A072EE" stop-opacity="0.43"/>
<stop offset="0.94" stop-color="#9D6EEE" stop-opacity="0.4"/>
</linearGradient>
<linearGradient id="paint5_linear_2351_52559" x1="1083.54" y1="178.502" x2="1695.08" y2="526.238" gradientUnits="userSpaceOnUse">
<stop stop-color="#D2BCF7"/>
<stop offset="0.16" stop-color="#C5AAF5" stop-opacity="0.86"/>
<stop offset="0.42" stop-color="#B490F2" stop-opacity="0.66"/>
<stop offset="0.64" stop-color="#A87DF0" stop-opacity="0.52"/>
<stop offset="0.82" stop-color="#A072EE" stop-opacity="0.43"/>
<stop offset="0.94" stop-color="#9D6EEE" stop-opacity="0.4"/>
</linearGradient>
<linearGradient id="paint6_linear_2351_52559" x1="1315.34" y1="178.502" x2="1926.88" y2="526.238" gradientUnits="userSpaceOnUse">
<stop stop-color="#D2BCF7"/>
<stop offset="0.16" stop-color="#C5AAF5" stop-opacity="0.86"/>
<stop offset="0.42" stop-color="#B490F2" stop-opacity="0.66"/>
<stop offset="0.64" stop-color="#A87DF0" stop-opacity="0.52"/>
<stop offset="0.82" stop-color="#A072EE" stop-opacity="0.43"/>
<stop offset="0.94" stop-color="#9D6EEE" stop-opacity="0.4"/>
</linearGradient>
<linearGradient id="paint7_linear_2351_52559" x1="1543.64" y1="178.502" x2="2155.18" y2="526.238" gradientUnits="userSpaceOnUse">
<stop stop-color="#D2BCF7"/>
<stop offset="0.16" stop-color="#C5AAF5" stop-opacity="0.86"/>
<stop offset="0.42" stop-color="#B490F2" stop-opacity="0.66"/>
<stop offset="0.64" stop-color="#A87DF0" stop-opacity="0.52"/>
<stop offset="0.82" stop-color="#A072EE" stop-opacity="0.43"/>
<stop offset="0.94" stop-color="#9D6EEE" stop-opacity="0.4"/>
</linearGradient>
</defs>
</svg>
