<svg width="115" height="629" viewBox="0 0 115 629" fill="none" xmlns="http://www.w3.org/2000/svg">
<path d="M1.3158 552.97C1.87378 552.97 2.32569 553.422 2.32569 553.979C2.32569 554.54 1.87379 554.991 1.3158 554.991C0.757687 554.991 0.304688 554.54 0.304688 553.979C0.304688 553.422 0.757687 552.97 1.3158 552.97Z" fill="#595959"/>
<path d="M1.3158 529.062C1.87378 529.062 2.32569 529.516 2.32569 530.072C2.32569 530.632 1.87379 531.084 1.3158 531.084C0.757687 531.084 0.304688 530.632 0.304688 530.072C0.304688 529.516 0.757687 529.062 1.3158 529.062Z" fill="#595959"/>
<path d="M1.3158 505.155C1.87378 505.155 2.32569 505.607 2.32569 506.166C2.32569 506.726 1.87379 507.178 1.3158 507.178C0.757687 507.178 0.304688 506.726 0.304688 506.166C0.304688 505.607 0.757687 505.155 1.3158 505.155Z" fill="#595959"/>
<path d="M1.3158 481.249C1.87378 481.249 2.32569 481.701 2.32569 482.261C2.32569 482.819 1.87379 483.271 1.3158 483.271C0.757687 483.271 0.304688 482.819 0.304688 482.261C0.304688 481.701 0.757687 481.249 1.3158 481.249Z" fill="#595959"/>
<path d="M1.3158 460.427C1.87378 460.427 2.32569 460.879 2.32569 461.437C2.32569 461.996 1.87379 462.447 1.3158 462.447C0.757687 462.447 0.304688 461.996 0.304688 461.437C0.304688 460.879 0.757687 460.427 1.3158 460.427Z" fill="#595959"/>
<path d="M1.3158 433.435C1.87378 433.435 2.32569 433.888 2.32569 434.444C2.32569 435.004 1.87379 435.456 1.3158 435.456C0.757687 435.456 0.304688 435.004 0.304688 434.444C0.304688 433.888 0.757687 433.435 1.3158 433.435Z" fill="#595959"/>
<path d="M23.8157 552.97C24.3737 552.97 24.8267 553.422 24.8267 553.979C24.8267 554.54 24.3737 554.991 23.8157 554.991C23.2576 554.991 22.8057 554.54 22.8057 553.979C22.8057 553.422 23.2576 552.97 23.8157 552.97Z" fill="#595959"/>
<path d="M23.8157 529.062C24.3737 529.062 24.8267 529.516 24.8267 530.072C24.8267 530.632 24.3737 531.084 23.8157 531.084C23.2576 531.084 22.8057 530.632 22.8057 530.072C22.8057 529.516 23.2576 529.062 23.8157 529.062Z" fill="#595959"/>
<path d="M23.8157 505.155C24.3737 505.155 24.8267 505.607 24.8267 506.166C24.8267 506.726 24.3737 507.178 23.8157 507.178C23.2576 507.178 22.8057 506.726 22.8057 506.166C22.8057 505.607 23.2576 505.155 23.8157 505.155Z" fill="#595959"/>
<path d="M23.8157 481.249C24.3737 481.249 24.8267 481.701 24.8267 482.261C24.8267 482.819 24.3737 483.271 23.8157 483.271C23.2576 483.271 22.8057 482.819 22.8057 482.261C22.8057 481.701 23.2576 481.249 23.8157 481.249Z" fill="#595959"/>
<path d="M23.8157 460.427C24.3737 460.427 24.8267 460.879 24.8267 461.437C24.8267 461.996 24.3737 462.447 23.8157 462.447C23.2576 462.447 22.8057 461.996 22.8057 461.437C22.8057 460.879 23.2576 460.427 23.8157 460.427Z" fill="#595959"/>
<path d="M23.8157 433.435C24.3737 433.435 24.8267 433.888 24.8267 434.444C24.8267 435.004 24.3737 435.456 23.8157 435.456C23.2576 435.456 22.8057 435.004 22.8057 434.444C22.8057 433.888 23.2576 433.435 23.8157 433.435Z" fill="#595959"/>
<path d="M46.3167 552.97C46.8746 552.97 47.3276 553.422 47.3276 553.979C47.3276 554.54 46.8746 554.991 46.3167 554.991C45.7576 554.991 45.3057 554.54 45.3057 553.979C45.3057 553.422 45.7576 552.97 46.3167 552.97Z" fill="#595959"/>
<path d="M46.3167 529.062C46.8746 529.062 47.3276 529.516 47.3276 530.072C47.3276 530.632 46.8746 531.084 46.3167 531.084C45.7576 531.084 45.3057 530.632 45.3057 530.072C45.3057 529.516 45.7576 529.062 46.3167 529.062Z" fill="#595959"/>
<path d="M46.3167 505.155C46.8746 505.155 47.3276 505.607 47.3276 506.166C47.3276 506.726 46.8746 507.178 46.3167 507.178C45.7576 507.178 45.3057 506.726 45.3057 506.166C45.3057 505.607 45.7576 505.155 46.3167 505.155Z" fill="#595959"/>
<path d="M46.3167 481.249C46.8746 481.249 47.3276 481.701 47.3276 482.261C47.3276 482.819 46.8746 483.271 46.3167 483.271C45.7576 483.271 45.3057 482.819 45.3057 482.261C45.3057 481.701 45.7576 481.249 46.3167 481.249Z" fill="#595959"/>
<path d="M46.3167 460.427C46.8746 460.427 47.3276 460.879 47.3276 461.437C47.3276 461.996 46.8746 462.447 46.3167 462.447C45.7576 462.447 45.3057 461.996 45.3057 461.437C45.3057 460.879 45.7576 460.427 46.3167 460.427Z" fill="#595959"/>
<path d="M46.3167 433.435C46.8746 433.435 47.3276 433.888 47.3276 434.444C47.3276 435.004 46.8746 435.456 46.3167 435.456C45.7576 435.456 45.3057 435.004 45.3057 434.444C45.3057 433.888 45.7576 433.435 46.3167 433.435Z" fill="#595959"/>
<path d="M68.8176 552.97C69.3746 552.97 69.8276 553.422 69.8276 553.979C69.8276 554.54 69.3746 554.991 68.8176 554.991C68.2576 554.991 67.8066 554.54 67.8066 553.979C67.8066 553.422 68.2576 552.97 68.8176 552.97Z" fill="#595959"/>
<path d="M68.8176 529.062C69.3746 529.062 69.8276 529.516 69.8276 530.072C69.8276 530.632 69.3746 531.084 68.8176 531.084C68.2576 531.084 67.8066 530.632 67.8066 530.072C67.8066 529.516 68.2576 529.062 68.8176 529.062Z" fill="#595959"/>
<path d="M68.8176 505.155C69.3746 505.155 69.8276 505.607 69.8276 506.166C69.8276 506.726 69.3746 507.178 68.8176 507.178C68.2576 507.178 67.8066 506.726 67.8066 506.166C67.8066 505.607 68.2576 505.155 68.8176 505.155Z" fill="#595959"/>
<path d="M68.8176 481.249C69.3746 481.249 69.8276 481.701 69.8276 482.261C69.8276 482.819 69.3746 483.271 68.8176 483.271C68.2576 483.271 67.8066 482.819 67.8066 482.261C67.8066 481.701 68.2576 481.249 68.8176 481.249Z" fill="#595959"/>
<path d="M68.8176 460.427C69.3746 460.427 69.8276 460.879 69.8276 461.437C69.8276 461.996 69.3746 462.447 68.8176 462.447C68.2576 462.447 67.8066 461.996 67.8066 461.437C67.8066 460.879 68.2576 460.427 68.8176 460.427Z" fill="#595959"/>
<path d="M68.8176 433.435C69.3746 433.435 69.8276 433.888 69.8276 434.444C69.8276 435.004 69.3746 435.456 68.8176 435.456C68.2576 435.456 67.8066 435.004 67.8066 434.444C67.8066 433.888 68.2576 433.435 68.8176 433.435Z" fill="#595959"/>
<path d="M91.3186 552.97C91.8756 552.97 92.3286 553.422 92.3286 553.979C92.3286 554.54 91.8756 554.991 91.3186 554.991C90.7596 554.991 90.3076 554.54 90.3076 553.979C90.3076 553.422 90.7596 552.97 91.3186 552.97Z" fill="#595959"/>
<path d="M91.3186 529.062C91.8756 529.062 92.3286 529.516 92.3286 530.072C92.3286 530.632 91.8756 531.084 91.3186 531.084C90.7596 531.084 90.3076 530.632 90.3076 530.072C90.3076 529.516 90.7596 529.062 91.3186 529.062Z" fill="#595959"/>
<path d="M91.3186 505.155C91.8756 505.155 92.3286 505.607 92.3286 506.166C92.3286 506.726 91.8756 507.178 91.3186 507.178C90.7596 507.178 90.3076 506.726 90.3076 506.166C90.3076 505.607 90.7596 505.155 91.3186 505.155Z" fill="#595959"/>
<path d="M91.3186 481.249C91.8756 481.249 92.3286 481.701 92.3286 482.261C92.3286 482.819 91.8756 483.271 91.3186 483.271C90.7596 483.271 90.3076 482.819 90.3076 482.261C90.3076 481.701 90.7596 481.249 91.3186 481.249Z" fill="#595959"/>
<path d="M91.3186 457.342C91.8756 457.342 92.3286 457.795 92.3286 458.353C92.3286 458.912 91.8756 459.364 91.3186 459.364C90.7596 459.364 90.3076 458.912 90.3076 458.353C90.3076 457.795 90.7596 457.342 91.3186 457.342Z" fill="#595959"/>
<path d="M91.3186 433.435C91.8756 433.435 92.3286 433.888 92.3286 434.444C92.3286 435.004 91.8756 435.456 91.3186 435.456C90.7596 435.456 90.3076 435.004 90.3076 434.444C90.3076 433.888 90.7596 433.435 91.3186 433.435Z" fill="#595959"/>
<path d="M113.819 552.97C114.377 552.97 114.83 553.422 114.83 553.979C114.83 554.54 114.377 554.991 113.819 554.991C113.261 554.991 112.808 554.54 112.808 553.979C112.808 553.422 113.261 552.97 113.819 552.97Z" fill="#595959"/>
<path d="M113.819 529.062C114.377 529.062 114.83 529.516 114.83 530.072C114.83 530.632 114.377 531.084 113.819 531.084C113.261 531.084 112.808 530.632 112.808 530.072C112.808 529.516 113.261 529.062 113.819 529.062Z" fill="#595959"/>
<path d="M113.819 505.155C114.377 505.155 114.83 505.607 114.83 506.166C114.83 506.726 114.377 507.178 113.819 507.178C113.261 507.178 112.808 506.726 112.808 506.166C112.808 505.607 113.261 505.155 113.819 505.155Z" fill="#595959"/>
<path d="M113.819 481.249C114.377 481.249 114.83 481.701 114.83 482.261C114.83 482.819 114.377 483.271 113.819 483.271C113.261 483.271 112.808 482.819 112.808 482.261C112.808 481.701 113.261 481.249 113.819 481.249Z" fill="#595959"/>
<path d="M113.819 457.342C114.377 457.342 114.83 457.795 114.83 458.353C114.83 458.912 114.377 459.364 113.819 459.364C113.261 459.364 112.808 458.912 112.808 458.353C112.808 457.795 113.261 457.342 113.819 457.342Z" fill="#595959"/>
<path d="M113.819 433.435C114.377 433.435 114.83 433.888 114.83 434.444C114.83 435.004 114.377 435.456 113.819 435.456C113.261 435.456 112.808 435.004 112.808 434.444C112.808 433.888 113.261 433.435 113.819 433.435Z" fill="#595959"/>
<path d="M1.3158 626.871C1.87378 626.871 2.32569 627.324 2.32569 627.881C2.32569 628.441 1.87379 628.894 1.3158 628.894C0.757687 628.894 0.304688 628.441 0.304688 627.881C0.304688 627.324 0.757687 626.871 1.3158 626.871Z" fill="#595959"/>
<path d="M1.3158 602.964C1.87378 602.964 2.32569 603.417 2.32569 603.975C2.32569 604.534 1.87379 604.986 1.3158 604.986C0.757687 604.986 0.304688 604.534 0.304688 603.975C0.304688 603.417 0.757687 602.964 1.3158 602.964Z" fill="#595959"/>
<path d="M1.3158 579.058C1.87378 579.058 2.32569 579.509 2.32569 580.067C2.32569 580.625 1.87379 581.078 1.3158 581.078C0.757687 581.078 0.304688 580.625 0.304688 580.067C0.304688 579.509 0.757687 579.058 1.3158 579.058Z" fill="#595959"/>
<path d="M23.8157 626.871C24.3737 626.871 24.8267 627.324 24.8267 627.881C24.8267 628.441 24.3737 628.894 23.8157 628.894C23.2576 628.894 22.8057 628.441 22.8057 627.881C22.8057 627.324 23.2576 626.871 23.8157 626.871Z" fill="#595959"/>
<path d="M23.8157 602.964C24.3737 602.964 24.8267 603.417 24.8267 603.975C24.8267 604.534 24.3737 604.986 23.8157 604.986C23.2576 604.986 22.8057 604.534 22.8057 603.975C22.8057 603.417 23.2576 602.964 23.8157 602.964Z" fill="#595959"/>
<path d="M23.8157 579.058C24.3737 579.058 24.8267 579.509 24.8267 580.067C24.8267 580.625 24.3737 581.078 23.8157 581.078C23.2576 581.078 22.8057 580.625 22.8057 580.067C22.8057 579.509 23.2576 579.058 23.8157 579.058Z" fill="#595959"/>
<path d="M46.3167 626.871C46.8746 626.871 47.3276 627.324 47.3276 627.881C47.3276 628.441 46.8746 628.894 46.3167 628.894C45.7576 628.894 45.3057 628.441 45.3057 627.881C45.3057 627.324 45.7576 626.871 46.3167 626.871Z" fill="#595959"/>
<path d="M46.3167 602.964C46.8746 602.964 47.3276 603.417 47.3276 603.975C47.3276 604.534 46.8746 604.986 46.3167 604.986C45.7576 604.986 45.3057 604.534 45.3057 603.975C45.3057 603.417 45.7576 602.964 46.3167 602.964Z" fill="#595959"/>
<path d="M46.3167 579.058C46.8746 579.058 47.3276 579.509 47.3276 580.067C47.3276 580.625 46.8746 581.078 46.3167 581.078C45.7576 581.078 45.3057 580.625 45.3057 580.067C45.3057 579.509 45.7576 579.058 46.3167 579.058Z" fill="#595959"/>
<path d="M68.8176 626.871C69.3746 626.871 69.8276 627.324 69.8276 627.881C69.8276 628.441 69.3746 628.894 68.8176 628.894C68.2576 628.894 67.8066 628.441 67.8066 627.881C67.8066 627.324 68.2576 626.871 68.8176 626.871Z" fill="#595959"/>
<path d="M68.8176 602.964C69.3746 602.964 69.8276 603.417 69.8276 603.975C69.8276 604.534 69.3746 604.986 68.8176 604.986C68.2576 604.986 67.8066 604.534 67.8066 603.975C67.8066 603.417 68.2576 602.964 68.8176 602.964Z" fill="#595959"/>
<path d="M68.8176 579.058C69.3746 579.058 69.8276 579.509 69.8276 580.067C69.8276 580.625 69.3746 581.078 68.8176 581.078C68.2576 581.078 67.8066 580.625 67.8066 580.067C67.8066 579.509 68.2576 579.058 68.8176 579.058Z" fill="#595959"/>
<path d="M91.3186 626.871C91.8756 626.871 92.3286 627.324 92.3286 627.881C92.3286 628.441 91.8756 628.894 91.3186 628.894C90.7596 628.894 90.3076 628.441 90.3076 627.881C90.3076 627.324 90.7596 626.871 91.3186 626.871Z" fill="#595959"/>
<path d="M91.3186 602.964C91.8756 602.964 92.3286 603.417 92.3286 603.975C92.3286 604.534 91.8756 604.986 91.3186 604.986C90.7596 604.986 90.3076 604.534 90.3076 603.975C90.3076 603.417 90.7596 602.964 91.3186 602.964Z" fill="#595959"/>
<path d="M91.3186 579.058C91.8756 579.058 92.3286 579.509 92.3286 580.067C92.3286 580.625 91.8756 581.078 91.3186 581.078C90.7596 581.078 90.3076 580.625 90.3076 580.067C90.3076 579.509 90.7596 579.058 91.3186 579.058Z" fill="#595959"/>
<path d="M113.819 626.871C114.377 626.871 114.83 627.324 114.83 627.881C114.83 628.441 114.377 628.894 113.819 628.894C113.261 628.894 112.808 628.441 112.808 627.881C112.808 627.324 113.261 626.871 113.819 626.871Z" fill="#595959"/>
<path d="M113.819 602.964C114.377 602.964 114.83 603.417 114.83 603.975C114.83 604.534 114.377 604.986 113.819 604.986C113.261 604.986 112.808 604.534 112.808 603.975C112.808 603.417 113.261 602.964 113.819 602.964Z" fill="#595959"/>
<path d="M113.819 579.058C114.377 579.058 114.83 579.509 114.83 580.067C114.83 580.625 114.377 581.078 113.819 581.078C113.261 581.078 112.808 580.625 112.808 580.067C112.808 579.509 113.261 579.058 113.819 579.058Z" fill="#595959"/>
<path d="M1.3158 337.481C1.87378 337.481 2.32569 337.935 2.32569 338.491C2.32569 339.052 1.87379 339.503 1.3158 339.503C0.757687 339.503 0.304688 339.052 0.304688 338.491C0.304688 337.935 0.757687 337.481 1.3158 337.481Z" fill="#595959"/>
<path d="M1.3158 313.574C1.87378 313.574 2.32569 314.027 2.32569 314.584C2.32569 315.145 1.87379 315.597 1.3158 315.597C0.757687 315.597 0.304688 315.145 0.304688 314.584C0.304688 314.027 0.757687 313.574 1.3158 313.574Z" fill="#595959"/>
<path d="M1.3158 289.667C1.87378 289.667 2.32569 290.119 2.32569 290.679C2.32569 291.237 1.87379 291.689 1.3158 291.689C0.757687 291.689 0.304688 291.237 0.304688 290.679C0.304688 290.119 0.757687 289.667 1.3158 289.667Z" fill="#595959"/>
<path d="M23.8157 337.481C24.3737 337.481 24.8267 337.935 24.8267 338.491C24.8267 339.052 24.3737 339.503 23.8157 339.503C23.2576 339.503 22.8057 339.052 22.8057 338.491C22.8057 337.935 23.2576 337.481 23.8157 337.481Z" fill="#595959"/>
<path d="M23.8157 313.574C24.3737 313.574 24.8267 314.027 24.8267 314.584C24.8267 315.145 24.3737 315.597 23.8157 315.597C23.2576 315.597 22.8057 315.145 22.8057 314.584C22.8057 314.027 23.2576 313.574 23.8157 313.574Z" fill="#595959"/>
<path d="M23.8157 289.667C24.3737 289.667 24.8267 290.119 24.8267 290.679C24.8267 291.237 24.3737 291.689 23.8157 291.689C23.2576 291.689 22.8057 291.237 22.8057 290.679C22.8057 290.119 23.2576 289.667 23.8157 289.667Z" fill="#595959"/>
<path d="M46.3167 337.481C46.8746 337.481 47.3276 337.935 47.3276 338.491C47.3276 339.052 46.8746 339.503 46.3167 339.503C45.7576 339.503 45.3057 339.052 45.3057 338.491C45.3057 337.935 45.7576 337.481 46.3167 337.481Z" fill="#595959"/>
<path d="M46.3167 313.574C46.8746 313.574 47.3276 314.027 47.3276 314.584C47.3276 315.145 46.8746 315.597 46.3167 315.597C45.7576 315.597 45.3057 315.145 45.3057 314.584C45.3057 314.027 45.7576 313.574 46.3167 313.574Z" fill="#595959"/>
<path d="M46.3167 289.667C46.8746 289.667 47.3276 290.119 47.3276 290.679C47.3276 291.237 46.8746 291.689 46.3167 291.689C45.7576 291.689 45.3057 291.237 45.3057 290.679C45.3057 290.119 45.7576 289.667 46.3167 289.667Z" fill="#595959"/>
<path d="M68.8176 337.481C69.3746 337.481 69.8276 337.935 69.8276 338.491C69.8276 339.052 69.3746 339.503 68.8176 339.503C68.2576 339.503 67.8066 339.052 67.8066 338.491C67.8066 337.935 68.2576 337.481 68.8176 337.481Z" fill="#595959"/>
<path d="M68.8176 313.574C69.3746 313.574 69.8276 314.027 69.8276 314.584C69.8276 315.145 69.3746 315.597 68.8176 315.597C68.2576 315.597 67.8066 315.145 67.8066 314.584C67.8066 314.027 68.2576 313.574 68.8176 313.574Z" fill="#595959"/>
<path d="M68.8176 289.667C69.3746 289.667 69.8276 290.119 69.8276 290.679C69.8276 291.237 69.3746 291.689 68.8176 291.689C68.2576 291.689 67.8066 291.237 67.8066 290.679C67.8066 290.119 68.2576 289.667 68.8176 289.667Z" fill="#595959"/>
<path d="M91.3186 337.481C91.8756 337.481 92.3286 337.935 92.3286 338.491C92.3286 339.052 91.8756 339.503 91.3186 339.503C90.7596 339.503 90.3076 339.052 90.3076 338.491C90.3076 337.935 90.7596 337.481 91.3186 337.481Z" fill="#595959"/>
<path d="M91.3186 313.574C91.8756 313.574 92.3286 314.027 92.3286 314.584C92.3286 315.145 91.8756 315.597 91.3186 315.597C90.7596 315.597 90.3076 315.145 90.3076 314.584C90.3076 314.027 90.7596 313.574 91.3186 313.574Z" fill="#595959"/>
<path d="M91.3186 289.667C91.8756 289.667 92.3286 290.119 92.3286 290.679C92.3286 291.237 91.8756 291.689 91.3186 291.689C90.7596 291.689 90.3076 291.237 90.3076 290.679C90.3076 290.119 90.7596 289.667 91.3186 289.667Z" fill="#595959"/>
<path d="M113.819 337.481C114.377 337.481 114.83 337.935 114.83 338.491C114.83 339.052 114.377 339.503 113.819 339.503C113.261 339.503 112.808 339.052 112.808 338.491C112.808 337.935 113.261 337.481 113.819 337.481Z" fill="#595959"/>
<path d="M113.819 313.574C114.377 313.574 114.83 314.027 114.83 314.584C114.83 315.145 114.377 315.597 113.819 315.597C113.261 315.597 112.808 315.145 112.808 314.584C112.808 314.027 113.261 313.574 113.819 313.574Z" fill="#595959"/>
<path d="M113.819 289.667C114.377 289.667 114.83 290.119 114.83 290.679C114.83 291.237 114.377 291.689 113.819 291.689C113.261 291.689 112.808 291.237 112.808 290.679C112.808 290.119 113.261 289.667 113.819 289.667Z" fill="#595959"/>
<path d="M1.3158 411.383C1.87378 411.383 2.32569 411.836 2.32569 412.394C2.32569 412.953 1.87379 413.405 1.3158 413.405C0.757687 413.405 0.304688 412.953 0.304688 412.394C0.304688 411.836 0.757687 411.383 1.3158 411.383Z" fill="#595959"/>
<path d="M1.3158 387.476C1.87378 387.476 2.32569 387.929 2.32569 388.485C2.32569 389.045 1.87379 389.497 1.3158 389.497C0.757687 389.497 0.304688 389.045 0.304688 388.485C0.304688 387.929 0.757687 387.476 1.3158 387.476Z" fill="#595959"/>
<path d="M1.3158 363.569C1.87378 363.569 2.32569 364.021 2.32569 364.579C2.32569 365.138 1.87379 365.59 1.3158 365.59C0.757687 365.59 0.304688 365.138 0.304688 364.579C0.304688 364.021 0.757687 363.569 1.3158 363.569Z" fill="#595959"/>
<path d="M23.8157 411.383C24.3737 411.383 24.8267 411.836 24.8267 412.394C24.8267 412.953 24.3737 413.405 23.8157 413.405C23.2576 413.405 22.8057 412.953 22.8057 412.394C22.8057 411.836 23.2576 411.383 23.8157 411.383Z" fill="#595959"/>
<path d="M23.8157 387.476C24.3737 387.476 24.8267 387.929 24.8267 388.485C24.8267 389.045 24.3737 389.497 23.8157 389.497C23.2576 389.497 22.8057 389.045 22.8057 388.485C22.8057 387.929 23.2576 387.476 23.8157 387.476Z" fill="#595959"/>
<path d="M23.8157 363.569C24.3737 363.569 24.8267 364.021 24.8267 364.579C24.8267 365.138 24.3737 365.59 23.8157 365.59C23.2576 365.59 22.8057 365.138 22.8057 364.579C22.8057 364.021 23.2576 363.569 23.8157 363.569Z" fill="#595959"/>
<path d="M46.3167 411.383C46.8746 411.383 47.3276 411.836 47.3276 412.394C47.3276 412.953 46.8746 413.405 46.3167 413.405C45.7576 413.405 45.3057 412.953 45.3057 412.394C45.3057 411.836 45.7576 411.383 46.3167 411.383Z" fill="#595959"/>
<path d="M46.3167 387.476C46.8746 387.476 47.3276 387.929 47.3276 388.485C47.3276 389.045 46.8746 389.497 46.3167 389.497C45.7576 389.497 45.3057 389.045 45.3057 388.485C45.3057 387.929 45.7576 387.476 46.3167 387.476Z" fill="#595959"/>
<path d="M46.3167 363.569C46.8746 363.569 47.3276 364.021 47.3276 364.579C47.3276 365.138 46.8746 365.59 46.3167 365.59C45.7576 365.59 45.3057 365.138 45.3057 364.579C45.3057 364.021 45.7576 363.569 46.3167 363.569Z" fill="#595959"/>
<path d="M68.8176 411.383C69.3746 411.383 69.8276 411.836 69.8276 412.394C69.8276 412.953 69.3746 413.405 68.8176 413.405C68.2576 413.405 67.8066 412.953 67.8066 412.394C67.8066 411.836 68.2576 411.383 68.8176 411.383Z" fill="#595959"/>
<path d="M68.8176 387.476C69.3746 387.476 69.8276 387.929 69.8276 388.485C69.8276 389.045 69.3746 389.497 68.8176 389.497C68.2576 389.497 67.8066 389.045 67.8066 388.485C67.8066 387.929 68.2576 387.476 68.8176 387.476Z" fill="#595959"/>
<path d="M68.8176 363.569C69.3746 363.569 69.8276 364.021 69.8276 364.579C69.8276 365.138 69.3746 365.59 68.8176 365.59C68.2576 365.59 67.8066 365.138 67.8066 364.579C67.8066 364.021 68.2576 363.569 68.8176 363.569Z" fill="#595959"/>
<path d="M91.3186 411.383C91.8756 411.383 92.3286 411.836 92.3286 412.394C92.3286 412.953 91.8756 413.405 91.3186 413.405C90.7596 413.405 90.3076 412.953 90.3076 412.394C90.3076 411.836 90.7596 411.383 91.3186 411.383Z" fill="#595959"/>
<path d="M91.3186 387.476C91.8756 387.476 92.3286 387.929 92.3286 388.485C92.3286 389.045 91.8756 389.497 91.3186 389.497C90.7596 389.497 90.3076 389.045 90.3076 388.485C90.3076 387.929 90.7596 387.476 91.3186 387.476Z" fill="#595959"/>
<path d="M91.3186 363.569C91.8756 363.569 92.3286 364.021 92.3286 364.579C92.3286 365.138 91.8756 365.59 91.3186 365.59C90.7596 365.59 90.3076 365.138 90.3076 364.579C90.3076 364.021 90.7596 363.569 91.3186 363.569Z" fill="#595959"/>
<path d="M113.819 411.383C114.377 411.383 114.83 411.836 114.83 412.394C114.83 412.953 114.377 413.405 113.819 413.405C113.261 413.405 112.808 412.953 112.808 412.394C112.808 411.836 113.261 411.383 113.819 411.383Z" fill="#595959"/>
<path d="M113.819 387.476C114.377 387.476 114.83 387.929 114.83 388.485C114.83 389.045 114.377 389.497 113.819 389.497C113.261 389.497 112.808 389.045 112.808 388.485C112.808 387.929 113.261 387.476 113.819 387.476Z" fill="#595959"/>
<path d="M113.819 363.569C114.377 363.569 114.83 364.021 114.83 364.579C114.83 365.138 114.377 365.59 113.819 365.59C113.261 365.59 112.808 365.138 112.808 364.579C112.808 364.021 113.261 363.569 113.819 363.569Z" fill="#595959"/>
<path d="M1.3158 190.128C1.87378 190.128 2.32569 190.581 2.32569 191.139C2.32569 191.698 1.87379 192.149 1.3158 192.149C0.757687 192.149 0.304688 191.698 0.304688 191.139C0.304688 190.581 0.757687 190.128 1.3158 190.128Z" fill="#595959"/>
<path d="M1.3158 166.221C1.87378 166.221 2.32569 166.673 2.32569 167.23C2.32569 167.789 1.87379 168.242 1.3158 168.242C0.757687 168.242 0.304688 167.789 0.304688 167.23C0.304688 166.673 0.757687 166.221 1.3158 166.221Z" fill="#595959"/>
<path d="M1.3158 142.312C1.87378 142.312 2.32569 142.766 2.32569 143.324C2.32569 143.882 1.87379 144.335 1.3158 144.335C0.757687 144.335 0.304688 143.882 0.304688 143.324C0.304688 142.766 0.757687 142.312 1.3158 142.312Z" fill="#595959"/>
<path d="M1.3158 118.407C1.87378 118.407 2.32569 118.859 2.32569 119.418C2.32569 119.977 1.87379 120.429 1.3158 120.429C0.757687 120.429 0.304688 119.977 0.304688 119.418C0.304688 118.859 0.757687 118.407 1.3158 118.407Z" fill="#595959"/>
<path d="M1.3158 97.585C1.87378 97.585 2.32569 98.0381 2.32569 98.5957C2.32569 99.1553 1.87379 99.6064 1.3158 99.6064C0.757687 99.6064 0.304688 99.1553 0.304688 98.5957C0.304688 98.0381 0.757687 97.585 1.3158 97.585Z" fill="#595959"/>
<path d="M1.3158 70.5928C1.87378 70.5928 2.32569 71.0439 2.32569 71.6025C2.32569 72.1621 1.87379 72.6143 1.3158 72.6143C0.757687 72.6143 0.304688 72.1621 0.304688 71.6025C0.304688 71.044 0.757687 70.5928 1.3158 70.5928Z" fill="#595959"/>
<path d="M23.8157 190.128C24.3737 190.128 24.8267 190.581 24.8267 191.139C24.8267 191.698 24.3737 192.149 23.8157 192.149C23.2576 192.149 22.8057 191.698 22.8057 191.139C22.8057 190.581 23.2576 190.128 23.8157 190.128Z" fill="#595959"/>
<path d="M23.8157 166.221C24.3737 166.221 24.8267 166.673 24.8267 167.23C24.8267 167.789 24.3737 168.242 23.8157 168.242C23.2576 168.242 22.8057 167.789 22.8057 167.23C22.8057 166.673 23.2576 166.221 23.8157 166.221Z" fill="#595959"/>
<path d="M23.8157 142.312C24.3737 142.312 24.8267 142.766 24.8267 143.324C24.8267 143.882 24.3737 144.335 23.8157 144.335C23.2576 144.335 22.8057 143.882 22.8057 143.324C22.8057 142.766 23.2576 142.312 23.8157 142.312Z" fill="#595959"/>
<path d="M23.8157 118.407C24.3737 118.407 24.8267 118.859 24.8267 119.418C24.8267 119.977 24.3737 120.429 23.8157 120.429C23.2576 120.429 22.8057 119.977 22.8057 119.418C22.8057 118.859 23.2576 118.407 23.8157 118.407Z" fill="#595959"/>
<path d="M23.8157 97.585C24.3737 97.585 24.8267 98.0381 24.8267 98.5957C24.8267 99.1553 24.3737 99.6064 23.8157 99.6064C23.2576 99.6064 22.8057 99.1553 22.8057 98.5957C22.8057 98.0381 23.2576 97.585 23.8157 97.585Z" fill="#595959"/>
<path d="M23.8157 70.5928C24.3737 70.5928 24.8267 71.0439 24.8267 71.6025C24.8267 72.1621 24.3737 72.6143 23.8157 72.6143C23.2576 72.6143 22.8057 72.1621 22.8057 71.6025C22.8057 71.044 23.2576 70.5928 23.8157 70.5928Z" fill="#595959"/>
<path d="M46.3167 190.128C46.8746 190.128 47.3276 190.581 47.3276 191.139C47.3276 191.698 46.8746 192.149 46.3167 192.149C45.7576 192.149 45.3057 191.698 45.3057 191.139C45.3057 190.581 45.7576 190.128 46.3167 190.128Z" fill="#595959"/>
<path d="M46.3167 166.221C46.8746 166.221 47.3276 166.673 47.3276 167.23C47.3276 167.789 46.8746 168.242 46.3167 168.242C45.7576 168.242 45.3057 167.789 45.3057 167.23C45.3057 166.673 45.7576 166.221 46.3167 166.221Z" fill="#595959"/>
<path d="M46.3167 142.312C46.8746 142.312 47.3276 142.766 47.3276 143.324C47.3276 143.882 46.8746 144.335 46.3167 144.335C45.7576 144.335 45.3057 143.882 45.3057 143.324C45.3057 142.766 45.7576 142.312 46.3167 142.312Z" fill="#595959"/>
<path d="M46.3167 118.407C46.8746 118.407 47.3276 118.859 47.3276 119.418C47.3276 119.977 46.8746 120.429 46.3167 120.429C45.7576 120.429 45.3057 119.977 45.3057 119.418C45.3057 118.859 45.7576 118.407 46.3167 118.407Z" fill="#595959"/>
<path d="M46.3167 97.585C46.8746 97.585 47.3276 98.0381 47.3276 98.5957C47.3276 99.1553 46.8746 99.6064 46.3167 99.6064C45.7576 99.6064 45.3057 99.1553 45.3057 98.5957C45.3057 98.0381 45.7576 97.585 46.3167 97.585Z" fill="#595959"/>
<path d="M46.3167 70.5928C46.8746 70.5928 47.3276 71.0439 47.3276 71.6025C47.3276 72.1621 46.8746 72.6143 46.3167 72.6143C45.7576 72.6143 45.3057 72.1621 45.3057 71.6025C45.3057 71.044 45.7576 70.5928 46.3167 70.5928Z" fill="#595959"/>
<path d="M68.8176 190.128C69.3746 190.128 69.8276 190.581 69.8276 191.139C69.8276 191.698 69.3746 192.149 68.8176 192.149C68.2576 192.149 67.8066 191.698 67.8066 191.139C67.8066 190.581 68.2576 190.128 68.8176 190.128Z" fill="#595959"/>
<path d="M68.8176 166.221C69.3746 166.221 69.8276 166.673 69.8276 167.23C69.8276 167.789 69.3746 168.242 68.8176 168.242C68.2576 168.242 67.8066 167.789 67.8066 167.23C67.8066 166.673 68.2576 166.221 68.8176 166.221Z" fill="#595959"/>
<path d="M68.8176 142.312C69.3746 142.312 69.8276 142.766 69.8276 143.324C69.8276 143.882 69.3746 144.335 68.8176 144.335C68.2576 144.335 67.8066 143.882 67.8066 143.324C67.8066 142.766 68.2576 142.312 68.8176 142.312Z" fill="#595959"/>
<path d="M68.8176 118.407C69.3746 118.407 69.8276 118.859 69.8276 119.418C69.8276 119.977 69.3746 120.429 68.8176 120.429C68.2576 120.429 67.8066 119.977 67.8066 119.418C67.8066 118.859 68.2576 118.407 68.8176 118.407Z" fill="#595959"/>
<path d="M68.8176 97.585C69.3746 97.585 69.8276 98.0381 69.8276 98.5957C69.8276 99.1553 69.3746 99.6064 68.8176 99.6064C68.2576 99.6064 67.8066 99.1553 67.8066 98.5957C67.8066 98.0381 68.2576 97.585 68.8176 97.585Z" fill="#595959"/>
<path d="M68.8176 70.5928C69.3746 70.5928 69.8276 71.0439 69.8276 71.6025C69.8276 72.1621 69.3746 72.6143 68.8176 72.6143C68.2576 72.6143 67.8066 72.1621 67.8066 71.6025C67.8066 71.044 68.2576 70.5928 68.8176 70.5928Z" fill="#595959"/>
<path d="M91.3186 190.128C91.8756 190.128 92.3286 190.581 92.3286 191.139C92.3286 191.698 91.8756 192.149 91.3186 192.149C90.7596 192.149 90.3076 191.698 90.3076 191.139C90.3076 190.581 90.7596 190.128 91.3186 190.128Z" fill="#595959"/>
<path d="M91.3186 166.221C91.8756 166.221 92.3286 166.673 92.3286 167.23C92.3286 167.789 91.8756 168.242 91.3186 168.242C90.7596 168.242 90.3076 167.789 90.3076 167.23C90.3076 166.673 90.7596 166.221 91.3186 166.221Z" fill="#595959"/>
<path d="M91.3186 142.312C91.8756 142.312 92.3286 142.766 92.3286 143.324C92.3286 143.882 91.8756 144.335 91.3186 144.335C90.7596 144.335 90.3076 143.882 90.3076 143.324C90.3076 142.766 90.7596 142.312 91.3186 142.312Z" fill="#595959"/>
<path d="M91.3186 118.407C91.8756 118.407 92.3286 118.859 92.3286 119.418C92.3286 119.977 91.8756 120.429 91.3186 120.429C90.7596 120.429 90.3076 119.977 90.3076 119.418C90.3076 118.859 90.7596 118.407 91.3186 118.407Z" fill="#595959"/>
<path d="M91.3186 94.5C91.8756 94.5 92.3286 94.9531 92.3286 95.5107C92.3286 96.0703 91.8756 96.5215 91.3186 96.5215C90.7596 96.5215 90.3076 96.0703 90.3076 95.5107C90.3076 94.9531 90.7596 94.5 91.3186 94.5Z" fill="#595959"/>
<path d="M91.3186 70.5928C91.8756 70.5928 92.3286 71.0439 92.3286 71.6025C92.3286 72.1621 91.8756 72.6143 91.3186 72.6143C90.7596 72.6143 90.3076 72.1621 90.3076 71.6025C90.3076 71.044 90.7596 70.5928 91.3186 70.5928Z" fill="#595959"/>
<path d="M113.819 190.128C114.377 190.128 114.83 190.581 114.83 191.139C114.83 191.698 114.377 192.149 113.819 192.149C113.261 192.149 112.808 191.698 112.808 191.139C112.808 190.581 113.261 190.128 113.819 190.128Z" fill="#595959"/>
<path d="M113.819 166.221C114.377 166.221 114.83 166.673 114.83 167.23C114.83 167.789 114.377 168.242 113.819 168.242C113.261 168.242 112.808 167.789 112.808 167.23C112.808 166.673 113.261 166.221 113.819 166.221Z" fill="#595959"/>
<path d="M113.819 142.312C114.377 142.312 114.83 142.766 114.83 143.324C114.83 143.882 114.377 144.335 113.819 144.335C113.261 144.335 112.808 143.882 112.808 143.324C112.808 142.766 113.261 142.312 113.819 142.312Z" fill="#595959"/>
<path d="M113.819 118.407C114.377 118.407 114.83 118.859 114.83 119.418C114.83 119.977 114.377 120.429 113.819 120.429C113.261 120.429 112.808 119.977 112.808 119.418C112.808 118.859 113.261 118.407 113.819 118.407Z" fill="#595959"/>
<path d="M113.819 94.5C114.377 94.5 114.83 94.9531 114.83 95.5107C114.83 96.0703 114.377 96.5215 113.819 96.5215C113.261 96.5215 112.808 96.0703 112.808 95.5107C112.808 94.9531 113.261 94.5 113.819 94.5Z" fill="#595959"/>
<path d="M113.819 70.5928C114.377 70.5928 114.83 71.0439 114.83 71.6025C114.83 72.1621 114.377 72.6143 113.819 72.6143C113.261 72.6143 112.808 72.1621 112.808 71.6025C112.808 71.044 113.261 70.5928 113.819 70.5928Z" fill="#595959"/>
<path d="M1.3158 264.029C1.87378 264.029 2.32569 264.482 2.32569 265.039C2.32569 265.6 1.87379 266.05 1.3158 266.05C0.757687 266.05 0.304688 265.6 0.304688 265.039C0.304688 264.482 0.757687 264.029 1.3158 264.029Z" fill="#595959"/>
<path d="M1.3158 240.122C1.87378 240.122 2.32569 240.575 2.32569 241.132C2.32569 241.692 1.87379 242.145 1.3158 242.145C0.757687 242.145 0.304688 241.692 0.304688 241.132C0.304688 240.575 0.757687 240.122 1.3158 240.122Z" fill="#595959"/>
<path d="M1.3158 216.216C1.87378 216.216 2.32569 216.667 2.32569 217.226C2.32569 217.784 1.87379 218.237 1.3158 218.237C0.757687 218.237 0.304688 217.784 0.304688 217.226C0.304688 216.667 0.757687 216.216 1.3158 216.216Z" fill="#595959"/>
<path d="M23.8157 264.029C24.3737 264.029 24.8267 264.482 24.8267 265.039C24.8267 265.6 24.3737 266.05 23.8157 266.05C23.2576 266.05 22.8057 265.6 22.8057 265.039C22.8057 264.482 23.2576 264.029 23.8157 264.029Z" fill="#595959"/>
<path d="M23.8157 240.122C24.3737 240.122 24.8267 240.575 24.8267 241.132C24.8267 241.692 24.3737 242.145 23.8157 242.145C23.2576 242.145 22.8057 241.692 22.8057 241.132C22.8057 240.575 23.2576 240.122 23.8157 240.122Z" fill="#595959"/>
<path d="M23.8157 216.216C24.3737 216.216 24.8267 216.667 24.8267 217.226C24.8267 217.784 24.3737 218.237 23.8157 218.237C23.2576 218.237 22.8057 217.784 22.8057 217.226C22.8057 216.667 23.2576 216.216 23.8157 216.216Z" fill="#595959"/>
<path d="M46.3167 264.029C46.8746 264.029 47.3276 264.482 47.3276 265.039C47.3276 265.6 46.8746 266.05 46.3167 266.05C45.7576 266.05 45.3057 265.6 45.3057 265.039C45.3057 264.482 45.7576 264.029 46.3167 264.029Z" fill="#595959"/>
<path d="M46.3167 240.122C46.8746 240.122 47.3276 240.575 47.3276 241.132C47.3276 241.692 46.8746 242.145 46.3167 242.145C45.7576 242.145 45.3057 241.692 45.3057 241.132C45.3057 240.575 45.7576 240.122 46.3167 240.122Z" fill="#595959"/>
<path d="M46.3167 216.216C46.8746 216.216 47.3276 216.667 47.3276 217.226C47.3276 217.784 46.8746 218.237 46.3167 218.237C45.7576 218.237 45.3057 217.784 45.3057 217.226C45.3057 216.667 45.7576 216.216 46.3167 216.216Z" fill="#595959"/>
<path d="M68.8176 264.029C69.3746 264.029 69.8276 264.482 69.8276 265.039C69.8276 265.6 69.3746 266.05 68.8176 266.05C68.2576 266.05 67.8066 265.6 67.8066 265.039C67.8066 264.482 68.2576 264.029 68.8176 264.029Z" fill="#595959"/>
<path d="M68.8176 240.122C69.3746 240.122 69.8276 240.575 69.8276 241.132C69.8276 241.692 69.3746 242.145 68.8176 242.145C68.2576 242.145 67.8066 241.692 67.8066 241.132C67.8066 240.575 68.2576 240.122 68.8176 240.122Z" fill="#595959"/>
<path d="M68.8176 216.216C69.3746 216.216 69.8276 216.667 69.8276 217.226C69.8276 217.784 69.3746 218.237 68.8176 218.237C68.2576 218.237 67.8066 217.784 67.8066 217.226C67.8066 216.667 68.2576 216.216 68.8176 216.216Z" fill="#595959"/>
<path d="M91.3186 264.029C91.8756 264.029 92.3286 264.482 92.3286 265.039C92.3286 265.6 91.8756 266.05 91.3186 266.05C90.7596 266.05 90.3076 265.6 90.3076 265.039C90.3076 264.482 90.7596 264.029 91.3186 264.029Z" fill="#595959"/>
<path d="M91.3186 240.122C91.8756 240.122 92.3286 240.575 92.3286 241.132C92.3286 241.692 91.8756 242.145 91.3186 242.145C90.7596 242.145 90.3076 241.692 90.3076 241.132C90.3076 240.575 90.7596 240.122 91.3186 240.122Z" fill="#595959"/>
<path d="M91.3186 216.216C91.8756 216.216 92.3286 216.667 92.3286 217.226C92.3286 217.784 91.8756 218.237 91.3186 218.237C90.7596 218.237 90.3076 217.784 90.3076 217.226C90.3076 216.667 90.7596 216.216 91.3186 216.216Z" fill="#595959"/>
<path d="M113.819 264.029C114.377 264.029 114.83 264.482 114.83 265.039C114.83 265.6 114.377 266.05 113.819 266.05C113.261 266.05 112.808 265.6 112.808 265.039C112.808 264.482 113.261 264.029 113.819 264.029Z" fill="#595959"/>
<path d="M113.819 240.122C114.377 240.122 114.83 240.575 114.83 241.132C114.83 241.692 114.377 242.145 113.819 242.145C113.261 242.145 112.808 241.692 112.808 241.132C112.808 240.575 113.261 240.122 113.819 240.122Z" fill="#595959"/>
<path d="M113.819 216.216C114.377 216.216 114.83 216.667 114.83 217.226C114.83 217.784 114.377 218.237 113.819 218.237C113.261 218.237 112.808 217.784 112.808 217.226C112.808 216.667 113.261 216.216 113.819 216.216Z" fill="#595959"/>
<path d="M1.3158 48.54C1.87378 48.54 2.32569 48.9932 2.32569 49.5498C2.32569 50.1104 1.87379 50.5615 1.3158 50.5615C0.757687 50.5615 0.304688 50.1104 0.304688 49.5498C0.304688 48.9932 0.757687 48.54 1.3158 48.54Z" fill="#595959"/>
<path d="M1.3158 24.6328C1.87378 24.6328 2.32569 25.085 2.32569 25.6436C2.32569 26.2031 1.87379 26.6553 1.3158 26.6553C0.757687 26.6553 0.304688 26.2031 0.304688 25.6436C0.304688 25.085 0.757687 24.6328 1.3158 24.6328Z" fill="#595959"/>
<path d="M1.3158 0.725586C1.87378 0.725586 2.32569 1.17774 2.32569 1.73536C2.32569 2.29395 1.87379 2.74708 1.3158 2.74708C0.757687 2.74708 0.304688 2.29396 0.304688 1.73536C0.304688 1.17774 0.757687 0.725586 1.3158 0.725586Z" fill="#595959"/>
<path d="M23.8157 48.54C24.3737 48.54 24.8267 48.9932 24.8267 49.5498C24.8267 50.1104 24.3737 50.5615 23.8157 50.5615C23.2576 50.5615 22.8057 50.1104 22.8057 49.5498C22.8057 48.9932 23.2576 48.54 23.8157 48.54Z" fill="#595959"/>
<path d="M23.8157 24.6328C24.3737 24.6328 24.8267 25.085 24.8267 25.6436C24.8267 26.2031 24.3737 26.6553 23.8157 26.6553C23.2576 26.6553 22.8057 26.2031 22.8057 25.6436C22.8057 25.085 23.2576 24.6328 23.8157 24.6328Z" fill="#595959"/>
<path d="M23.8157 0.725586C24.3737 0.725586 24.8267 1.17774 24.8267 1.73536C24.8267 2.29395 24.3737 2.74708 23.8157 2.74708C23.2576 2.74708 22.8057 2.29396 22.8057 1.73536C22.8057 1.17774 23.2576 0.725586 23.8157 0.725586Z" fill="#595959"/>
<path d="M46.3167 48.54C46.8746 48.54 47.3276 48.9932 47.3276 49.5498C47.3276 50.1104 46.8746 50.5615 46.3167 50.5615C45.7576 50.5615 45.3057 50.1104 45.3057 49.5498C45.3057 48.9932 45.7576 48.54 46.3167 48.54Z" fill="#595959"/>
<path d="M46.3167 24.6328C46.8746 24.6328 47.3276 25.085 47.3276 25.6436C47.3276 26.2031 46.8746 26.6553 46.3167 26.6553C45.7576 26.6553 45.3057 26.2031 45.3057 25.6436C45.3057 25.085 45.7576 24.6328 46.3167 24.6328Z" fill="#595959"/>
<path d="M46.3167 0.725586C46.8746 0.725586 47.3276 1.17774 47.3276 1.73536C47.3276 2.29395 46.8746 2.74708 46.3167 2.74708C45.7576 2.74708 45.3057 2.29396 45.3057 1.73536C45.3057 1.17774 45.7576 0.725586 46.3167 0.725586Z" fill="#595959"/>
<path d="M68.8176 48.54C69.3746 48.54 69.8276 48.9932 69.8276 49.5498C69.8276 50.1104 69.3746 50.5615 68.8176 50.5615C68.2576 50.5615 67.8066 50.1104 67.8066 49.5498C67.8066 48.9932 68.2576 48.54 68.8176 48.54Z" fill="#595959"/>
<path d="M68.8176 24.6328C69.3746 24.6328 69.8276 25.085 69.8276 25.6436C69.8276 26.2031 69.3746 26.6553 68.8176 26.6553C68.2576 26.6553 67.8066 26.2031 67.8066 25.6436C67.8066 25.085 68.2576 24.6328 68.8176 24.6328Z" fill="#595959"/>
<path d="M68.8176 0.725586C69.3746 0.725586 69.8276 1.17774 69.8276 1.73536C69.8276 2.29395 69.3746 2.74708 68.8176 2.74708C68.2576 2.74708 67.8066 2.29396 67.8066 1.73536C67.8066 1.17774 68.2576 0.725586 68.8176 0.725586Z" fill="#595959"/>
<path d="M91.3186 48.54C91.8756 48.54 92.3286 48.9932 92.3286 49.5498C92.3286 50.1104 91.8756 50.5615 91.3186 50.5615C90.7596 50.5615 90.3076 50.1104 90.3076 49.5498C90.3076 48.9932 90.7596 48.54 91.3186 48.54Z" fill="#595959"/>
<path d="M91.3186 24.6328C91.8756 24.6328 92.3286 25.085 92.3286 25.6436C92.3286 26.2031 91.8756 26.6553 91.3186 26.6553C90.7596 26.6553 90.3076 26.2031 90.3076 25.6436C90.3076 25.085 90.7596 24.6328 91.3186 24.6328Z" fill="#595959"/>
<path d="M91.3186 0.725586C91.8756 0.725586 92.3286 1.17774 92.3286 1.73536C92.3286 2.29395 91.8756 2.74708 91.3186 2.74708C90.7596 2.74708 90.3076 2.29396 90.3076 1.73536C90.3076 1.17774 90.7596 0.725586 91.3186 0.725586Z" fill="#595959"/>
<path d="M113.819 48.54C114.377 48.54 114.83 48.9932 114.83 49.5498C114.83 50.1104 114.377 50.5615 113.819 50.5615C113.261 50.5615 112.808 50.1104 112.808 49.5498C112.808 48.9932 113.261 48.54 113.819 48.54Z" fill="#595959"/>
<path d="M113.819 24.6328C114.377 24.6328 114.83 25.085 114.83 25.6436C114.83 26.2031 114.377 26.6553 113.819 26.6553C113.261 26.6553 112.808 26.2031 112.808 25.6436C112.808 25.085 113.261 24.6328 113.819 24.6328Z" fill="#595959"/>
<path d="M113.819 0.725586C114.377 0.725586 114.83 1.17774 114.83 1.73536C114.83 2.29395 114.377 2.74708 113.819 2.74708C113.261 2.74708 112.808 2.29396 112.808 1.73536C112.808 1.17774 113.261 0.725586 113.819 0.725586Z" fill="#595959"/>
</svg>
