<svg width="115" height="629" viewBox="0 0 115 629" fill="none" xmlns="http://www.w3.org/2000/svg">
<path d="M1.22791 552.97C1.78589 552.97 2.2378 553.422 2.2378 553.979C2.2378 554.54 1.7859 554.991 1.22791 554.991C0.669797 554.991 0.216797 554.54 0.216797 553.979C0.216797 553.422 0.669797 552.97 1.22791 552.97Z" fill="#595959"/>
<path d="M1.22791 529.062C1.78589 529.062 2.2378 529.516 2.2378 530.072C2.2378 530.632 1.7859 531.084 1.22791 531.084C0.669797 531.084 0.216797 530.632 0.216797 530.072C0.216797 529.516 0.669797 529.062 1.22791 529.062Z" fill="#595959"/>
<path d="M1.22791 505.155C1.78589 505.155 2.2378 505.607 2.2378 506.166C2.2378 506.726 1.7859 507.178 1.22791 507.178C0.669797 507.178 0.216797 506.726 0.216797 506.166C0.216797 505.607 0.669797 505.155 1.22791 505.155Z" fill="#595959"/>
<path d="M1.22791 481.249C1.78589 481.249 2.2378 481.701 2.2378 482.261C2.2378 482.819 1.7859 483.271 1.22791 483.271C0.669797 483.271 0.216797 482.819 0.216797 482.261C0.216797 481.701 0.669797 481.249 1.22791 481.249Z" fill="#595959"/>
<path d="M1.22791 460.427C1.78589 460.427 2.2378 460.879 2.2378 461.437C2.2378 461.996 1.7859 462.447 1.22791 462.447C0.669797 462.447 0.216797 461.996 0.216797 461.437C0.216797 460.879 0.669797 460.427 1.22791 460.427Z" fill="#595959"/>
<path d="M1.22791 433.435C1.78589 433.435 2.2378 433.888 2.2378 434.444C2.2378 435.004 1.7859 435.456 1.22791 435.456C0.669797 435.456 0.216797 435.004 0.216797 434.444C0.216797 433.888 0.669797 433.435 1.22791 433.435Z" fill="#595959"/>
<path d="M23.7278 552.97C24.2858 552.97 24.7388 553.422 24.7388 553.979C24.7388 554.54 24.2858 554.991 23.7278 554.991C23.1697 554.991 22.7178 554.54 22.7178 553.979C22.7178 553.422 23.1697 552.97 23.7278 552.97Z" fill="#595959"/>
<path d="M23.7278 529.062C24.2858 529.062 24.7388 529.516 24.7388 530.072C24.7388 530.632 24.2858 531.084 23.7278 531.084C23.1697 531.084 22.7178 530.632 22.7178 530.072C22.7178 529.516 23.1697 529.062 23.7278 529.062Z" fill="#595959"/>
<path d="M23.7278 505.155C24.2858 505.155 24.7388 505.607 24.7388 506.166C24.7388 506.726 24.2858 507.178 23.7278 507.178C23.1697 507.178 22.7178 506.726 22.7178 506.166C22.7178 505.607 23.1697 505.155 23.7278 505.155Z" fill="#595959"/>
<path d="M23.7278 481.249C24.2858 481.249 24.7388 481.701 24.7388 482.261C24.7388 482.819 24.2858 483.271 23.7278 483.271C23.1697 483.271 22.7178 482.819 22.7178 482.261C22.7178 481.701 23.1697 481.249 23.7278 481.249Z" fill="#595959"/>
<path d="M23.7278 460.427C24.2858 460.427 24.7388 460.879 24.7388 461.437C24.7388 461.996 24.2858 462.447 23.7278 462.447C23.1697 462.447 22.7178 461.996 22.7178 461.437C22.7178 460.879 23.1697 460.427 23.7278 460.427Z" fill="#595959"/>
<path d="M23.7278 433.435C24.2858 433.435 24.7388 433.888 24.7388 434.444C24.7388 435.004 24.2858 435.456 23.7278 435.456C23.1697 435.456 22.7178 435.004 22.7178 434.444C22.7178 433.888 23.1697 433.435 23.7278 433.435Z" fill="#595959"/>
<path d="M46.2288 552.97C46.7867 552.97 47.2398 553.422 47.2398 553.979C47.2398 554.54 46.7868 554.991 46.2288 554.991C45.6697 554.991 45.2178 554.54 45.2178 553.979C45.2178 553.422 45.6697 552.97 46.2288 552.97Z" fill="#595959"/>
<path d="M46.2288 529.062C46.7867 529.062 47.2398 529.516 47.2398 530.072C47.2398 530.632 46.7868 531.084 46.2288 531.084C45.6697 531.084 45.2178 530.632 45.2178 530.072C45.2178 529.516 45.6697 529.062 46.2288 529.062Z" fill="#595959"/>
<path d="M46.2288 505.155C46.7867 505.155 47.2398 505.607 47.2398 506.166C47.2398 506.726 46.7868 507.178 46.2288 507.178C45.6697 507.178 45.2178 506.726 45.2178 506.166C45.2178 505.607 45.6697 505.155 46.2288 505.155Z" fill="#595959"/>
<path d="M46.2288 481.249C46.7867 481.249 47.2398 481.701 47.2398 482.261C47.2398 482.819 46.7868 483.271 46.2288 483.271C45.6697 483.271 45.2178 482.819 45.2178 482.261C45.2178 481.701 45.6697 481.249 46.2288 481.249Z" fill="#595959"/>
<path d="M46.2288 460.427C46.7867 460.427 47.2398 460.879 47.2398 461.437C47.2398 461.996 46.7868 462.447 46.2288 462.447C45.6697 462.447 45.2178 461.996 45.2178 461.437C45.2178 460.879 45.6697 460.427 46.2288 460.427Z" fill="#595959"/>
<path d="M46.2288 433.435C46.7867 433.435 47.2398 433.888 47.2398 434.444C47.2398 435.004 46.7868 435.456 46.2288 435.456C45.6697 435.456 45.2178 435.004 45.2178 434.444C45.2178 433.888 45.6697 433.435 46.2288 433.435Z" fill="#595959"/>
<path d="M68.7297 552.97C69.2868 552.97 69.7397 553.422 69.7397 553.979C69.7397 554.54 69.2868 554.991 68.7297 554.991C68.1697 554.991 67.7188 554.54 67.7188 553.979C67.7188 553.422 68.1697 552.97 68.7297 552.97Z" fill="#595959"/>
<path d="M68.7297 529.062C69.2868 529.062 69.7397 529.516 69.7397 530.072C69.7397 530.632 69.2868 531.084 68.7297 531.084C68.1697 531.084 67.7188 530.632 67.7188 530.072C67.7188 529.516 68.1697 529.062 68.7297 529.062Z" fill="#595959"/>
<path d="M68.7297 505.155C69.2868 505.155 69.7397 505.607 69.7397 506.166C69.7397 506.726 69.2868 507.178 68.7297 507.178C68.1697 507.178 67.7188 506.726 67.7188 506.166C67.7188 505.607 68.1697 505.155 68.7297 505.155Z" fill="#595959"/>
<path d="M68.7297 481.249C69.2868 481.249 69.7397 481.701 69.7397 482.261C69.7397 482.819 69.2868 483.271 68.7297 483.271C68.1697 483.271 67.7188 482.819 67.7188 482.261C67.7188 481.701 68.1697 481.249 68.7297 481.249Z" fill="#595959"/>
<path d="M68.7297 460.427C69.2868 460.427 69.7397 460.879 69.7397 461.437C69.7397 461.996 69.2868 462.447 68.7297 462.447C68.1697 462.447 67.7188 461.996 67.7188 461.437C67.7188 460.879 68.1697 460.427 68.7297 460.427Z" fill="#595959"/>
<path d="M68.7297 433.435C69.2868 433.435 69.7397 433.888 69.7397 434.444C69.7397 435.004 69.2868 435.456 68.7297 435.456C68.1697 435.456 67.7188 435.004 67.7188 434.444C67.7188 433.888 68.1697 433.435 68.7297 433.435Z" fill="#595959"/>
<path d="M91.2307 552.97C91.7877 552.97 92.2407 553.422 92.2407 553.979C92.2407 554.54 91.7877 554.991 91.2307 554.991C90.6718 554.991 90.2197 554.54 90.2197 553.979C90.2197 553.422 90.6718 552.97 91.2307 552.97Z" fill="#595959"/>
<path d="M91.2307 529.062C91.7877 529.062 92.2407 529.516 92.2407 530.072C92.2407 530.632 91.7877 531.084 91.2307 531.084C90.6718 531.084 90.2197 530.632 90.2197 530.072C90.2197 529.516 90.6718 529.062 91.2307 529.062Z" fill="#595959"/>
<path d="M91.2307 505.155C91.7877 505.155 92.2407 505.607 92.2407 506.166C92.2407 506.726 91.7877 507.178 91.2307 507.178C90.6718 507.178 90.2197 506.726 90.2197 506.166C90.2197 505.607 90.6718 505.155 91.2307 505.155Z" fill="#595959"/>
<path d="M91.2307 481.249C91.7877 481.249 92.2407 481.701 92.2407 482.261C92.2407 482.819 91.7877 483.271 91.2307 483.271C90.6718 483.271 90.2197 482.819 90.2197 482.261C90.2197 481.701 90.6718 481.249 91.2307 481.249Z" fill="#595959"/>
<path d="M91.2307 457.342C91.7877 457.342 92.2407 457.795 92.2407 458.353C92.2407 458.912 91.7877 459.364 91.2307 459.364C90.6718 459.364 90.2197 458.912 90.2197 458.353C90.2197 457.795 90.6718 457.342 91.2307 457.342Z" fill="#595959"/>
<path d="M91.2307 433.435C91.7877 433.435 92.2407 433.888 92.2407 434.444C92.2407 435.004 91.7877 435.456 91.2307 435.456C90.6718 435.456 90.2197 435.004 90.2197 434.444C90.2197 433.888 90.6718 433.435 91.2307 433.435Z" fill="#595959"/>
<path d="M113.731 552.97C114.289 552.97 114.742 553.422 114.742 553.979C114.742 554.54 114.289 554.991 113.731 554.991C113.173 554.991 112.72 554.54 112.72 553.979C112.72 553.422 113.173 552.97 113.731 552.97Z" fill="#595959"/>
<path d="M113.731 529.062C114.289 529.062 114.742 529.516 114.742 530.072C114.742 530.632 114.289 531.084 113.731 531.084C113.173 531.084 112.72 530.632 112.72 530.072C112.72 529.516 113.173 529.062 113.731 529.062Z" fill="#595959"/>
<path d="M113.731 505.155C114.289 505.155 114.742 505.607 114.742 506.166C114.742 506.726 114.289 507.178 113.731 507.178C113.173 507.178 112.72 506.726 112.72 506.166C112.72 505.607 113.173 505.155 113.731 505.155Z" fill="#595959"/>
<path d="M113.731 481.249C114.289 481.249 114.742 481.701 114.742 482.261C114.742 482.819 114.289 483.271 113.731 483.271C113.173 483.271 112.72 482.819 112.72 482.261C112.72 481.701 113.173 481.249 113.731 481.249Z" fill="#595959"/>
<path d="M113.731 457.342C114.289 457.342 114.742 457.795 114.742 458.353C114.742 458.912 114.289 459.364 113.731 459.364C113.173 459.364 112.72 458.912 112.72 458.353C112.72 457.795 113.173 457.342 113.731 457.342Z" fill="#595959"/>
<path d="M113.731 433.435C114.289 433.435 114.742 433.888 114.742 434.444C114.742 435.004 114.289 435.456 113.731 435.456C113.173 435.456 112.72 435.004 112.72 434.444C112.72 433.888 113.173 433.435 113.731 433.435Z" fill="#595959"/>
<path d="M1.22791 626.871C1.78589 626.871 2.2378 627.324 2.2378 627.881C2.2378 628.441 1.7859 628.894 1.22791 628.894C0.669797 628.894 0.216797 628.441 0.216797 627.881C0.216797 627.324 0.669797 626.871 1.22791 626.871Z" fill="#595959"/>
<path d="M1.22791 602.964C1.78589 602.964 2.2378 603.417 2.2378 603.975C2.2378 604.534 1.7859 604.986 1.22791 604.986C0.669797 604.986 0.216797 604.534 0.216797 603.975C0.216797 603.417 0.669797 602.964 1.22791 602.964Z" fill="#595959"/>
<path d="M1.22791 579.058C1.78589 579.058 2.2378 579.509 2.2378 580.067C2.2378 580.625 1.7859 581.078 1.22791 581.078C0.669797 581.078 0.216797 580.625 0.216797 580.067C0.216797 579.509 0.669797 579.058 1.22791 579.058Z" fill="#595959"/>
<path d="M23.7278 626.871C24.2858 626.871 24.7388 627.324 24.7388 627.881C24.7388 628.441 24.2858 628.894 23.7278 628.894C23.1697 628.894 22.7178 628.441 22.7178 627.881C22.7178 627.324 23.1697 626.871 23.7278 626.871Z" fill="#595959"/>
<path d="M23.7278 602.964C24.2858 602.964 24.7388 603.417 24.7388 603.975C24.7388 604.534 24.2858 604.986 23.7278 604.986C23.1697 604.986 22.7178 604.534 22.7178 603.975C22.7178 603.417 23.1697 602.964 23.7278 602.964Z" fill="#595959"/>
<path d="M23.7278 579.058C24.2858 579.058 24.7388 579.509 24.7388 580.067C24.7388 580.625 24.2858 581.078 23.7278 581.078C23.1697 581.078 22.7178 580.625 22.7178 580.067C22.7178 579.509 23.1697 579.058 23.7278 579.058Z" fill="#595959"/>
<path d="M46.2288 626.871C46.7867 626.871 47.2398 627.324 47.2398 627.881C47.2398 628.441 46.7868 628.894 46.2288 628.894C45.6697 628.894 45.2178 628.441 45.2178 627.881C45.2178 627.324 45.6697 626.871 46.2288 626.871Z" fill="#595959"/>
<path d="M46.2288 602.964C46.7867 602.964 47.2398 603.417 47.2398 603.975C47.2398 604.534 46.7868 604.986 46.2288 604.986C45.6697 604.986 45.2178 604.534 45.2178 603.975C45.2178 603.417 45.6697 602.964 46.2288 602.964Z" fill="#595959"/>
<path d="M46.2288 579.058C46.7867 579.058 47.2398 579.509 47.2398 580.067C47.2398 580.625 46.7868 581.078 46.2288 581.078C45.6697 581.078 45.2178 580.625 45.2178 580.067C45.2178 579.509 45.6697 579.058 46.2288 579.058Z" fill="#595959"/>
<path d="M68.7297 626.871C69.2868 626.871 69.7397 627.324 69.7397 627.881C69.7397 628.441 69.2868 628.894 68.7297 628.894C68.1697 628.894 67.7188 628.441 67.7188 627.881C67.7188 627.324 68.1697 626.871 68.7297 626.871Z" fill="#595959"/>
<path d="M68.7297 602.964C69.2868 602.964 69.7397 603.417 69.7397 603.975C69.7397 604.534 69.2868 604.986 68.7297 604.986C68.1697 604.986 67.7188 604.534 67.7188 603.975C67.7188 603.417 68.1697 602.964 68.7297 602.964Z" fill="#595959"/>
<path d="M68.7297 579.058C69.2868 579.058 69.7397 579.509 69.7397 580.067C69.7397 580.625 69.2868 581.078 68.7297 581.078C68.1697 581.078 67.7188 580.625 67.7188 580.067C67.7188 579.509 68.1697 579.058 68.7297 579.058Z" fill="#595959"/>
<path d="M91.2307 626.871C91.7877 626.871 92.2407 627.324 92.2407 627.881C92.2407 628.441 91.7877 628.894 91.2307 628.894C90.6718 628.894 90.2197 628.441 90.2197 627.881C90.2197 627.324 90.6718 626.871 91.2307 626.871Z" fill="#595959"/>
<path d="M91.2307 602.964C91.7877 602.964 92.2407 603.417 92.2407 603.975C92.2407 604.534 91.7877 604.986 91.2307 604.986C90.6718 604.986 90.2197 604.534 90.2197 603.975C90.2197 603.417 90.6718 602.964 91.2307 602.964Z" fill="#595959"/>
<path d="M91.2307 579.058C91.7877 579.058 92.2407 579.509 92.2407 580.067C92.2407 580.625 91.7877 581.078 91.2307 581.078C90.6718 581.078 90.2197 580.625 90.2197 580.067C90.2197 579.509 90.6718 579.058 91.2307 579.058Z" fill="#595959"/>
<path d="M113.731 626.871C114.289 626.871 114.742 627.324 114.742 627.881C114.742 628.441 114.289 628.894 113.731 628.894C113.173 628.894 112.72 628.441 112.72 627.881C112.72 627.324 113.173 626.871 113.731 626.871Z" fill="#595959"/>
<path d="M113.731 602.964C114.289 602.964 114.742 603.417 114.742 603.975C114.742 604.534 114.289 604.986 113.731 604.986C113.173 604.986 112.72 604.534 112.72 603.975C112.72 603.417 113.173 602.964 113.731 602.964Z" fill="#595959"/>
<path d="M113.731 579.058C114.289 579.058 114.742 579.509 114.742 580.067C114.742 580.625 114.289 581.078 113.731 581.078C113.173 581.078 112.72 580.625 112.72 580.067C112.72 579.509 113.173 579.058 113.731 579.058Z" fill="#595959"/>
<path d="M1.22791 337.481C1.78589 337.481 2.2378 337.935 2.2378 338.491C2.2378 339.052 1.7859 339.503 1.22791 339.503C0.669797 339.503 0.216797 339.052 0.216797 338.491C0.216797 337.935 0.669797 337.481 1.22791 337.481Z" fill="#595959"/>
<path d="M1.22791 313.574C1.78589 313.574 2.2378 314.027 2.2378 314.584C2.2378 315.145 1.7859 315.597 1.22791 315.597C0.669797 315.597 0.216797 315.145 0.216797 314.584C0.216797 314.027 0.669797 313.574 1.22791 313.574Z" fill="#595959"/>
<path d="M1.22791 289.667C1.78589 289.667 2.2378 290.119 2.2378 290.679C2.2378 291.237 1.7859 291.689 1.22791 291.689C0.669797 291.689 0.216797 291.237 0.216797 290.679C0.216797 290.119 0.669797 289.667 1.22791 289.667Z" fill="#595959"/>
<path d="M23.7278 337.481C24.2858 337.481 24.7388 337.935 24.7388 338.491C24.7388 339.052 24.2858 339.503 23.7278 339.503C23.1697 339.503 22.7178 339.052 22.7178 338.491C22.7178 337.935 23.1697 337.481 23.7278 337.481Z" fill="#595959"/>
<path d="M23.7278 313.574C24.2858 313.574 24.7388 314.027 24.7388 314.584C24.7388 315.145 24.2858 315.597 23.7278 315.597C23.1697 315.597 22.7178 315.145 22.7178 314.584C22.7178 314.027 23.1697 313.574 23.7278 313.574Z" fill="#595959"/>
<path d="M23.7278 289.667C24.2858 289.667 24.7388 290.119 24.7388 290.679C24.7388 291.237 24.2858 291.689 23.7278 291.689C23.1697 291.689 22.7178 291.237 22.7178 290.679C22.7178 290.119 23.1697 289.667 23.7278 289.667Z" fill="#595959"/>
<path d="M46.2288 337.481C46.7867 337.481 47.2398 337.935 47.2398 338.491C47.2398 339.052 46.7868 339.503 46.2288 339.503C45.6697 339.503 45.2178 339.052 45.2178 338.491C45.2178 337.935 45.6697 337.481 46.2288 337.481Z" fill="#595959"/>
<path d="M46.2288 313.574C46.7867 313.574 47.2398 314.027 47.2398 314.584C47.2398 315.145 46.7868 315.597 46.2288 315.597C45.6697 315.597 45.2178 315.145 45.2178 314.584C45.2178 314.027 45.6697 313.574 46.2288 313.574Z" fill="#595959"/>
<path d="M46.2288 289.667C46.7867 289.667 47.2398 290.119 47.2398 290.679C47.2398 291.237 46.7868 291.689 46.2288 291.689C45.6697 291.689 45.2178 291.237 45.2178 290.679C45.2178 290.119 45.6697 289.667 46.2288 289.667Z" fill="#595959"/>
<path d="M68.7297 337.481C69.2868 337.481 69.7397 337.935 69.7397 338.491C69.7397 339.052 69.2868 339.503 68.7297 339.503C68.1697 339.503 67.7188 339.052 67.7188 338.491C67.7188 337.935 68.1697 337.481 68.7297 337.481Z" fill="#595959"/>
<path d="M68.7297 313.574C69.2868 313.574 69.7397 314.027 69.7397 314.584C69.7397 315.145 69.2868 315.597 68.7297 315.597C68.1697 315.597 67.7188 315.145 67.7188 314.584C67.7188 314.027 68.1697 313.574 68.7297 313.574Z" fill="#595959"/>
<path d="M68.7297 289.667C69.2868 289.667 69.7397 290.119 69.7397 290.679C69.7397 291.237 69.2868 291.689 68.7297 291.689C68.1697 291.689 67.7188 291.237 67.7188 290.679C67.7188 290.119 68.1697 289.667 68.7297 289.667Z" fill="#595959"/>
<path d="M91.2307 337.481C91.7877 337.481 92.2407 337.935 92.2407 338.491C92.2407 339.052 91.7877 339.503 91.2307 339.503C90.6718 339.503 90.2197 339.052 90.2197 338.491C90.2197 337.935 90.6718 337.481 91.2307 337.481Z" fill="#595959"/>
<path d="M91.2307 313.574C91.7877 313.574 92.2407 314.027 92.2407 314.584C92.2407 315.145 91.7877 315.597 91.2307 315.597C90.6718 315.597 90.2197 315.145 90.2197 314.584C90.2197 314.027 90.6718 313.574 91.2307 313.574Z" fill="#595959"/>
<path d="M91.2307 289.667C91.7877 289.667 92.2407 290.119 92.2407 290.679C92.2407 291.237 91.7877 291.689 91.2307 291.689C90.6718 291.689 90.2197 291.237 90.2197 290.679C90.2197 290.119 90.6718 289.667 91.2307 289.667Z" fill="#595959"/>
<path d="M113.731 337.481C114.289 337.481 114.742 337.935 114.742 338.491C114.742 339.052 114.289 339.503 113.731 339.503C113.173 339.503 112.72 339.052 112.72 338.491C112.72 337.935 113.173 337.481 113.731 337.481Z" fill="#595959"/>
<path d="M113.731 313.574C114.289 313.574 114.742 314.027 114.742 314.584C114.742 315.145 114.289 315.597 113.731 315.597C113.173 315.597 112.72 315.145 112.72 314.584C112.72 314.027 113.173 313.574 113.731 313.574Z" fill="#595959"/>
<path d="M113.731 289.667C114.289 289.667 114.742 290.119 114.742 290.679C114.742 291.237 114.289 291.689 113.731 291.689C113.173 291.689 112.72 291.237 112.72 290.679C112.72 290.119 113.173 289.667 113.731 289.667Z" fill="#595959"/>
<path d="M1.22791 411.383C1.78589 411.383 2.2378 411.836 2.2378 412.394C2.2378 412.953 1.7859 413.405 1.22791 413.405C0.669797 413.405 0.216797 412.953 0.216797 412.394C0.216797 411.836 0.669797 411.383 1.22791 411.383Z" fill="#595959"/>
<path d="M1.22791 387.476C1.78589 387.476 2.2378 387.929 2.2378 388.485C2.2378 389.045 1.7859 389.497 1.22791 389.497C0.669797 389.497 0.216797 389.045 0.216797 388.485C0.216797 387.929 0.669797 387.476 1.22791 387.476Z" fill="#595959"/>
<path d="M1.22791 363.569C1.78589 363.569 2.2378 364.021 2.2378 364.579C2.2378 365.138 1.7859 365.59 1.22791 365.59C0.669797 365.59 0.216797 365.138 0.216797 364.579C0.216797 364.021 0.669797 363.569 1.22791 363.569Z" fill="#595959"/>
<path d="M23.7278 411.383C24.2858 411.383 24.7388 411.836 24.7388 412.394C24.7388 412.953 24.2858 413.405 23.7278 413.405C23.1697 413.405 22.7178 412.953 22.7178 412.394C22.7178 411.836 23.1697 411.383 23.7278 411.383Z" fill="#595959"/>
<path d="M23.7278 387.476C24.2858 387.476 24.7388 387.929 24.7388 388.485C24.7388 389.045 24.2858 389.497 23.7278 389.497C23.1697 389.497 22.7178 389.045 22.7178 388.485C22.7178 387.929 23.1697 387.476 23.7278 387.476Z" fill="#595959"/>
<path d="M23.7278 363.569C24.2858 363.569 24.7388 364.021 24.7388 364.579C24.7388 365.138 24.2858 365.59 23.7278 365.59C23.1697 365.59 22.7178 365.138 22.7178 364.579C22.7178 364.021 23.1697 363.569 23.7278 363.569Z" fill="#595959"/>
<path d="M46.2288 411.383C46.7867 411.383 47.2398 411.836 47.2398 412.394C47.2398 412.953 46.7868 413.405 46.2288 413.405C45.6697 413.405 45.2178 412.953 45.2178 412.394C45.2178 411.836 45.6697 411.383 46.2288 411.383Z" fill="#595959"/>
<path d="M46.2288 387.476C46.7867 387.476 47.2398 387.929 47.2398 388.485C47.2398 389.045 46.7868 389.497 46.2288 389.497C45.6697 389.497 45.2178 389.045 45.2178 388.485C45.2178 387.929 45.6697 387.476 46.2288 387.476Z" fill="#595959"/>
<path d="M46.2288 363.569C46.7867 363.569 47.2398 364.021 47.2398 364.579C47.2398 365.138 46.7868 365.59 46.2288 365.59C45.6697 365.59 45.2178 365.138 45.2178 364.579C45.2178 364.021 45.6697 363.569 46.2288 363.569Z" fill="#595959"/>
<path d="M68.7297 411.383C69.2868 411.383 69.7397 411.836 69.7397 412.394C69.7397 412.953 69.2868 413.405 68.7297 413.405C68.1697 413.405 67.7188 412.953 67.7188 412.394C67.7188 411.836 68.1697 411.383 68.7297 411.383Z" fill="#595959"/>
<path d="M68.7297 387.476C69.2868 387.476 69.7397 387.929 69.7397 388.485C69.7397 389.045 69.2868 389.497 68.7297 389.497C68.1697 389.497 67.7188 389.045 67.7188 388.485C67.7188 387.929 68.1697 387.476 68.7297 387.476Z" fill="#595959"/>
<path d="M68.7297 363.569C69.2868 363.569 69.7397 364.021 69.7397 364.579C69.7397 365.138 69.2868 365.59 68.7297 365.59C68.1697 365.59 67.7188 365.138 67.7188 364.579C67.7188 364.021 68.1697 363.569 68.7297 363.569Z" fill="#595959"/>
<path d="M91.2307 411.383C91.7877 411.383 92.2407 411.836 92.2407 412.394C92.2407 412.953 91.7877 413.405 91.2307 413.405C90.6718 413.405 90.2197 412.953 90.2197 412.394C90.2197 411.836 90.6718 411.383 91.2307 411.383Z" fill="#595959"/>
<path d="M91.2307 387.476C91.7877 387.476 92.2407 387.929 92.2407 388.485C92.2407 389.045 91.7877 389.497 91.2307 389.497C90.6718 389.497 90.2197 389.045 90.2197 388.485C90.2197 387.929 90.6718 387.476 91.2307 387.476Z" fill="#595959"/>
<path d="M91.2307 363.569C91.7877 363.569 92.2407 364.021 92.2407 364.579C92.2407 365.138 91.7877 365.59 91.2307 365.59C90.6718 365.59 90.2197 365.138 90.2197 364.579C90.2197 364.021 90.6718 363.569 91.2307 363.569Z" fill="#595959"/>
<path d="M113.731 411.383C114.289 411.383 114.742 411.836 114.742 412.394C114.742 412.953 114.289 413.405 113.731 413.405C113.173 413.405 112.72 412.953 112.72 412.394C112.72 411.836 113.173 411.383 113.731 411.383Z" fill="#595959"/>
<path d="M113.731 387.476C114.289 387.476 114.742 387.929 114.742 388.485C114.742 389.045 114.289 389.497 113.731 389.497C113.173 389.497 112.72 389.045 112.72 388.485C112.72 387.929 113.173 387.476 113.731 387.476Z" fill="#595959"/>
<path d="M113.731 363.569C114.289 363.569 114.742 364.021 114.742 364.579C114.742 365.138 114.289 365.59 113.731 365.59C113.173 365.59 112.72 365.138 112.72 364.579C112.72 364.021 113.173 363.569 113.731 363.569Z" fill="#595959"/>
<path d="M1.22791 190.128C1.78589 190.128 2.2378 190.581 2.2378 191.139C2.2378 191.698 1.7859 192.149 1.22791 192.149C0.669797 192.149 0.216797 191.698 0.216797 191.139C0.216797 190.581 0.669797 190.128 1.22791 190.128Z" fill="#595959"/>
<path d="M1.22791 166.221C1.78589 166.221 2.2378 166.673 2.2378 167.23C2.2378 167.789 1.7859 168.242 1.22791 168.242C0.669797 168.242 0.216797 167.789 0.216797 167.23C0.216797 166.673 0.669797 166.221 1.22791 166.221Z" fill="#595959"/>
<path d="M1.22791 142.312C1.78589 142.312 2.2378 142.766 2.2378 143.324C2.2378 143.882 1.7859 144.335 1.22791 144.335C0.669797 144.335 0.216797 143.882 0.216797 143.324C0.216797 142.766 0.669797 142.312 1.22791 142.312Z" fill="#595959"/>
<path d="M1.22791 118.407C1.78589 118.407 2.2378 118.859 2.2378 119.418C2.2378 119.977 1.7859 120.429 1.22791 120.429C0.669797 120.429 0.216797 119.977 0.216797 119.418C0.216797 118.859 0.669797 118.407 1.22791 118.407Z" fill="#595959"/>
<path d="M1.22791 97.585C1.78589 97.585 2.2378 98.0381 2.2378 98.5957C2.2378 99.1553 1.7859 99.6064 1.22791 99.6064C0.669797 99.6064 0.216797 99.1553 0.216797 98.5957C0.216797 98.0381 0.669797 97.585 1.22791 97.585Z" fill="#595959"/>
<path d="M1.22791 70.5928C1.78589 70.5928 2.2378 71.0439 2.2378 71.6025C2.2378 72.1621 1.7859 72.6143 1.22791 72.6143C0.669797 72.6143 0.216797 72.1621 0.216797 71.6025C0.216797 71.044 0.669797 70.5928 1.22791 70.5928Z" fill="#595959"/>
<path d="M23.7278 190.128C24.2858 190.128 24.7388 190.581 24.7388 191.139C24.7388 191.698 24.2858 192.149 23.7278 192.149C23.1697 192.149 22.7178 191.698 22.7178 191.139C22.7178 190.581 23.1697 190.128 23.7278 190.128Z" fill="#595959"/>
<path d="M23.7278 166.221C24.2858 166.221 24.7388 166.673 24.7388 167.23C24.7388 167.789 24.2858 168.242 23.7278 168.242C23.1697 168.242 22.7178 167.789 22.7178 167.23C22.7178 166.673 23.1697 166.221 23.7278 166.221Z" fill="#595959"/>
<path d="M23.7278 142.312C24.2858 142.312 24.7388 142.766 24.7388 143.324C24.7388 143.882 24.2858 144.335 23.7278 144.335C23.1697 144.335 22.7178 143.882 22.7178 143.324C22.7178 142.766 23.1697 142.312 23.7278 142.312Z" fill="#595959"/>
<path d="M23.7278 118.407C24.2858 118.407 24.7388 118.859 24.7388 119.418C24.7388 119.977 24.2858 120.429 23.7278 120.429C23.1697 120.429 22.7178 119.977 22.7178 119.418C22.7178 118.859 23.1697 118.407 23.7278 118.407Z" fill="#595959"/>
<path d="M23.7278 97.585C24.2858 97.585 24.7388 98.0381 24.7388 98.5957C24.7388 99.1553 24.2858 99.6064 23.7278 99.6064C23.1697 99.6064 22.7178 99.1553 22.7178 98.5957C22.7178 98.0381 23.1697 97.585 23.7278 97.585Z" fill="#595959"/>
<path d="M23.7278 70.5928C24.2858 70.5928 24.7388 71.0439 24.7388 71.6025C24.7388 72.1621 24.2858 72.6143 23.7278 72.6143C23.1697 72.6143 22.7178 72.1621 22.7178 71.6025C22.7178 71.044 23.1697 70.5928 23.7278 70.5928Z" fill="#595959"/>
<path d="M46.2288 190.128C46.7867 190.128 47.2398 190.581 47.2398 191.139C47.2398 191.698 46.7868 192.149 46.2288 192.149C45.6697 192.149 45.2178 191.698 45.2178 191.139C45.2178 190.581 45.6697 190.128 46.2288 190.128Z" fill="#595959"/>
<path d="M46.2288 166.221C46.7867 166.221 47.2398 166.673 47.2398 167.23C47.2398 167.789 46.7868 168.242 46.2288 168.242C45.6697 168.242 45.2178 167.789 45.2178 167.23C45.2178 166.673 45.6697 166.221 46.2288 166.221Z" fill="#595959"/>
<path d="M46.2288 142.312C46.7867 142.312 47.2398 142.766 47.2398 143.324C47.2398 143.882 46.7868 144.335 46.2288 144.335C45.6697 144.335 45.2178 143.882 45.2178 143.324C45.2178 142.766 45.6697 142.312 46.2288 142.312Z" fill="#595959"/>
<path d="M46.2288 118.407C46.7867 118.407 47.2398 118.859 47.2398 119.418C47.2398 119.977 46.7868 120.429 46.2288 120.429C45.6697 120.429 45.2178 119.977 45.2178 119.418C45.2178 118.859 45.6697 118.407 46.2288 118.407Z" fill="#595959"/>
<path d="M46.2288 97.585C46.7867 97.585 47.2398 98.0381 47.2398 98.5957C47.2398 99.1553 46.7868 99.6064 46.2288 99.6064C45.6697 99.6064 45.2178 99.1553 45.2178 98.5957C45.2178 98.0381 45.6697 97.585 46.2288 97.585Z" fill="#595959"/>
<path d="M46.2288 70.5928C46.7867 70.5928 47.2398 71.0439 47.2398 71.6025C47.2398 72.1621 46.7868 72.6143 46.2288 72.6143C45.6697 72.6143 45.2178 72.1621 45.2178 71.6025C45.2178 71.044 45.6697 70.5928 46.2288 70.5928Z" fill="#595959"/>
<path d="M68.7297 190.128C69.2868 190.128 69.7397 190.581 69.7397 191.139C69.7397 191.698 69.2868 192.149 68.7297 192.149C68.1697 192.149 67.7188 191.698 67.7188 191.139C67.7188 190.581 68.1697 190.128 68.7297 190.128Z" fill="#595959"/>
<path d="M68.7297 166.221C69.2868 166.221 69.7397 166.673 69.7397 167.23C69.7397 167.789 69.2868 168.242 68.7297 168.242C68.1697 168.242 67.7188 167.789 67.7188 167.23C67.7188 166.673 68.1697 166.221 68.7297 166.221Z" fill="#595959"/>
<path d="M68.7297 142.312C69.2868 142.312 69.7397 142.766 69.7397 143.324C69.7397 143.882 69.2868 144.335 68.7297 144.335C68.1697 144.335 67.7188 143.882 67.7188 143.324C67.7188 142.766 68.1697 142.312 68.7297 142.312Z" fill="#595959"/>
<path d="M68.7297 118.407C69.2868 118.407 69.7397 118.859 69.7397 119.418C69.7397 119.977 69.2868 120.429 68.7297 120.429C68.1697 120.429 67.7188 119.977 67.7188 119.418C67.7188 118.859 68.1697 118.407 68.7297 118.407Z" fill="#595959"/>
<path d="M68.7297 97.585C69.2868 97.585 69.7397 98.0381 69.7397 98.5957C69.7397 99.1553 69.2868 99.6064 68.7297 99.6064C68.1697 99.6064 67.7188 99.1553 67.7188 98.5957C67.7188 98.0381 68.1697 97.585 68.7297 97.585Z" fill="#595959"/>
<path d="M68.7297 70.5928C69.2868 70.5928 69.7397 71.0439 69.7397 71.6025C69.7397 72.1621 69.2868 72.6143 68.7297 72.6143C68.1697 72.6143 67.7188 72.1621 67.7188 71.6025C67.7188 71.044 68.1697 70.5928 68.7297 70.5928Z" fill="#595959"/>
<path d="M91.2307 190.128C91.7877 190.128 92.2407 190.581 92.2407 191.139C92.2407 191.698 91.7877 192.149 91.2307 192.149C90.6718 192.149 90.2197 191.698 90.2197 191.139C90.2197 190.581 90.6718 190.128 91.2307 190.128Z" fill="#595959"/>
<path d="M91.2307 166.221C91.7877 166.221 92.2407 166.673 92.2407 167.23C92.2407 167.789 91.7877 168.242 91.2307 168.242C90.6718 168.242 90.2197 167.789 90.2197 167.23C90.2197 166.673 90.6718 166.221 91.2307 166.221Z" fill="#595959"/>
<path d="M91.2307 142.312C91.7877 142.312 92.2407 142.766 92.2407 143.324C92.2407 143.882 91.7877 144.335 91.2307 144.335C90.6718 144.335 90.2197 143.882 90.2197 143.324C90.2197 142.766 90.6718 142.312 91.2307 142.312Z" fill="#595959"/>
<path d="M91.2307 118.407C91.7877 118.407 92.2407 118.859 92.2407 119.418C92.2407 119.977 91.7877 120.429 91.2307 120.429C90.6718 120.429 90.2197 119.977 90.2197 119.418C90.2197 118.859 90.6718 118.407 91.2307 118.407Z" fill="#595959"/>
<path d="M91.2307 94.5C91.7877 94.5 92.2407 94.9531 92.2407 95.5107C92.2407 96.0703 91.7877 96.5215 91.2307 96.5215C90.6718 96.5215 90.2197 96.0703 90.2197 95.5107C90.2197 94.9531 90.6718 94.5 91.2307 94.5Z" fill="#595959"/>
<path d="M91.2307 70.5928C91.7877 70.5928 92.2407 71.0439 92.2407 71.6025C92.2407 72.1621 91.7877 72.6143 91.2307 72.6143C90.6718 72.6143 90.2197 72.1621 90.2197 71.6025C90.2197 71.044 90.6718 70.5928 91.2307 70.5928Z" fill="#595959"/>
<path d="M113.731 190.128C114.289 190.128 114.742 190.581 114.742 191.139C114.742 191.698 114.289 192.149 113.731 192.149C113.173 192.149 112.72 191.698 112.72 191.139C112.72 190.581 113.173 190.128 113.731 190.128Z" fill="#595959"/>
<path d="M113.731 166.221C114.289 166.221 114.742 166.673 114.742 167.23C114.742 167.789 114.289 168.242 113.731 168.242C113.173 168.242 112.72 167.789 112.72 167.23C112.72 166.673 113.173 166.221 113.731 166.221Z" fill="#595959"/>
<path d="M113.731 142.312C114.289 142.312 114.742 142.766 114.742 143.324C114.742 143.882 114.289 144.335 113.731 144.335C113.173 144.335 112.72 143.882 112.72 143.324C112.72 142.766 113.173 142.312 113.731 142.312Z" fill="#595959"/>
<path d="M113.731 118.407C114.289 118.407 114.742 118.859 114.742 119.418C114.742 119.977 114.289 120.429 113.731 120.429C113.173 120.429 112.72 119.977 112.72 119.418C112.72 118.859 113.173 118.407 113.731 118.407Z" fill="#595959"/>
<path d="M113.731 94.5C114.289 94.5 114.742 94.9531 114.742 95.5107C114.742 96.0703 114.289 96.5215 113.731 96.5215C113.173 96.5215 112.72 96.0703 112.72 95.5107C112.72 94.9531 113.173 94.5 113.731 94.5Z" fill="#595959"/>
<path d="M113.731 70.5928C114.289 70.5928 114.742 71.0439 114.742 71.6025C114.742 72.1621 114.289 72.6143 113.731 72.6143C113.173 72.6143 112.72 72.1621 112.72 71.6025C112.72 71.044 113.173 70.5928 113.731 70.5928Z" fill="#595959"/>
<path d="M1.22791 264.029C1.78589 264.029 2.2378 264.482 2.2378 265.039C2.2378 265.6 1.7859 266.05 1.22791 266.05C0.669797 266.05 0.216797 265.6 0.216797 265.039C0.216797 264.482 0.669797 264.029 1.22791 264.029Z" fill="#595959"/>
<path d="M1.22791 240.122C1.78589 240.122 2.2378 240.575 2.2378 241.132C2.2378 241.692 1.7859 242.145 1.22791 242.145C0.669797 242.145 0.216797 241.692 0.216797 241.132C0.216797 240.575 0.669797 240.122 1.22791 240.122Z" fill="#595959"/>
<path d="M1.22791 216.216C1.78589 216.216 2.2378 216.667 2.2378 217.226C2.2378 217.784 1.7859 218.237 1.22791 218.237C0.669797 218.237 0.216797 217.784 0.216797 217.226C0.216797 216.667 0.669797 216.216 1.22791 216.216Z" fill="#595959"/>
<path d="M23.7278 264.029C24.2858 264.029 24.7388 264.482 24.7388 265.039C24.7388 265.6 24.2858 266.05 23.7278 266.05C23.1697 266.05 22.7178 265.6 22.7178 265.039C22.7178 264.482 23.1697 264.029 23.7278 264.029Z" fill="#595959"/>
<path d="M23.7278 240.122C24.2858 240.122 24.7388 240.575 24.7388 241.132C24.7388 241.692 24.2858 242.145 23.7278 242.145C23.1697 242.145 22.7178 241.692 22.7178 241.132C22.7178 240.575 23.1697 240.122 23.7278 240.122Z" fill="#595959"/>
<path d="M23.7278 216.216C24.2858 216.216 24.7388 216.667 24.7388 217.226C24.7388 217.784 24.2858 218.237 23.7278 218.237C23.1697 218.237 22.7178 217.784 22.7178 217.226C22.7178 216.667 23.1697 216.216 23.7278 216.216Z" fill="#595959"/>
<path d="M46.2288 264.029C46.7867 264.029 47.2398 264.482 47.2398 265.039C47.2398 265.6 46.7868 266.05 46.2288 266.05C45.6697 266.05 45.2178 265.6 45.2178 265.039C45.2178 264.482 45.6697 264.029 46.2288 264.029Z" fill="#595959"/>
<path d="M46.2288 240.122C46.7867 240.122 47.2398 240.575 47.2398 241.132C47.2398 241.692 46.7868 242.145 46.2288 242.145C45.6697 242.145 45.2178 241.692 45.2178 241.132C45.2178 240.575 45.6697 240.122 46.2288 240.122Z" fill="#595959"/>
<path d="M46.2288 216.216C46.7867 216.216 47.2398 216.667 47.2398 217.226C47.2398 217.784 46.7868 218.237 46.2288 218.237C45.6697 218.237 45.2178 217.784 45.2178 217.226C45.2178 216.667 45.6697 216.216 46.2288 216.216Z" fill="#595959"/>
<path d="M68.7297 264.029C69.2868 264.029 69.7397 264.482 69.7397 265.039C69.7397 265.6 69.2868 266.05 68.7297 266.05C68.1697 266.05 67.7188 265.6 67.7188 265.039C67.7188 264.482 68.1697 264.029 68.7297 264.029Z" fill="#595959"/>
<path d="M68.7297 240.122C69.2868 240.122 69.7397 240.575 69.7397 241.132C69.7397 241.692 69.2868 242.145 68.7297 242.145C68.1697 242.145 67.7188 241.692 67.7188 241.132C67.7188 240.575 68.1697 240.122 68.7297 240.122Z" fill="#595959"/>
<path d="M68.7297 216.216C69.2868 216.216 69.7397 216.667 69.7397 217.226C69.7397 217.784 69.2868 218.237 68.7297 218.237C68.1697 218.237 67.7188 217.784 67.7188 217.226C67.7188 216.667 68.1697 216.216 68.7297 216.216Z" fill="#595959"/>
<path d="M91.2307 264.029C91.7877 264.029 92.2407 264.482 92.2407 265.039C92.2407 265.6 91.7877 266.05 91.2307 266.05C90.6718 266.05 90.2197 265.6 90.2197 265.039C90.2197 264.482 90.6718 264.029 91.2307 264.029Z" fill="#595959"/>
<path d="M91.2307 240.122C91.7877 240.122 92.2407 240.575 92.2407 241.132C92.2407 241.692 91.7877 242.145 91.2307 242.145C90.6718 242.145 90.2197 241.692 90.2197 241.132C90.2197 240.575 90.6718 240.122 91.2307 240.122Z" fill="#595959"/>
<path d="M91.2307 216.216C91.7877 216.216 92.2407 216.667 92.2407 217.226C92.2407 217.784 91.7877 218.237 91.2307 218.237C90.6718 218.237 90.2197 217.784 90.2197 217.226C90.2197 216.667 90.6718 216.216 91.2307 216.216Z" fill="#595959"/>
<path d="M113.731 264.029C114.289 264.029 114.742 264.482 114.742 265.039C114.742 265.6 114.289 266.05 113.731 266.05C113.173 266.05 112.72 265.6 112.72 265.039C112.72 264.482 113.173 264.029 113.731 264.029Z" fill="#595959"/>
<path d="M113.731 240.122C114.289 240.122 114.742 240.575 114.742 241.132C114.742 241.692 114.289 242.145 113.731 242.145C113.173 242.145 112.72 241.692 112.72 241.132C112.72 240.575 113.173 240.122 113.731 240.122Z" fill="#595959"/>
<path d="M113.731 216.216C114.289 216.216 114.742 216.667 114.742 217.226C114.742 217.784 114.289 218.237 113.731 218.237C113.173 218.237 112.72 217.784 112.72 217.226C112.72 216.667 113.173 216.216 113.731 216.216Z" fill="#595959"/>
<path d="M1.22791 48.54C1.78589 48.54 2.2378 48.9932 2.2378 49.5498C2.2378 50.1104 1.7859 50.5615 1.22791 50.5615C0.669797 50.5615 0.216797 50.1104 0.216797 49.5498C0.216797 48.9932 0.669797 48.54 1.22791 48.54Z" fill="#595959"/>
<path d="M1.22791 24.6328C1.78589 24.6328 2.2378 25.085 2.2378 25.6436C2.2378 26.2031 1.7859 26.6553 1.22791 26.6553C0.669797 26.6553 0.216797 26.2031 0.216797 25.6436C0.216797 25.085 0.669797 24.6328 1.22791 24.6328Z" fill="#595959"/>
<path d="M1.22791 0.725586C1.78589 0.725586 2.2378 1.17774 2.2378 1.73536C2.2378 2.29395 1.7859 2.74708 1.22791 2.74708C0.669797 2.74708 0.216797 2.29396 0.216797 1.73536C0.216797 1.17774 0.669797 0.725586 1.22791 0.725586Z" fill="#595959"/>
<path d="M23.7278 48.54C24.2858 48.54 24.7388 48.9932 24.7388 49.5498C24.7388 50.1104 24.2858 50.5615 23.7278 50.5615C23.1697 50.5615 22.7178 50.1104 22.7178 49.5498C22.7178 48.9932 23.1697 48.54 23.7278 48.54Z" fill="#595959"/>
<path d="M23.7278 24.6328C24.2858 24.6328 24.7388 25.085 24.7388 25.6436C24.7388 26.2031 24.2858 26.6553 23.7278 26.6553C23.1697 26.6553 22.7178 26.2031 22.7178 25.6436C22.7178 25.085 23.1697 24.6328 23.7278 24.6328Z" fill="#595959"/>
<path d="M23.7278 0.725586C24.2858 0.725586 24.7388 1.17774 24.7388 1.73536C24.7388 2.29395 24.2858 2.74708 23.7278 2.74708C23.1697 2.74708 22.7178 2.29396 22.7178 1.73536C22.7178 1.17774 23.1697 0.725586 23.7278 0.725586Z" fill="#595959"/>
<path d="M46.2288 48.54C46.7867 48.54 47.2398 48.9932 47.2398 49.5498C47.2398 50.1104 46.7868 50.5615 46.2288 50.5615C45.6697 50.5615 45.2178 50.1104 45.2178 49.5498C45.2178 48.9932 45.6697 48.54 46.2288 48.54Z" fill="#595959"/>
<path d="M46.2288 24.6328C46.7867 24.6328 47.2398 25.085 47.2398 25.6436C47.2398 26.2031 46.7868 26.6553 46.2288 26.6553C45.6697 26.6553 45.2178 26.2031 45.2178 25.6436C45.2178 25.085 45.6697 24.6328 46.2288 24.6328Z" fill="#595959"/>
<path d="M46.2288 0.725586C46.7867 0.725586 47.2398 1.17774 47.2398 1.73536C47.2398 2.29395 46.7868 2.74708 46.2288 2.74708C45.6697 2.74708 45.2178 2.29396 45.2178 1.73536C45.2178 1.17774 45.6697 0.725586 46.2288 0.725586Z" fill="#595959"/>
<path d="M68.7297 48.54C69.2868 48.54 69.7397 48.9932 69.7397 49.5498C69.7397 50.1104 69.2868 50.5615 68.7297 50.5615C68.1697 50.5615 67.7188 50.1104 67.7188 49.5498C67.7188 48.9932 68.1697 48.54 68.7297 48.54Z" fill="#595959"/>
<path d="M68.7297 24.6328C69.2868 24.6328 69.7397 25.085 69.7397 25.6436C69.7397 26.2031 69.2868 26.6553 68.7297 26.6553C68.1697 26.6553 67.7188 26.2031 67.7188 25.6436C67.7188 25.085 68.1697 24.6328 68.7297 24.6328Z" fill="#595959"/>
<path d="M68.7297 0.725586C69.2868 0.725586 69.7397 1.17774 69.7397 1.73536C69.7397 2.29395 69.2868 2.74708 68.7297 2.74708C68.1697 2.74708 67.7188 2.29396 67.7188 1.73536C67.7188 1.17774 68.1697 0.725586 68.7297 0.725586Z" fill="#595959"/>
<path d="M91.2307 48.54C91.7877 48.54 92.2407 48.9932 92.2407 49.5498C92.2407 50.1104 91.7877 50.5615 91.2307 50.5615C90.6718 50.5615 90.2197 50.1104 90.2197 49.5498C90.2197 48.9932 90.6718 48.54 91.2307 48.54Z" fill="#595959"/>
<path d="M91.2307 24.6328C91.7877 24.6328 92.2407 25.085 92.2407 25.6436C92.2407 26.2031 91.7877 26.6553 91.2307 26.6553C90.6718 26.6553 90.2197 26.2031 90.2197 25.6436C90.2197 25.085 90.6718 24.6328 91.2307 24.6328Z" fill="#595959"/>
<path d="M91.2307 0.725586C91.7877 0.725586 92.2407 1.17774 92.2407 1.73536C92.2407 2.29395 91.7877 2.74708 91.2307 2.74708C90.6718 2.74708 90.2197 2.29396 90.2197 1.73536C90.2197 1.17774 90.6718 0.725586 91.2307 0.725586Z" fill="#595959"/>
<path d="M113.731 48.54C114.289 48.54 114.742 48.9932 114.742 49.5498C114.742 50.1104 114.289 50.5615 113.731 50.5615C113.173 50.5615 112.72 50.1104 112.72 49.5498C112.72 48.9932 113.173 48.54 113.731 48.54Z" fill="#595959"/>
<path d="M113.731 24.6328C114.289 24.6328 114.742 25.085 114.742 25.6436C114.742 26.2031 114.289 26.6553 113.731 26.6553C113.173 26.6553 112.72 26.2031 112.72 25.6436C112.72 25.085 113.173 24.6328 113.731 24.6328Z" fill="#595959"/>
<path d="M113.731 0.725586C114.289 0.725586 114.742 1.17774 114.742 1.73536C114.742 2.29395 114.289 2.74708 113.731 2.74708C113.173 2.74708 112.72 2.29396 112.72 1.73536C112.72 1.17774 113.173 0.725586 113.731 0.725586Z" fill="#595959"/>
</svg>
