<svg xmlns="http://www.w3.org/2000/svg" fill="none" viewBox="0 0 18 19" height="19" width="18">
<path fill="#754ABC" d="M2.67601 1.56348C2.68397 1.56348 2.69195 1.56348 2.69993 1.56348L15.3239 1.56348C15.5131 1.56346 15.6975 1.56343 15.8536 1.57619C16.025 1.5902 16.2273 1.62325 16.4309 1.72697C16.7132 1.87078 16.9426 2.10025 17.0864 2.38249C17.1902 2.58606 17.2232 2.78836 17.2372 2.95981C17.25 3.11592 17.25 3.30026 17.2499 3.48954L17.2499 4.01553C17.2499 4.02921 17.25 4.04327 17.25 4.05767C17.2505 4.21391 17.251 4.4106 17.2007 4.6023C17.157 4.76842 17.0851 4.9258 16.9882 5.06759C16.8763 5.23121 16.7273 5.3596 16.609 5.46157C16.598 5.47098 16.5874 5.48016 16.577 5.48912L11.7802 9.64637C11.6987 9.71704 11.6579 9.75268 11.6294 9.7799L11.6272 9.78201L11.6271 9.78506C11.6251 9.82437 11.6249 9.87853 11.6249 9.98643V13.9073C11.6249 13.9155 11.625 13.925 11.6251 13.9358C11.6262 14.0389 11.6285 14.253 11.554 14.4528C11.4913 14.6209 11.3893 14.7716 11.2565 14.8922C11.0986 15.0357 10.899 15.113 10.8029 15.1503C10.7928 15.1542 10.7839 15.1577 10.7763 15.1607L8.20535 16.1891C8.0862 16.2368 7.95447 16.2895 7.83828 16.3242C7.71327 16.3615 7.50791 16.4103 7.27104 16.3611C6.98078 16.3007 6.72605 16.1283 6.56225 15.8812C6.42858 15.6795 6.39759 15.4708 6.3858 15.3408C6.37484 15.2201 6.37489 15.0781 6.37492 14.9498L6.37493 9.98643C6.37493 9.87853 6.37472 9.82437 6.37277 9.78506L6.37261 9.78201L6.37041 9.7799C6.34198 9.75268 6.30119 9.71704 6.21965 9.64637L1.42281 5.48912C1.41247 5.48016 1.40182 5.47098 1.39091 5.46158C1.27254 5.3596 1.12353 5.23121 1.01167 5.06759C0.914725 4.9258 0.842858 4.76842 0.799197 4.6023C0.748815 4.4106 0.749389 4.21391 0.749845 4.05767C0.749887 4.04327 0.749928 4.02921 0.749928 4.01553V3.51348C0.749928 3.5055 0.749927 3.49752 0.749926 3.48956C0.749904 3.30027 0.749882 3.11593 0.762637 2.95981C0.776645 2.78836 0.809696 2.58606 0.913419 2.38249C1.05723 2.10025 1.2867 1.87078 1.56894 1.72697C1.77251 1.62325 1.97481 1.5902 2.14626 1.57619C2.30237 1.56343 2.48672 1.56346 2.67601 1.56348Z" clip-rule="evenodd" fill-rule="evenodd"></path>
</svg>
