<svg xmlns="http://www.w3.org/2000/svg" fill="none" viewBox="0 0 18 19" height="19" width="18">
<path fill="#754ABC" d="M13.3789 1.56348H4.62109C4.22574 1.56346 3.88465 1.56345 3.60373 1.58641C3.30722 1.61063 3.01231 1.66412 2.72852 1.80871C2.30516 2.02443 1.96095 2.36864 1.74524 2.792C1.60064 3.07578 1.54715 3.3707 1.52293 3.66721C1.49998 3.94813 1.49999 4.28919 1.5 4.68454V13.4424C1.49999 13.8377 1.49998 14.1788 1.52293 14.4597C1.54715 14.7563 1.60064 15.0512 1.74524 15.335C1.96095 15.7583 2.30516 16.1025 2.72852 16.3182C3.01231 16.4628 3.30722 16.5163 3.60373 16.5406C3.88466 16.5635 4.22572 16.5635 4.62108 16.5635H13.3789C13.7743 16.5635 14.1153 16.5635 14.3963 16.5406C14.6928 16.5163 14.9877 16.4628 15.2715 16.3182C15.6948 16.1025 16.0391 15.7583 16.2548 15.335C16.3994 15.0512 16.4528 14.7563 16.4771 14.4597C16.5 14.1788 16.5 13.8378 16.5 13.4424V4.68455C16.5 4.2892 16.5 3.94813 16.4771 3.66721C16.4528 3.3707 16.3994 3.07578 16.2548 2.792C16.0391 2.36864 15.6948 2.02443 15.2715 1.80871C14.9877 1.66412 14.6928 1.61063 14.3963 1.58641C14.1154 1.56345 13.7743 1.56346 13.3789 1.56348ZM7.19981 6.15054C7.125 6.25046 7.125 6.42944 7.125 6.78741V11.3394C7.125 11.6974 7.125 11.8764 7.19981 11.9763C7.265 12.0633 7.36479 12.1178 7.47328 12.1256C7.59779 12.1345 7.74834 12.0377 8.04945 11.8441L11.5899 9.56811C11.8512 9.40014 11.9818 9.31616 12.027 9.20936C12.0664 9.11605 12.0664 9.01076 12.027 8.91745C11.9818 8.81066 11.8512 8.72667 11.5899 8.5587L8.04946 6.2827C7.74834 6.08913 7.59779 5.99234 7.47328 6.00123C7.36479 6.00898 7.265 6.06346 7.19981 6.15054Z" clip-rule="evenodd" fill-rule="evenodd"></path>
</svg>
