<svg xmlns="http://www.w3.org/2000/svg" fill="none" viewBox="0 0 18 19" height="19" width="18">
<path fill="#754ABC" d="M6.75 0.813477C7.16421 0.813477 7.5 1.14926 7.5 1.56348V2.68848C7.5 3.10269 7.16421 3.43848 6.75 3.43848C6.33579 3.43848 6 3.10269 6 2.68848V1.56348C6 1.14926 6.33579 0.813477 6.75 0.813477Z"></path>
<path fill="#754ABC" d="M2.46967 2.53315C2.76256 2.24025 3.23744 2.24025 3.53033 2.53315L4.32583 3.32864C4.61872 3.62153 4.61872 4.09641 4.32583 4.3893C4.03293 4.68219 3.55806 4.68219 3.26516 4.3893L2.46967 3.59381C2.17678 3.30091 2.17678 2.82604 2.46967 2.53315Z"></path>
<path fill="#754ABC" d="M4.32583 10.3438C4.61872 10.0509 4.61872 9.57604 4.32583 9.28315C4.03293 8.99025 3.55806 8.99025 3.26516 9.28315L2.46967 10.0786C2.17678 10.3715 2.17678 10.8464 2.46967 11.1393C2.76256 11.4322 3.23744 11.4322 3.53033 11.1393L4.32583 10.3438Z"></path>
<path fill="#754ABC" d="M11.0758 2.53315C11.3687 2.82604 11.3687 3.30091 11.0758 3.59381L10.2803 4.3893C9.98744 4.68219 9.51256 4.68219 9.21967 4.3893C8.92678 4.09641 8.92678 3.62153 9.21967 3.32864L10.0152 2.53315C10.3081 2.24025 10.7829 2.24025 11.0758 2.53315Z"></path>
<path fill="#754ABC" d="M1.5 6.06348C1.08579 6.06348 0.75 6.39926 0.75 6.81348C0.75 7.22769 1.08579 7.56348 1.5 7.56348H2.625C3.03921 7.56348 3.375 7.22769 3.375 6.81348C3.375 6.39926 3.03921 6.06348 2.625 6.06348H1.5Z"></path>
<path fill="#754ABC" d="M7.2803 5.67308C7.1261 5.62554 6.9652 5.57594 6.8281 5.54707C6.69179 5.51838 6.44411 5.4773 6.1795 5.57441C5.86927 5.68825 5.62478 5.93274 5.51093 6.24297C5.41383 6.50758 5.4549 6.75527 5.4836 6.89157C5.51246 7.02867 5.56206 7.18957 5.6096 7.34377L8.21929 15.8158C8.27838 16.0078 8.33661 16.1969 8.39711 16.3452C8.45136 16.4781 8.56945 16.7482 8.83994 16.9205C9.14266 17.1134 9.51925 17.1503 9.85362 17.0198C10.1524 16.9031 10.3206 16.6611 10.3996 16.5412C10.4877 16.4074 10.5815 16.2332 10.6767 16.0563L12.5374 12.6009L15.9928 10.7402C16.1697 10.645 16.3439 10.5512 16.4777 10.4631C16.5976 10.3841 16.8396 10.2159 16.9563 9.91713C17.0868 9.58276 17.0499 9.20617 16.857 8.90345C16.6847 8.63295 16.4146 8.51487 16.2817 8.46061C16.1334 8.40011 15.9443 8.34188 15.7523 8.28279L7.2803 5.67308Z"></path>
</svg>
