<svg xmlns="http://www.w3.org/2000/svg" fill="none" viewBox="0 0 47 33" height="33" width="47">
<path fill="#754ABC" d="M4.6875 0.201212C3.97006 -0.213001 3.05268 0.0328115 2.63846 0.75025C2.22425 1.46769 2.47006 2.38507 3.1875 2.79929L7.40938 5.23679C8.12682 5.651 9.0442 5.40519 9.45841 4.68775C9.87263 3.97031 9.62682 3.05293 8.90938 2.63871L4.6875 0.201212ZM1.4988 11.5579C0.670372 11.5585 -0.000662389 12.2306 4.90695e-07 13.0591C0.000665218 13.8875 0.672776 14.5585 1.5012 14.5579L6.3762 14.554C7.20463 14.5533 7.87566 13.8812 7.875 13.0528C7.87434 12.2243 7.20223 11.5533 6.3738 11.554L1.4988 11.5579ZM44.424 0.75025C44.0098 0.0328115 43.0924 -0.213001 42.375 0.201212L38.1531 2.63871C37.4357 3.05293 37.1899 3.97031 37.6041 4.68775C38.0183 5.40519 38.9357 5.651 39.6531 5.23679L43.875 2.79929C44.5924 2.38507 44.8383 1.46769 44.424 0.75025ZM11.9954 7.75896C12.2112 5.72458 13.9273 4.18091 15.9731 4.18091H30.8472C32.893 4.18091 34.6091 5.72458 34.8249 7.75896L36.4453 23.0344H17.64L18.9682 10.5436C19.0557 9.71984 18.459 8.98102 17.6352 8.89342C16.8114 8.80583 16.0726 9.40263 15.985 10.2264L14.6231 23.0344H10.375L11.9954 7.75896ZM38.9453 13.0591C38.9446 12.2306 39.6157 11.5585 40.4441 11.5579L45.3191 11.554C46.1475 11.5533 46.8196 12.2243 46.8203 13.0528C46.821 13.8812 46.1499 14.5533 45.3215 14.554L40.4465 14.5579C39.6181 14.5585 38.946 13.8875 38.9453 13.0591ZM9.00781 25.3049C7.90324 25.3049 7.00781 26.2004 7.00781 27.3049V30.3733C7.00781 31.4779 7.90324 32.3733 9.00781 32.3733H37.8125C38.9171 32.3733 39.8125 31.4779 39.8125 30.3733V27.3049C39.8125 26.2004 38.9171 25.3049 37.8125 25.3049H9.00781Z" clip-rule="evenodd" fill-rule="evenodd"></path>
</svg>
