<svg viewBox="0 0 81.97 40.31" xmlns="http://www.w3.org/2000/svg"><defs><style>.cls-1{fill:#fff;}</style></defs><g id="Layer_2"><g id="Layer_1-2"><path d="M0,38V35.63l.53-.24c1.31-.62,2.69-2,4.55-4.58l.33-.46H7c1.46,0,1.56,0,1.53.12a8.39,8.39,0,0,0-.25,3.08,2.58,2.58,0,0,0,1.33,2,2.2,2.2,0,0,0,1.14.24,3,3,0,0,0,1.08-.09,3.36,3.36,0,0,0,1.4-.77c.21-.22.25-.29.18-.37s-.14,0-.51.23a2.14,2.14,0,0,1-1.58.53,2,2,0,0,1-1.83-1.85,8.75,8.75,0,0,1,.25-3c0-.1.15-.12,1.21-.12h1.17l-.55,1.07c-.49.95-.55,1.11-.55,1.44,0,.69.43,1,1.31,1a1.88,1.88,0,0,0,.94-.21,5.32,5.32,0,0,0,2.18-2.43c.13-.27.26-.49.26-.49l.34.1.31.11-.1.23a1.81,1.81,0,0,0,.7,2.5,1.62,1.62,0,0,0,.95.18A2.82,2.82,0,0,0,20,33c.27-.26.31-.28.27-.14a4.25,4.25,0,0,1-.21.49c-.08.17-.16.33-.16.35a1.32,1.32,0,0,0,.49,0l.48,0,.81-1.58a9.87,9.87,0,0,1,1.63-2.65,2.32,2.32,0,0,1,1.13-.64.63.63,0,0,1,.3.1c.27.19.17.57-.55,2s-.89,1.93-.82,2.3c.1.55.66.79,1.34.6a1.59,1.59,0,0,0,.74-.49,2.25,2.25,0,0,0,.37-.44.06.06,0,0,1,.06-.06h0s.08.13.1.29a.89.89,0,0,0,.72.73,1.84,1.84,0,0,0,1.78-.69c.36-.39.37-.39.37-.21,0,.54.5.93,1.18.92a2,2,0,0,0,1.37-.61,2,2,0,0,1,.37-.29l.13.21a1.66,1.66,0,0,0,1,.64,2.72,2.72,0,0,0,2.6-.89c.56-.56,1-1.29.89-1.38s-.16-.08-.49.39a2.9,2.9,0,0,1-2.2,1.52c-1,0-1.39-.89-.91-1.95l.18-.41.52,0a4,4,0,0,0,2.92-1.38c.37-.58.2-1.15-.38-1.26a3.88,3.88,0,0,0-3.11,1.25,3.66,3.66,0,0,0-1.27,2.48c0,.57-.1.7-.72,1.07-.43.26-.85.31-1,.13s-.15-.52,1-2.68l1-2.08H30.76l-.85,1.67c-.47.92-1,1.82-1.08,2-.66,1-1.56,1.48-1.89,1-.15-.25-.08-.44,1.06-2.68l1-2H27.88L27,30.34a9.36,9.36,0,0,1-1.75,2.79c-.45.41-.79.47-.95.17s-.05-.36.75-2a5.57,5.57,0,0,0,.78-1.89.87.87,0,0,0-.11-.62,1,1,0,0,0-1-.41,2.22,2.22,0,0,0-1.34.61l-.32.27.11-.26c.06-.15.13-.3.15-.35s-.08-.08-.45-.06l-.49,0-.79,1.52c-.43.83-.89,1.67-1,1.85a4.27,4.27,0,0,1-1.43,1.24A1.44,1.44,0,0,1,17.15,33a2.08,2.08,0,0,1,.07-1.52l.15-.34.52-.05c1.46-.12,2.74-.82,3.07-1.67.12-.3.12-.34,0-.56-.28-.59-1.39-.58-2.56,0a6.29,6.29,0,0,0-1.72,1.55c-.1.15-.2.28-.24.28a1.74,1.74,0,0,1-.35-.12c-.27-.1-.29-.12-.26-.28s.06-.39.08-.65c.07-.74-.14-1.24-.52-1.24-.57,0-.69,1.19-.19,1.89l.21.27-.2.44a4.67,4.67,0,0,1-2.39,2.47.77.77,0,0,1-.72-.23c-.15-.29,0-.55,1-2.59l1-2H13l-.35.71-.36.7H9.89l0-.14c0-.09.15-.39.27-.68a10.82,10.82,0,0,1,3.16-4c.52-.41.64-.48.64-.33a3.84,3.84,0,0,0,.24.56,4,4,0,0,0,2.53,1.95,6.73,6.73,0,0,0,2.57,0,6.87,6.87,0,0,0,3.35-2.05,18.13,18.13,0,0,0,3-4.38l.25-.48h2L27.1,22c-.41.82-.83,1.67-.91,1.89-.24.65-.17,1,.26,1.31a.79.79,0,0,0,.64.13,2.13,2.13,0,0,0,1.37-.68l.37-.35-.23.41a5,5,0,0,1-2,2.3,1.94,1.94,0,0,1-1,.18c-.47,0-.64,0-.67.1s.11.2.58.25a3.71,3.71,0,0,0,1.77-.32,4.24,4.24,0,0,0,1.11-.89c.82-.84,1.13-1.33,2.5-4l1-1.94h.76c.5,0,.75,0,.75.08s-.38.8-.83,1.7c-1,1.94-1.1,2.31-.8,2.78a1.2,1.2,0,0,0,1,.33,2.18,2.18,0,0,0,1.33-.74l.45-.41-.25.46c-.13.24-.25.47-.25.48a2,2,0,0,0,.5,0h.51l.88-1.74c.93-1.82,1.39-2.52,1.86-2.85a.79.79,0,0,1,1-.08c.25.23.15.59-.58,2-.62,1.22-.67,1.34-.69,1.75,0,.71.23,1,.89,1.08a2.07,2.07,0,0,0,1.84-1l.14-.2V40.31H0ZM41.59,20.16V0H82V40.31H41.59ZM52.86,35.3a7.13,7.13,0,0,0,1-.38A3.42,3.42,0,0,0,55,34a5.14,5.14,0,0,0,1.45-2.9,9.48,9.48,0,0,0,0-2.86,5,5,0,0,0-3.31-4,3.76,3.76,0,0,0-1.54-.18,3.78,3.78,0,0,0-1.55.18,4.86,4.86,0,0,0-1.75,1l-.37.34V22h8.27V20.8H46.64v7.87H48l.08-.36a5.92,5.92,0,0,1,.34-.91,3.59,3.59,0,0,1,4.42-1.89,3.82,3.82,0,0,1,1.38.84,5.7,5.7,0,0,1,.55,5.91,4.19,4.19,0,0,1-1.47,1.54,4,4,0,0,1-2.52.31,3.85,3.85,0,0,1-2.63-2.61L48,31.13l-.65,0a1.58,1.58,0,0,0-.64,0,5.61,5.61,0,0,0,.17.66A5.23,5.23,0,0,0,48.09,34a4.62,4.62,0,0,0,2.55,1.38,6.13,6.13,0,0,0,2.22-.07Zm9.8-6.63V22h4V20.8H57.34V22h4V35.33h1.34ZM68.91,32V28.67h6.73v6.66h1.28V20.8H75.64v6.66H68.91V20.8H67.63V35.33h1.28ZM52.66,19.55a4.77,4.77,0,0,0,3-2.38,8.24,8.24,0,0,0,.49-1.28l.18-.65V12.38A17.83,17.83,0,0,0,56.18,9a4.82,4.82,0,0,0-4.56-4.07,4.67,4.67,0,0,0-2.49.5,3.6,3.6,0,0,0-1.23.89A3.72,3.72,0,0,0,47,7.54a7.71,7.71,0,0,0-.46,1.21c-.15.56-.16.65-.16,3.56,0,3.44,0,3.54.62,4.78a4.8,4.8,0,0,0,2.59,2.33A5.75,5.75,0,0,0,52.66,19.55Zm6-3.3V12.92h8V11.71h-8V6.26h8V5.05H57.34V19.58h1.28Zm10.29,0V12.92h8V11.71h-8V6.26h8V5.05H67.64V19.58h1.27Z" class="cls-1"></path><path d="M50.45,18.37A3.75,3.75,0,0,1,48,16.08c-.33-.85-.36-1.2-.33-4.07,0-2.52,0-2.64.18-3.09a3.58,3.58,0,0,1,3.48-2.74,3.46,3.46,0,0,1,3.6,3.07A13.85,13.85,0,0,1,55,12.52c0,2.82,0,2.92-.46,3.81a3.54,3.54,0,0,1-2.28,2,5,5,0,0,1-1.85,0ZM0,31.13V27.05H.39a3,3,0,0,1,1.45.37,2.37,2.37,0,0,1,.54,3.21A5.42,5.42,0,0,1,1.13,32c-.2.12-.22.2-.13.35s.14,0,.45-.19c1.67-1.29,2.15-3.41,1.05-4.65a3,3,0,0,0-2.14-.8H0v-4c0-3.39,0-4,.09-4a7.23,7.23,0,0,0,1.65.38C4.29,19.38,6.79,18,9,15a21.83,21.83,0,0,0,1.79-3c1.08-2,1-1.85,1.49-2.06a16.35,16.35,0,0,0,2.66-1.38A7.58,7.58,0,0,0,17.08,6.4c.29-.59.3-1.08,0-1.35s-1.11-.41-2,0A8.63,8.63,0,0,0,12.3,7.56a27.19,27.19,0,0,0-1.63,2.37c-.11.19-.19.23-.67.33a12,12,0,0,1-1.49.15l-1,0-.08-.29A3,3,0,0,0,4.53,8.1c-.52,0-.55,0-.59-.22a2.23,2.23,0,0,1,.23-1.15A2.82,2.82,0,0,1,5.85,5.47a7.14,7.14,0,0,1,1.2-.13,4.42,4.42,0,0,1,3,.8c.39.25.44.27.53.16s.08-.12-.18-.31a6.67,6.67,0,0,0-1.65-.81,6.39,6.39,0,0,0-2.59-.11C4.61,5.4,3.63,6.38,3.62,7.68v.45l-.42.08A6.78,6.78,0,0,0,.49,9.46L0,9.82V0H40.38V23.47L40,24c-.41.58-.82.89-1.16.89s-.45-.17-.41-.5A10.87,10.87,0,0,1,39.09,23c.33-.65.65-1.34.72-1.54a1.24,1.24,0,0,0-.06-1.05,1.46,1.46,0,0,0-2-.12l-.31.23,1-2,1-2-.59,0-.59,0L36.65,19.7c-.89,1.75-1.77,3.41-2,3.69a3.72,3.72,0,0,1-1.45,1.38c-.23.06-.3.05-.44,0s-.17-.14-.14-.37a20.31,20.31,0,0,1,1-2.11l1-1.86H35c.36,0,.44,0,.51-.13s.05-.14-.37-.14h-.45l.34-.64.35-.64-.59,0-.58,0-.33.62-.34.62H32.8a3.82,3.82,0,0,1-.76,0,20.93,20.93,0,0,1,1.19-2.2c.6-.91,1.34-1.45,1.75-1.26.15.07.17.1.12.33-.13.62,0,.82.44.82a.48.48,0,0,0,.43-.21c.31-.37.17-.83-.32-1.08a1.54,1.54,0,0,0-.89-.16,1.93,1.93,0,0,0-1.07.22A6.29,6.29,0,0,0,31.2,19.4l-.39.72h-.43c-.36,0-.44,0-.5.14s-.05.13.37.13h.45L30,21.79a12,12,0,0,1-1.17,2c-.49.62-1.08,1.08-1.37,1.08a.34.34,0,0,1-.37-.44c0-.11.49-1.1,1.05-2.2s1-2,1-2a15.06,15.06,0,0,0-1.51,0,15.18,15.18,0,0,1-1.52,0,7.57,7.57,0,0,1,.45-.86,16,16,0,0,1,1.56-2.39l.26-.3.36.15a5,5,0,0,0,1.82.35,2.07,2.07,0,0,0,1.55-.47.7.7,0,0,0,.31-.58.55.55,0,0,0-.15-.55A1.76,1.76,0,0,0,30.89,15a5.1,5.1,0,0,0-2.25.59l-.66.33-1.25-.63-1.25-.63V14a3.72,3.72,0,0,0-.22-1.33c-.12-.36-.24-.8-.28-1s-.06-.31.2-.47c.48-.31.59-.62.3-.82s-.74.1-.89.65a20.71,20.71,0,0,1-2.08,2.81c-.2.24-.27.28-.48.28a6.74,6.74,0,0,0-1.17.17c-.18,0-.19,0-.26-.26s-.38-.65-.59-.65,0-.1.39-.19c1.25-.3,2.09-1,2.11-1.82,0-.58-.27-.88-.88-.88a1.84,1.84,0,0,0-1.23.58c-.2.18-.34.29-.33.26s1.64-3.25,1.86-3.65l.24-.43-.59,0L21,7.3l-1.62,3.17c-.89,1.75-1.74,3.35-1.88,3.58-.56.91-1.25,1.56-1.64,1.56a.49.49,0,0,1-.3-.14.34.34,0,0,1-.09-.38,24.34,24.34,0,0,1,1.08-2.28c.57-1.11,1-2.06,1-2.1s-.15-.08-.52-.06l-.53,0-.2.37-.2.37,0-.25c-.08-.49-.45-.7-1.2-.65a2.94,2.94,0,0,0-2,1.13,5,5,0,0,0-1.38,2.12c-.5,1.48,0,2.45,1.19,2.37a2.08,2.08,0,0,0,1.44-.73l.3-.32v.32a.57.57,0,0,0,.2.52.79.79,0,0,0,.6.22,2,2,0,0,0,1.6-.74l.44-.43-.24.5-.25.49.48,0,.5,0,.64-1.26c.61-1.19.65-1.26.81-1.22.4.1.57.38.5.9s0,.39-.39.59a4.06,4.06,0,0,0-1.66,2,3.9,3.9,0,0,0,0,2.27,2.44,2.44,0,0,0,1.21,1.28,3.51,3.51,0,0,0,2.9-.11,4.46,4.46,0,0,0,1.8-1.87c.15-.31.15-.32,0-.38s-.16,0-.38.36a3.47,3.47,0,0,1-3.1,1.92,2.09,2.09,0,0,1-2.21-1.55,3.23,3.23,0,0,1,1.28-3.41l.4-.3.05.32c.08.61.61.86,1.23.61a4.51,4.51,0,0,0,1.26-1.17l.33-.42h.45a4.3,4.3,0,0,1,1.37.2c.09.07-.32.84-.54,1-.45.37-1,.11-.72-.32a.5.5,0,0,0,0-.56.5.5,0,0,0-.52,0,.77.77,0,0,0-.24.69c.18.57,1,.82,1.85.55a1.61,1.61,0,0,0,.74-.48,2.37,2.37,0,0,0,.42-.49c0-.12.47.06,1.58.66l.81.45-.45.42a10.31,10.31,0,0,0-1.83,2.57l-.54.95H24c-.84,0-.91,0-.91.28a2.72,2.72,0,0,0,.78.06h.77l-.17.35a20.51,20.51,0,0,1-3.06,4.63,4.83,4.83,0,0,1-2.91,1.61,3.74,3.74,0,0,1-3.64-1.28,2.67,2.67,0,0,1-.56-1.24,3.33,3.33,0,0,1,.61-.4c.57-.32.63-.39.52-.57s-.14-.08-.64,0l-.58.1v-.21A3.09,3.09,0,0,1,15.87,21a5,5,0,0,1,1.61-.52c.1,0,.15,0,.15-.14s-.21-.17-.9,0a4,4,0,0,0-2.46,1.76,3.17,3.17,0,0,0-.41,1.37v.26l-.82,0a9.76,9.76,0,0,1-3.38-.83C9,22.6,8.29,22.34,8,22.27a5.88,5.88,0,0,0-2.29,0,3.06,3.06,0,0,0-2.47,3.53,2.56,2.56,0,0,0,.79,1.43,3.09,3.09,0,0,0,1.21.69c.16-.1,0-.28-.33-.47a3.3,3.3,0,0,1-.74-.55,2.22,2.22,0,0,1-.65-1.71,1.63,1.63,0,0,1,.22-1,3.09,3.09,0,0,1,2.57-1.67,4.84,4.84,0,0,1,2.39.37,20.94,20.94,0,0,0,3.4,1l.76.13-.57.18a13.48,13.48,0,0,0-6.59,5.21L5.28,30H4.52c-.65,0-.78,0-.86.12a.46.46,0,0,0-.09.17,2.37,2.37,0,0,0,.7.05,3.85,3.85,0,0,1,.71,0c0,.06-1,1.34-1.51,2a14.24,14.24,0,0,1-2.22,2.17,5.38,5.38,0,0,1-1.18.63S0,33.88,0,31.13ZM29.47,19.25a.93.93,0,0,0,.48-.7c0-.16-.26-.43-.46-.48a.94.94,0,0,0-.87.36C28.19,19.07,28.75,19.62,29.47,19.25Z" class="cls-1"></path><path d="M17.73,30.58c.7-1.08,1.67-1.91,2.21-1.91a.47.47,0,0,1,.45.42,1.34,1.34,0,0,1-.14.44A2.93,2.93,0,0,1,18,30.74l-.43,0,.12-.2Zm15.56.09a5.68,5.68,0,0,1,1.8-1.87c.68-.31,1.07,0,.79.63a2.54,2.54,0,0,1-1.74,1.22c-.48.13-.92.14-.85,0Zm-27-1.44a13,13,0,0,1,5.38-4.45A13.74,13.74,0,0,1,13.85,24s.08,0-.46.34a11,11,0,0,0-2.19,1.75A10,10,0,0,0,8.84,29.5L8.65,30h-3l.6-.79ZM1.45,18.74a5.47,5.47,0,0,1-1.16-.31L0,18.31v-8l.47-.37A6.74,6.74,0,0,1,3.41,8.51l.33,0,.13.27a4.28,4.28,0,0,0,3,1.9c.53.1.56.14.5.89A5.22,5.22,0,0,1,5.63,14.7a8.68,8.68,0,0,1-1.94,1.42c-.28.13-.28.15-.2.29s.16.05.55-.15a7.34,7.34,0,0,0,3.29-3.39,4.67,4.67,0,0,0,.33-1.71l0-.39H8.2A12.47,12.47,0,0,0,10,10.59l.3,0-.14.23c-.08.12-.44.78-.79,1.47a16.64,16.64,0,0,1-3.1,4.48,6.15,6.15,0,0,1-3.18,1.95A6.3,6.3,0,0,1,1.45,18.74ZM29.5,16.56c-.47-.13-.76-.25-.76-.31a6.26,6.26,0,0,1,1.3-.7,2.29,2.29,0,0,1,2,0,.6.6,0,0,1,0,.66,1.28,1.28,0,0,1-.44.3,3.85,3.85,0,0,1-2.06,0Zm-16.88-.89c-.24-.13-.3-.27-.3-.66,0-1.48,1.9-4.17,2.94-4.18.35,0,.56.25.56.66a6.73,6.73,0,0,1-2.49,4.12A.71.71,0,0,1,12.62,15.67Zm8-.35a1,1,0,0,1,0-.4c0-.21.06-.23.37-.31l.72-.12.37,0-.15.21c-.14.18-.29.35-.45.52s-.35.3-.54.3-.24,0-.3-.16Zm3.23-1.09a6.31,6.31,0,0,0-.76-.1c-.18,0-.31,0-.3-.06s.43-.59.93-1.24l.91-1.17,0,.24c.16.67-.08,2.45-.31,2.43l-.52-.1Zm-4.64-1.15a5.84,5.84,0,0,1,.31-.52c.57-.89,1.17-1.39,1.67-1.39.3,0,.44.15.44.45,0,.59-.59,1.11-1.53,1.33a2.85,2.85,0,0,1-.89.13Z" class="cls-1"></path><path d="M6.39,10.19A3.74,3.74,0,0,1,4.31,8.84a1.77,1.77,0,0,1-.2-.37c0-.16,1.28,0,1.78.28a2.64,2.64,0,0,1,1.28,1.47c0,.19,0,.19-.78,0Zm5.72-.59a24.26,24.26,0,0,1,1.51-2.3,5.69,5.69,0,0,1,2.46-2.19c.8-.21,1.13.35.7,1.22a6.86,6.86,0,0,1-2,1.94A10.91,10.91,0,0,1,12.11,9.6Z" class="cls-1"></path></g></g></svg>