<svg xmlns="http://www.w3.org/2000/svg" fill="none" viewBox="0 0 18 19" height="19" width="18">
<path fill="#754ABC" d="M6.39196 0.813437L6.35368 0.813368C6.21124 0.812987 6.03189 0.812508 5.85539 0.854882C5.70234 0.891627 5.55602 0.952233 5.42181 1.03448C5.26705 1.12932 5.14056 1.25648 5.04012 1.35746L5.0131 1.38458L1.32104 5.07664L1.29393 5.10365C1.19294 5.2041 1.06578 5.33058 0.970939 5.48535C0.888696 5.61956 0.828089 5.76587 0.791344 5.91893C0.748971 6.09543 0.74945 6.27478 0.74983 6.41721L0.749899 6.45549V11.6714L0.74983 11.7097C0.74945 11.8521 0.748971 12.0314 0.791344 12.2079C0.828089 12.361 0.888696 12.5073 0.970939 12.6415C1.06578 12.7963 1.19294 12.9228 1.29393 13.0232L1.32104 13.0502L5.0131 16.7423L5.04012 16.7694C5.14057 16.8704 5.26705 16.9976 5.42181 17.0924C5.55602 17.1746 5.70234 17.2352 5.85539 17.272C6.03189 17.3144 6.21125 17.3139 6.35368 17.3135L6.39196 17.3134H11.6078L11.6461 17.3135C11.7886 17.3139 11.9679 17.3144 12.1444 17.272C12.2975 17.2352 12.4438 17.1746 12.578 17.0924C12.7328 16.9976 12.8592 16.8704 12.9597 16.7694L12.9867 16.7423L16.6788 13.0502L16.7059 13.0232C16.8069 12.9228 16.934 12.7963 17.0289 12.6415C17.1111 12.5073 17.1717 12.361 17.2085 12.2079C17.2508 12.0314 17.2503 11.8521 17.25 11.7097L17.2499 11.6714V6.45549L17.25 6.41722C17.2503 6.27478 17.2508 6.09543 17.2085 5.91893C17.1717 5.76587 17.1111 5.61956 17.0289 5.48535C16.934 5.33059 16.8069 5.20411 16.7059 5.10366L16.6788 5.07663L12.9867 1.38458L12.9597 1.35746C12.8592 1.25648 12.7328 1.12932 12.578 1.03448C12.4438 0.952233 12.2975 0.891627 12.1444 0.854882C11.9679 0.812508 11.7886 0.812987 11.6461 0.813368L11.6078 0.813437H6.39196ZM9.74994 6.06348C9.74994 5.64926 9.41415 5.31348 8.99994 5.31348C8.58573 5.31348 8.24994 5.64926 8.24994 6.06348V9.06348C8.24994 9.47769 8.58573 9.81348 8.99994 9.81348C9.41415 9.81348 9.74994 9.47769 9.74994 9.06348V6.06348ZM8.99994 11.3135C8.58573 11.3135 8.24994 11.6493 8.24994 12.0635C8.24994 12.4777 8.58573 12.8135 8.99994 12.8135H9.00744C9.42165 12.8135 9.75744 12.4777 9.75744 12.0635C9.75744 11.6493 9.42165 11.3135 9.00744 11.3135H8.99994Z" clip-rule="evenodd" fill-rule="evenodd"></path>
</svg>
