<svg width="32" height="28" viewBox="0 0 32 28" fill="none" xmlns="http://www.w3.org/2000/svg">
<path d="M15.5795 4.59662C15.4469 4.39688 15.3361 4.21528 15.2108 4.04474C13.1347 1.22062 10.343 0.0237022 6.87465 0.600054C4.48644 0.994815 2.65766 2.3228 1.36491 4.35897C0.908963 5.07507 0.562112 5.8417 0.417379 6.68649C0.330088 7.19889 0.193449 7.70972 0.161918 8.22607C0.0786212 9.62353 0.330873 10.9768 0.832126 12.285C1.36086 13.6675 2.13864 14.9094 3.02389 16.0874C4.10643 17.5275 5.33533 18.842 6.60947 20.1147C8.30083 21.8035 10.1045 23.3676 11.9341 24.9048C13.1032 25.8861 14.2633 26.8794 15.425 27.8694C15.5205 27.95 15.5851 27.9997 15.7072 27.8955C16.6054 27.1257 17.5125 26.3662 18.4108 25.598C18.7956 25.2679 19.1594 24.9127 19.545 24.5842C19.8652 24.3095 20.2104 24.0631 20.533 23.7915C21.0148 23.3849 21.4983 22.9799 21.9592 22.5512C22.9083 21.6693 23.8615 20.7906 24.7799 19.8779C25.8147 18.8491 26.8253 17.7959 27.6888 16.6132C27.9709 16.2263 28.2968 15.871 28.5741 15.481C29.1537 14.6646 29.6752 13.8119 30.0754 12.8921C30.8151 11.1939 31.1959 9.44509 30.9186 7.57865C30.8418 7.06073 30.7658 6.542 30.596 6.05645C29.8773 3.99105 28.5522 2.42149 26.603 1.38958C25.1954 0.645054 23.6901 0.336355 22.1063 0.477676C19.6671 0.694791 17.6953 1.78276 16.198 3.7092C15.9854 3.98316 15.8002 4.27844 15.5795 4.59662H15.5795Z" fill="#F57482"></path>
<path d="M15.5795 4.59662C15.8002 4.27845 15.9854 3.98316 16.198 3.7092C17.6953 1.78276 19.6671 0.694791 22.1063 0.477676C23.6901 0.336355 25.1954 0.645054 26.603 1.38958C28.5522 2.42149 29.8773 3.99105 30.596 6.05645C30.7658 6.54201 30.8418 7.06073 30.9186 7.57865C31.1959 9.44508 30.8151 11.1939 30.0754 12.8921C29.6752 13.8119 29.1537 14.6646 28.5741 15.481C28.2968 15.871 27.9709 16.2263 27.6888 16.6132C26.8253 17.7959 25.8147 18.8491 24.7799 19.8779C23.8615 20.7906 22.9083 21.6693 21.9592 22.5512C21.4983 22.9799 21.0148 23.3849 20.533 23.7915C20.2104 24.0631 19.8652 24.3095 19.545 24.5842C19.1594 24.9127 18.7956 25.2679 18.4108 25.598C17.5126 26.3662 16.6054 27.1257 15.7072 27.8955C15.5851 27.9997 15.5205 27.95 15.425 27.8694C14.2633 26.8794 13.1032 25.8861 11.9341 24.9048C10.1045 23.3676 8.30083 21.8035 6.60947 20.1147C5.33533 18.842 4.10643 17.5275 3.02389 16.0874C2.13864 14.9094 1.36086 13.6675 0.832126 12.285C0.330873 10.9768 0.0786212 9.62354 0.161918 8.22608C0.193449 7.70973 0.330088 7.1989 0.417379 6.6865C0.562112 5.84171 0.908955 5.07509 1.36491 4.35898C2.65766 2.3228 4.48644 0.994823 6.87465 0.600062C10.343 0.0237103 13.1347 1.22063 15.2108 4.04475C15.3361 4.21529 15.4469 4.39688 15.5795 4.59663L15.5795 4.59662Z" fill="#F57482"></path>
</svg>
