<svg viewBox="0 0 599.8 108.2" xmlns="http://www.w3.org/2000/svg"><defs><style>.cls-1{fill:#fff;}</style></defs><g id="Layer_2"><g id="layer"><path d="M192.3,72.1c-8.7,0-13.8-6.8-13.8-14.5,0-8.9,5.8-14.8,13.8-14.8,4.2,0,7,1.7,9.6,3.3l4.2-7.5a26.17,26.17,0,0,0-13.3-4.2c-13.8,0-23.7,9.8-23.7,23.2s10.1,23.2,23.7,23.2c5.8,0,10-2.4,13.3-4.4l-4.2-7.5a18.64,18.64,0,0,1-9.6,3.2m29.5-58.2h8.9V79.6h-8.9ZM282,35.8l-1,3.8c-2.4-2.6-7.5-5.2-12.9-5.2-11,0-21.1,8.7-21.1,22.9,0,14.7,10.1,23.6,21.1,23.6A19.16,19.16,0,0,0,281,75.7l1,4h7.5V36.1H282Zm-.8,22.1c0,10-6.1,14.5-11.9,14.5s-12.7-4-12.7-15c0-7,3.7-14.5,12-14.5,6.3,0,12.6,5.1,12.6,14.5Zm40.1,3.5c6.1,1.6,8.7,2.8,8.7,5.9,0,2.4-2.1,4.9-7,4.9-4.5,0-8.2-1.6-11.7-3.5l-4,7.5c3.1,1.9,10,4.5,15.7,4.5,9.8,0,15.5-6.6,15.5-13.3,0-11.5-11.3-13.3-14.3-14.3-6.3-1.7-7.9-3-7.9-5.6,0-2.8,2.4-4.7,7-4.7a20.87,20.87,0,0,1,9.8,2.6l4.2-7.5c-4-1.7-8.7-3.5-14-3.5-9.6,0-15.4,6.8-15.4,13.1,0,10.1,8.5,12.7,13.4,13.9m47.7,0c6.1,1.6,8.7,2.8,8.7,5.9,0,2.4-2.1,4.9-7,4.9-4.5,0-8.2-1.6-11.7-3.5l-4,7.5c3.1,1.9,10,4.5,15.7,4.5,9.8,0,15.5-6.6,15.5-13.3,0-11.5-11.3-13.3-14.3-14.3-6.3-1.7-7.9-3-7.9-5.6,0-2.8,2.4-4.7,7-4.7a20.87,20.87,0,0,1,9.8,2.6l4.2-7.5c-4-1.7-8.7-3.5-14-3.5-9.6,0-15.4,6.8-15.4,13.1-.1,10.1,8.5,12.7,13.4,13.9m55.8-27a19.16,19.16,0,0,0-12.9,5.2l-1-4h-7.5V97.7h8.4V76.1l.3-.2c2.4,2.6,7.3,4.7,12,4.7,11.3,0,21.8-7.3,21.8-23.6.2-14.6-9.9-22.6-21.1-22.6m-1,38c-5.8,0-11.9-4.5-11.9-14.5v-.5c0-9.6,6.3-14.5,12.6-14.5,8.4,0,12,7.5,12,14.5,0,11-6.8,15-12.7,15m71.9-36.6-1,4c-2.4-2.6-7.5-5.2-12.9-5.2-11,0-21.1,8.7-21.1,22.9,0,14.7,10.1,23.6,21.1,23.6a19.16,19.16,0,0,0,12.9-5.2l1,4h7.5V36.3h-7.5Zm-.9,22.1c0,10-6.1,14.5-11.9,14.5s-12.7-4-12.7-15c0-7,3.7-14.5,12-14.5,6.3,0,12.6,5.1,12.6,14.5ZM535,61.4c6.1,1.6,8.7,2.8,8.7,5.9,0,2.4-2.1,4.9-7,4.9-4.5,0-8.2-1.6-11.7-3.5l-4,7.5c3.1,1.9,10,4.5,15.7,4.5,9.8,0,15.5-6.6,15.5-13.3,0-11.5-11.3-13.3-14.3-14.3-6.3-1.7-7.9-3-7.9-5.6,0-2.8,2.4-4.7,7-4.7a20.87,20.87,0,0,1,9.8,2.6l4.2-7.5c-4-1.7-8.7-3.5-14-3.5-9.6,0-15.4,6.8-15.4,13.1-.1,10.1,8.5,12.7,13.4,13.9m47.6,0c6.1,1.6,8.7,2.8,8.7,5.9,0,2.4-2.1,4.9-7,4.9-4.5,0-8.2-1.6-11.7-3.5l-4,7.5c3.1,1.9,10,4.5,15.7,4.5,9.8,0,15.5-6.6,15.5-13.3,0-11.5-11.3-13.3-14.3-14.3-6.3-1.7-7.9-3-7.9-5.6,0-2.8,2.4-4.7,7-4.7a20.87,20.87,0,0,1,9.8,2.6l4.2-7.5c-4-1.7-8.7-3.5-14-3.5-9.6,0-15.4,6.8-15.4,13.1,0,10.1,8.6,12.7,13.4,13.9" class="cls-1"></path><path d="M92.8,0H76.7c-2.8,0-5.6,2.1-5.9,4.9L68.4,16.4a4.12,4.12,0,0,1-4.2,3.5H46.4C22.3,20.2,0,38.4,0,64.2c0,23,19.2,44,46.8,44H65c2.8,0,5.6-2.1,5.9-4.9l2.4-11.5a4.12,4.12,0,0,1,4.2-3.5H93.2c26.9,0,46.8-20.6,46.8-44C139.6,18.5,117.6,0,92.8,0Zm-.4,71.2H73.5a6.26,6.26,0,0,0-5.9,4.9L65.2,87.3A4.12,4.12,0,0,1,61,90.8H47c-14.3,0-29.7-10.1-29.7-26.9C17.3,48.5,30.9,37,47,37H68.6a6.26,6.26,0,0,0,5.9-4.9l2.4-11.2a4.12,4.12,0,0,1,4.2-3.5H92.3c15,0,29.7,10.5,29.7,26.9C121.8,59.3,108.9,71.2,92.4,71.2Z" class="cls-1"></path></g></g></svg>