<svg viewBox="0 0 94 122" xmlns="http://www.w3.org/2000/svg"><path d="M8.1 89.9 47.6 110l38-20.1V11.3H8.1z" fill="#fff"></path><path d="M86.4 11.6 7.3 91.3l41 20.3 38.1-19.5z" fill="#f2f3f2"></path><path d="M5.5 37.5v54.1l1.4.7 39.5 20.1 1.2.6 1.2-.6 38.1-20.1 1.4-.7V8.7H5.5v28.8zm2.6 52.6V11.3h77.6v78.8l-38.1 20.1L8.1 90.1z" fill="#dcdedc"></path><path d="M46.9 12.6c.4 0 .8 0 1.2.1L46.9 15c-1.8-.1-3.4 1.3-3.5 3.1-.1 1.8 1.3 3.4 3.1 3.5h.4c.8 0 1.6-.3 2.2-.8l1.3 2.2c-1 .7-2.2 1.1-3.5 1.1-3.2.1-5.9-2.3-6-5.5-.1-3.2 2.3-5.9 5.5-6h.5zm4.1 4.9 1.5 2.5-1.5 2.4-1.4-2.4h-2.9l1.5-2.5H51zm-2.4-.9c0-.4.1-.8.3-1.1.2-.3.6-.6.9-.8l.2-.1c.4-.2.5-.3.5-.5s-.3-.4-.5-.4c-.4 0-.7.2-.9.6l-.5-.5c.1-.2.3-.4.5-.6.3-.2.6-.2.9-.2.3 0 .7.1.9.3.2.2.4.5.4.8 0 .5-.3.9-.9 1.1l-.3.2c-.3.2-.5.3-.6.6h1.8v.7l-2.7-.1zm-1.7 12.5 9.5-5.4v-15H37.3v14.9l9.6 5.5z" fill="#ff492c"></path><path d="M90.2 64.5H3.6l-3.2 7 3.2 7h86.6l3.1-7z" fill="#5a39a2"></path><path d="M29.01 51.13q0 .08-.06.13-.05.05-.12.05H23.9q-.07 0-.07.08v2.32q0 .08.07.08h3.23q.07 0 .13.05.05.06.05.13v1.45q0 .08-.05.13-.06.06-.13.06H23.9q-.07 0-.07.07v2.43q0 .08.07.08h4.93q.07 0 .12.05.06.05.06.12v1.46q0 .08-.06.13-.05.05-.12.05h-6.94q-.07 0-.12-.05-.06-.05-.06-.13V49.68q0-.07.06-.13.05-.05.12-.05h6.94q.07 0 .12.05.06.06.06.13v1.45Zm4.41 8.97q-1.01 0-1.76-.28t-1.16-.79q-.41-.51-.41-1.16v-.15q0-.07.05-.13.05-.05.12-.05h1.67q.08 0 .13.05.05.06.05.13v.01q0 .34.37.57.36.23.92.23.51 0 .83-.2.31-.21.31-.5 0-.27-.27-.41-.27-.13-.89-.28-.7-.18-1.11-.35-.95-.33-1.52-.81-.57-.48-.57-1.38 0-1.11.86-1.76.86-.65 2.28-.65.96 0 1.68.3.73.31 1.12.87.4.55.4 1.26 0 .07-.05.12-.06.05-.13.05h-1.61q-.07 0-.12-.05-.06-.05-.06-.12 0-.33-.33-.56-.34-.23-.9-.23-.49 0-.81.19-.31.18-.31.49 0 .3.31.45.31.15 1.02.32l.38.09q.21.05.45.13 1.07.32 1.68.81.62.5.62 1.44 0 1.11-.88 1.73-.88.62-2.36.62Zm8.86-6.29q0 .07-.05.12-.05.06-.13.06h-1.44q-.08 0-.08.07v3.18q0 .49.21.74.2.24.65.24h.49q.08 0 .13.05t.05.13v1.42q0 .17-.18.19-.63.03-.9.03-1.24 0-1.85-.41-.62-.41-.64-1.55v-4.02q0-.07-.07-.07h-.86q-.07 0-.12-.06-.06-.05-.06-.12v-1.34q0-.07.06-.13.05-.05.12-.05h.86q.07 0 .07-.08v-1.78q0-.07.06-.13.05-.05.12-.05h1.68q.08 0 .13.05.05.06.05.13v1.78q0 .08.08.08h1.44q.08 0 .13.05.05.06.05.13v1.34Zm2.44 6.25q-.51 0-.84-.34-.34-.33-.34-.85t.33-.85q.33-.33.85-.33.53 0 .86.33.33.33.33.85t-.34.85q-.34.34-.85.34ZM56.5 60q-.15 0-.21-.14l-1.88-4.15q-.02-.06-.09-.06h-1.39q-.08 0-.08.08v4.09q0 .08-.05.13t-.12.05h-1.76q-.08 0-.13-.05t-.05-.13V49.68q0-.07.05-.13.05-.05.13-.05h4.29q.96 0 1.69.39.72.39 1.12 1.11.4.72.4 1.67 0 1.02-.51 1.74-.51.73-1.42 1.03-.08.03-.05.1l2.04 4.25q.03.06.03.09 0 .12-.16.12H56.5Zm-3.57-8.69q-.08 0-.08.08v2.57q0 .07.08.07h1.96q.64 0 1.03-.37.4-.38.4-.98t-.4-.98q-.39-.39-1.03-.39h-1.96Zm10.75 8.85q-1.17 0-2.06-.48-.89-.47-1.38-1.34-.5-.86-.5-1.99v-3.2q0-1.11.5-1.97.49-.85 1.38-1.33.89-.47 2.06-.47 1.19 0 2.08.47.89.48 1.39 1.33.49.86.49 1.97v3.2q0 1.13-.49 2-.5.87-1.39 1.34-.89.47-2.08.47Zm0-1.81q.83 0 1.34-.52.51-.53.51-1.4v-3.3q0-.87-.5-1.4-.5-.53-1.35-.53-.82 0-1.32.53-.51.53-.51 1.4v3.3q0 .87.51 1.4.5.52 1.32.52ZM69.44 60q-.07 0-.12-.05-.06-.05-.06-.13V49.68q0-.07.06-.13.05-.05.12-.05h1.76q.07 0 .13.05.05.06.05.13v10.14q0 .08-.05.13-.06.05-.13.05h-1.76ZM38.17 39.53q-.09.04 0 .09 1.42.73 1.42 2.44 0 1.46-.99 2.2-.99.74-2.59.74h-3.89q-.07 0-.12-.05-.06-.05-.06-.13V34.68q0-.07.06-.13.05-.05.12-.05h3.77q3.55 0 3.55 2.88 0 1.5-1.27 2.15Zm-4.04-3.22q-.07 0-.07.08v2.34q0 .08.07.08h1.76q.7 0 1.1-.33.38-.33.38-.9 0-.59-.38-.93-.4-.34-1.1-.34h-1.76Zm1.88 6.86q.69 0 1.08-.35.39-.35.39-.97 0-.61-.39-.97-.39-.35-1.1-.35h-1.86q-.07 0-.07.08v2.48q0 .08.07.08h1.88Zm11.92-2.82q.09.57.06 1.27-.01.19-.19.19h-4.64q-.09 0-.06.07.05.3.17.6.39.84 1.59.84.96-.01 1.51-.78.06-.09.14-.09.04 0 .1.06l1.08 1.06q.08.08.08.14 0 .03-.06.12-.5.62-1.28.95-.77.34-1.71.34-1.29 0-2.18-.58-.89-.59-1.28-1.64-.32-.75-.32-1.96 0-.83.23-1.46.34-1.06 1.21-1.69.86-.63 2.04-.63 1.5 0 2.41.87.91.87 1.1 2.32Zm-3.49-1.36q-.95 0-1.25.88-.06.2-.1.48 0 .07.07.07h2.6q.09 0 .06-.07-.08-.43-.08-.42-.13-.45-.47-.7-.34-.24-.83-.24Zm7.83 6.11q-1.01 0-1.76-.28t-1.16-.79q-.41-.51-.41-1.16v-.15q0-.07.05-.13.05-.05.13-.05h1.66q.08 0 .13.05.05.06.05.13v.01q0 .34.37.57.37.23.92.23.51 0 .83-.2.31-.21.31-.5 0-.27-.27-.41-.27-.13-.88-.28-.71-.18-1.11-.35-.96-.33-1.53-.81-.57-.48-.57-1.38 0-1.11.86-1.76.86-.65 2.29-.65.96 0 1.68.3.72.31 1.12.87.39.55.39 1.26 0 .07-.05.12-.05.05-.13.05h-1.6q-.08 0-.13-.05t-.05-.12q0-.33-.34-.56-.34-.23-.89-.23-.5 0-.81.19-.32.18-.32.49 0 .3.31.45.31.15 1.03.32.16.04.37.09.21.05.45.13 1.07.32 1.68.81.62.5.62 1.44 0 1.11-.88 1.73-.88.62-2.36.62Zm8.86-6.29q0 .07-.05.12-.05.06-.13.06h-1.44q-.07 0-.07.07v3.18q0 .49.2.74.2.24.66.24h.49q.07 0 .13.05.05.05.05.13v1.42q0 .17-.18.19-.63.03-.9.03-1.25 0-1.86-.41-.62-.41-.63-1.55v-4.02q0-.07-.08-.07h-.85q-.08 0-.13-.06-.05-.05-.05-.12v-1.34q0-.07.05-.13.05-.05.13-.05h.85q.08 0 .08-.08v-1.78q0-.07.05-.13.05-.05.13-.05h1.68q.07 0 .13.05.05.06.05.13v1.78q0 .08.07.08h1.44q.08 0 .13.05.05.06.05.13v1.34Z" fill="#252530"></path><path d="M28.74 69.28q0 .05-.03.08-.04.04-.09.04h-3.41q-.05 0-.05.05v1.87q0 .05.05.05h2.29q.05 0 .09.03.03.04.03.09v.76q0 .05-.03.09-.04.03-.09.03h-2.29q-.05 0-.05.05v1.93q0 .05.05.05h3.41q.05 0 .09.04.03.03.03.08v.76q0 .05-.03.08-.04.04-.09.04h-4.5q-.05 0-.08-.04-.04-.03-.04-.08v-6.76q0-.05.04-.08.03-.04.08-.04h4.5q.05 0 .09.04.03.03.03.08v.76Zm3.52.93q.81 0 1.3.48.48.48.48 1.31v3.28q0 .05-.04.08-.03.04-.08.04H33q-.05 0-.09-.04-.03-.03-.03-.08v-3.04q0-.46-.26-.75-.26-.28-.69-.28-.43 0-.7.28-.26.28-.26.74v3.05q0 .05-.03.08-.04.04-.09.04h-.92q-.05 0-.08-.04-.04-.03-.04-.08v-4.87q0-.05.04-.09.03-.03.08-.03h.92q.05 0 .09.03.03.04.03.09v.32q0 .03.02.04.02.01.03-.02.41-.54 1.24-.54Zm5.7.9q0 .05-.04.08-.03.04-.08.04h-1.02q-.05 0-.05.05v2.41q0 .38.16.55.17.17.53.17h.3q.05 0 .08.03.04.04.04.09v.75q0 .11-.12.13l-.52.01q-.79 0-1.18-.27-.39-.27-.4-1.02v-2.85q0-.05-.05-.05h-.57q-.05 0-.09-.04-.03-.03-.03-.08v-.7q0-.05.03-.09.04-.03.09-.03h.57q.05 0 .05-.05v-1.17q0-.05.03-.09.04-.03.09-.03h.87q.05 0 .08.03.04.04.04.09v1.17q0 .05.05.05h1.02q.05 0 .08.03.04.04.04.09v.7Zm5.24 1.16q.04.25.04.56l-.01.31q0 .12-.12.12h-3.13q-.05 0-.05.05.03.33.09.45.24.72 1.17.73.68 0 1.08-.56.04-.06.1-.06.04 0 .07.03l.62.51q.09.07.03.16-.31.44-.82.68-.52.24-1.15.24-.78 0-1.33-.35-.54-.35-.79-.98-.23-.54-.23-1.5 0-.58.12-.94.2-.7.76-1.11.55-.4 1.33-.4 1.97 0 2.22 2.06Zm-2.22-1.06q-.37 0-.62.19-.24.18-.34.51-.06.17-.08.44-.02.05.04.05h2.03q.05 0 .05-.05-.02-.25-.06-.38-.09-.36-.35-.56-.27-.2-.67-.2Zm5.7-.98q.32 0 .56.13.08.04.06.15l-.17.9q-.01.12-.14.07-.15-.05-.35-.05-.13 0-.2.01-.42.02-.7.29-.28.28-.28.72v2.83q0 .05-.03.08-.04.04-.09.04h-.92q-.05 0-.08-.04-.04-.03-.04-.08v-4.87q0-.05.04-.09.03-.03.08-.03h.92q.05 0 .09.03.03.04.03.09v.45q0 .04.01.04.02.01.04-.02.42-.65 1.17-.65Zm5.71 1.38q.18.51.18 1.25 0 .71-.17 1.22-.22.66-.7 1.03-.49.37-1.23.37-.71 0-1.14-.51-.02-.02-.04-.01t-.02.04v2.17q0 .05-.03.08-.04.04-.09.04h-.92q-.05 0-.08-.04-.04-.03-.04-.08v-6.76q0-.05.04-.09.03-.03.08-.03h.92q.05 0 .09.03.03.04.03.09v.3q0 .03.02.04.02.01.04-.02.44-.52 1.15-.52t1.2.37q.49.37.71 1.03Zm-1.3 2.45q.3-.46.3-1.22 0-.73-.24-1.15-.28-.49-.85-.49-.52 0-.78.48-.23.39-.23 1.16 0 .79.25 1.2.26.44.75.44.53 0 .8-.42Zm4.98-3.83q.32 0 .56.13.08.04.06.15l-.17.9q-.01.12-.14.07-.15-.05-.35-.05-.13 0-.2.01-.42.02-.7.29-.28.28-.28.72v2.83q0 .05-.03.08-.04.04-.09.04h-.92q-.05 0-.08-.04-.04-.03-.04-.08v-4.87q0-.05.04-.09.03-.03.08-.03h.92q.05 0 .09.03.03.04.03.09v.45q0 .04.01.04.02.01.04-.02.42-.65 1.17-.65Zm2.04-.64q-.31 0-.51-.2t-.2-.51q0-.31.2-.51t.51-.2q.31 0 .51.2t.2.51q0 .31-.2.51t-.51.2Zm-.48 5.81q-.05 0-.08-.04-.04-.03-.04-.08V70.4q0-.05.04-.08.03-.04.08-.04h.92q.05 0 .09.04.03.03.03.08v4.88q0 .05-.03.08-.04.04-.09.04h-.92Zm4.27.06q-.63 0-1.11-.19-.47-.18-.73-.51-.26-.32-.26-.72v-.09q0-.05.03-.09.04-.03.09-.03h.88q.05 0 .09.03.03.04.03.09v.02q0 .25.27.44.28.18.7.18.4 0 .65-.16.25-.17.25-.42 0-.23-.21-.35-.2-.11-.66-.24l-.38-.12q-.51-.15-.86-.32t-.59-.47q-.24-.29-.24-.75 0-.7.55-1.11.55-.42 1.45-.42.61 0 1.07.19.46.2.71.54.25.35.25.79 0 .05-.03.09-.04.03-.09.03h-.85q-.05 0-.09-.03-.03-.04-.03-.09 0-.26-.25-.43-.26-.18-.7-.18-.39 0-.63.14-.25.15-.25.41 0 .24.23.36.24.13.79.28l.22.06q.53.16.89.32.36.17.61.46.25.3.25.77 0 .71-.56 1.11-.56.41-1.49.41Zm7.34-3.19q.04.25.04.56l-.01.31q0 .12-.12.12h-3.13q-.05 0-.05.05.03.33.09.45.24.72 1.17.73.68 0 1.08-.56.04-.06.1-.06.04 0 .07.03l.62.51q.09.07.03.16-.31.44-.83.68-.51.24-1.14.24-.78 0-1.33-.35-.54-.35-.79-.98-.23-.54-.23-1.5 0-.58.12-.94.2-.7.75-1.11.56-.4 1.34-.4 1.97 0 2.22 2.06Zm-2.22-1.06q-.37 0-.62.19-.24.18-.34.51-.06.17-.08.44-.02.05.04.05h2.03q.05 0 .05-.05-.02-.25-.06-.38-.09-.36-.36-.56-.26-.2-.66-.2Z" fill="#fff"></path><path d="M33.15 89.58q-.8 0-1.4-.26-.6-.25-.92-.73-.33-.47-.33-1.1v-.22q0-.05.04-.08.03-.04.08-.04h1.14q.05 0 .09.04.03.03.03.08v.15q0 .4.37.67.37.28 1 .28.53 0 .79-.22.26-.23.26-.56 0-.24-.16-.4-.16-.17-.44-.29-.27-.13-.87-.35-.67-.23-1.14-.47-.46-.24-.77-.66-.32-.41-.32-1.02 0-.6.31-1.05.31-.45.86-.69.55-.24 1.27-.24.76 0 1.35.27.6.27.94.76.33.48.33 1.12v.15q0 .05-.03.08-.04.04-.09.04h-1.15q-.05 0-.08-.04-.04-.03-.04-.08v-.08q0-.42-.34-.72-.35-.29-.95-.29-.47 0-.74.2-.26.2-.26.55 0 .25.16.42.15.17.46.3.3.14.94.37.71.26 1.11.46.41.2.74.59.32.4.32 1.03 0 .94-.69 1.48-.69.55-1.87.55Zm6.44-7.09q.66 0 1.16.27.5.27.78.76.27.5.27 1.14 0 .63-.28 1.11-.29.48-.81.75-.51.26-1.18.26h-1.42q-.05 0-.05.05v2.55q0 .05-.04.08-.03.04-.08.04h-1.17q-.05 0-.09-.04-.03-.03-.03-.08v-6.77q0-.05.03-.09.04-.03.09-.03h2.82Zm-.21 3.16q.46 0 .74-.27.28-.26.28-.69 0-.44-.28-.71-.28-.27-.74-.27h-1.27q-.05 0-.05.05v1.84q0 .05.05.05h1.27Zm7.13 3.85q-.1 0-.14-.09l-1.25-2.77q-.02-.04-.06-.04h-.93q-.05 0-.05.05v2.73q0 .05-.04.08-.03.04-.08.04h-1.17q-.05 0-.09-.04-.03-.03-.03-.08v-6.76q0-.05.03-.08.04-.04.09-.04h2.86q.64 0 1.12.26.49.26.75.74.27.48.27 1.11 0 .68-.34 1.16-.34.49-.95.69-.05.02-.03.07l1.36 2.83q.02.04.02.06 0 .08-.11.08h-1.23Zm-2.38-5.79q-.05 0-.05.05v1.71q0 .05.05.05h1.31q.42 0 .68-.25.27-.25.27-.65t-.27-.66q-.26-.25-.68-.25h-1.31Zm4.8 5.79q-.05 0-.08-.04-.04-.03-.04-.08v-6.76q0-.05.04-.08.03-.04.08-.04h1.17q.05 0 .09.04.03.03.03.08v6.76q0 .05-.03.08-.04.04-.09.04h-1.17Zm6.53-6.88q0-.05.04-.08.03-.04.08-.04h1.17q.05 0 .09.04.03.03.03.08v6.76q0 .05-.03.08-.04.04-.09.04h-1.13q-.1 0-.14-.08l-2.59-4.28q-.02-.03-.04-.02-.02 0-.02.04l.02 4.22q0 .05-.03.08-.04.04-.09.04h-1.17q-.05 0-.08-.04-.04-.03-.04-.08v-6.76q0-.05.04-.08.03-.04.08-.04h1.13q.1 0 .14.08l2.58 4.26q.02.03.04.02.02 0 .02-.04l-.01-4.2Zm5.09 6.96q-.77 0-1.36-.31-.59-.31-.91-.86-.33-.56-.33-1.29v-2.24q0-.73.33-1.29.32-.56.91-.87.59-.3 1.36-.3.76 0 1.35.3.58.3.91.82.32.51.32 1.14v.07q0 .05-.03.08-.04.04-.09.04h-1.17q-.05 0-.08-.04-.04-.03-.04-.08v-.03q0-.46-.32-.77-.32-.32-.85-.32-.54 0-.86.33-.33.34-.33.88v2.32q0 .54.35.87.35.34.89.34.52 0 .83-.28.31-.27.31-.76v-.45q0-.05-.05-.05h-1.12q-.05 0-.08-.04-.04-.03-.04-.08v-.92q0-.05.04-.08.03-.04.08-.04h2.44q.05 0 .09.04.03.03.03.08v1.32q0 .76-.32 1.32t-.9.86q-.59.29-1.36.29ZM37.68 97.63q-.02.02-.01.04t.04.02h2.71q.05 0 .09.03.03.04.03.09v.97q0 .05-.03.08-.04.04-.09.04h-4.5q-.05 0-.09-.04-.03-.03-.03-.08v-.92q0-.09.06-.15.49-.48 1-1.04.51-.57.64-.71.28-.33.57-.63.91-1.01.91-1.5 0-.35-.25-.58-.25-.22-.65-.22t-.65.22q-.25.23-.25.6v.25q0 .05-.04.09-.03.03-.08.03h-1.18q-.05 0-.08-.03-.04-.04-.04-.09v-.47q.03-.54.34-.96.31-.41.82-.63.52-.22 1.16-.22.71 0 1.24.26.52.27.81.72.28.45.28 1 0 .42-.21.86t-.63.95q-.31.39-.67.77-.36.38-1.07 1.1l-.15.15Zm6.11 1.38q-1.1 0-1.74-.62-.64-.61-.64-1.67v-2.64q0-1.04.64-1.65.64-.61 1.74-.61t1.75.61q.64.61.64 1.65v2.64q0 1.06-.64 1.67-.65.62-1.75.62Zm0-1.21q.45 0 .72-.28.26-.27.26-.73v-2.75q0-.46-.26-.73-.27-.28-.72-.28-.44 0-.7.28-.27.27-.27.73v2.75q0 .46.27.73.26.28.7.28Zm5.19-.17q-.02.02-.01.04t.04.02h2.71q.05 0 .09.03.03.04.03.09v.97q0 .05-.03.08-.04.04-.09.04h-4.5q-.05 0-.08-.04-.04-.03-.04-.08v-.92q0-.09.06-.15.49-.48 1-1.04.51-.57.64-.71.28-.33.57-.63.91-1.01.91-1.5 0-.35-.25-.58-.25-.22-.65-.22t-.65.22q-.25.23-.25.6v.25q0 .05-.03.09-.04.03-.09.03h-1.18q-.05 0-.08-.03-.04-.04-.04-.09v-.47q.03-.54.34-.96.31-.41.83-.63.51-.22 1.15-.22.71 0 1.24.26.52.27.81.72.28.45.28 1 0 .42-.21.86t-.63.95q-.31.39-.67.77-.36.38-1.07 1.1l-.15.15Zm8.73-1.78q.05 0 .09.03.03.04.03.09v1.01q0 .05-.03.09-.04.03-.09.03h-.43q-.05 0-.05.05v1.63q0 .05-.03.08-.04.04-.09.04h-1.17q-.05 0-.08-.04-.04-.03-.04-.08v-1.63q0-.05-.05-.05H52.7q-.05 0-.08-.03-.04-.04-.04-.09v-.8q0-.06.03-.15l1.8-4.04q.04-.09.14-.09h1.25q.07 0 .1.04.02.03-.01.1l-1.67 3.75q-.01.02 0 .04t.03.02h1.52q.05 0 .05-.05v-1.24q0-.05.04-.08.03-.04.08-.04h1.17q.05 0 .09.04.03.03.03.08v1.24q0 .05.05.05h.43Z" fill="#252530"></path></svg>