<svg viewBox="0 0 705 800" version="1.1" style="enable-background:new 0 0 705 800" y="0" x="0" id="White_Badges" xml:space="preserve" xmlns="http://www.w3.org/2000/svg"><style>.st1{fill:#fff}.st3{fill:#ff3100}.st4{enable-background:new}.st5{fill:#252530}</style><path style="fill:#f8f8f8" d="M668.1 638.2 352.8 800 37.4 638.2V0h630.7z"></path><path class="st1" d="M37.4 0v638.2L668.1 0z"></path><path style="fill:#dcdfdd" d="M662.1 6v628.6L352.8 793.3 43.4 634.6V6h618.7m6-6H37.4v638.2L352.8 800l315.4-161.8V0h-.1z"></path><path class="st3" d="m425.2 114.1-73.3 42.6-72.1-42.6V0h145.4z"></path><path class="st1" d="M387.5 56.5h-13.7c.4-2.2 1.7-3.3 4.4-4.7l2.5-1.3c4.5-2.3 6.9-4.9 6.9-9.2 0-2.7-1-4.8-3.1-6.3-2-1.5-4.5-2.3-7.4-2.3-2.3 0-4.3.6-6.2 1.8-1.9 1.2-3.3 2.6-4.1 4.5l4 4c1.5-3.1 3.8-4.6 6.7-4.6 2.5 0 4 1.3 4 3 0 1.5-.7 2.7-3.6 4.2l-1.6.8c-3.5 1.8-6 3.8-7.4 6.1-1.4 2.3-2.1 5.2-2.1 8.7v1h20.7v-5.7zM385.7 68.6h-22.6l-11.3 19.6h22.6l11.3 19.6L397 88.2z"></path><path class="st1" d="M353.7 101.3c-14.4 0-26.1-11.7-26.1-26.1S339.3 49 353.7 49l9-18.7c-2.9-.6-5.9-.9-9-.9-25.2 0-45.7 20.5-45.7 45.7s20.5 45.7 45.7 45.7c10.1 0 19.4-3.3 26.9-8.8l-9.9-17c-4.6 3.9-10.5 6.3-17 6.3z"></path><path class="st3" d="M682 501.7H22.4L0 445.7l22.4-56H682l22.4 56z"></path><g class="st4"><path class="st5" d="M205.8 241.4c.3.3.5.7.5 1.1v13.2c0 .4-.2.8-.5 1.1-.3.3-.7.5-1.1.5h-24.1c-.4 0-.7.2-.7.7v75.4c0 .5-.2.8-.5 1.1-.3.3-.7.5-1.1.5h-15.7c-.4 0-.8-.2-1.1-.5-.3-.3-.5-.7-.5-1.1V258c0-.4-.2-.7-.7-.7h-23.4c-.4 0-.8-.2-1.1-.5-.3-.3-.5-.7-.5-1.1v-13.2c0-.4.2-.8.5-1.1.3-.3.7-.5 1.1-.5h67.7c.5 0 .9.2 1.2.5z"></path></g><g class="st4"><path class="st5" d="M217 330.2c-5.4-3.9-9.1-9.3-11-16.1-1.3-4.2-1.9-8.8-1.9-13.7 0-5.3.6-10 1.9-14.2 2.1-6.6 5.8-11.8 11.2-15.6 5.4-3.8 11.8-5.6 19.4-5.6 7.3 0 13.6 1.9 18.8 5.6 5.2 3.7 8.9 8.9 11 15.5 1.4 4.5 2.2 9.2 2.2 14.1 0 4.8-.6 9.4-1.9 13.6-2 7-5.6 12.5-11 16.5-5.3 4-11.8 6-19.3 6s-14-2.2-19.4-6.1zm26.9-13.1c2.1-1.8 3.5-4.3 4.4-7.4.7-2.9 1.1-6 1.1-9.4 0-3.8-.4-6.9-1.1-9.5-1-3-2.5-5.4-4.6-7.1-2.1-1.7-4.6-2.6-7.5-2.6-3 0-5.6.9-7.6 2.6-2 1.7-3.5 4.1-4.4 7.1-.7 2.2-1.1 5.3-1.1 9.5 0 4 .3 7.2.9 9.4.9 3.1 2.4 5.6 4.5 7.4 2.1 1.8 4.7 2.7 7.7 2.7 3.1 0 5.6-.9 7.7-2.7zM344.8 300.6c0 6.2-.9 11.8-2.6 16.8-2.1 5.7-5.3 10.3-9.7 13.6-4.4 3.4-9.9 5-16.5 5-6.5 0-11.5-2.2-15.1-6.7-.2-.3-.4-.4-.5-.3-.2.1-.3.3-.3.5v28.8c0 .4-.2.8-.5 1.1-.3.3-.7.5-1.1.5h-15.7c-.4 0-.8-.2-1.1-.5-.3-.3-.5-.7-.5-1.1v-90.9c0-.4.2-.8.5-1.1.3-.3.7-.5 1.1-.5h15.7c.4 0 .8.2 1.1.5.3.3.5.7.5 1.1v4.4c0 .3.1.4.3.5.2 0 .4 0 .5-.2 3.8-4.9 9-7.4 15.6-7.4 6.2 0 11.5 1.7 16.1 5.2 4.5 3.5 7.8 8.3 9.7 14.4 1.7 4.7 2.5 10.1 2.5 16.3zm-19.6-.3c0-5.6-.9-10.1-2.8-13.4-2.1-3.9-5.4-5.8-9.9-5.8-4.1 0-7.2 1.9-9.3 5.8-1.9 3.2-2.8 7.8-2.8 13.6 0 6 1 10.7 3 14 2.1 3.6 5.1 5.4 9.1 5.4s7.2-1.7 9.4-5.2c2.2-3.6 3.3-8.4 3.3-14.4zM399.1 240.9h16.3c.4 0 .8.2 1.1.5.3.3.5.7.5 1.1v90.9c0 .5-.2.8-.5 1.1-.3.3-.7.5-1.1.5h-15.7c-.4 0-.8-.2-1.1-.5-.3-.3-.5-.7-.5-1.1v-73.7c0-.2-.1-.4-.3-.5-.2-.2-.4-.2-.5-.1l-13.3 3.6-.5.1c-.8 0-1.2-.5-1.2-1.5l-.4-11.6c0-.9.4-1.5 1.2-1.9l14.1-6.6c.4-.2 1-.3 1.9-.3zM439.3 328.2c-5.7-5.5-8.6-13-8.6-22.5v-35.5c0-9.3 2.9-16.7 8.6-22.2 5.7-5.5 13.5-8.2 23.4-8.2 9.9 0 17.7 2.7 23.5 8.2 5.8 5.5 8.7 12.9 8.7 22.2v35.5c0 9.5-2.9 17-8.7 22.5s-13.6 8.3-23.5 8.3-17.6-2.8-23.4-8.3zm33-11.7c2.4-2.5 3.6-5.8 3.6-9.9v-37c0-4.1-1.2-7.4-3.6-9.9-2.4-2.5-5.6-3.7-9.6-3.7-3.9 0-7.1 1.2-9.5 3.7-2.4 2.5-3.6 5.8-3.6 9.9v37c0 4.1 1.2 7.4 3.6 9.9 2.4 2.5 5.5 3.7 9.5 3.7s7.2-1.2 9.6-3.7zM515.9 328.2c-5.7-5.5-8.6-13-8.6-22.5v-35.5c0-9.3 2.9-16.7 8.6-22.2 5.7-5.5 13.5-8.2 23.4-8.2 9.9 0 17.7 2.7 23.5 8.2 5.8 5.5 8.7 12.9 8.7 22.2v35.5c0 9.5-2.9 17-8.7 22.5-5.8 5.5-13.6 8.3-23.5 8.3-9.8 0-17.6-2.8-23.4-8.3zm33-11.7c2.4-2.5 3.6-5.8 3.6-9.9v-37c0-4.1-1.2-7.4-3.6-9.9-2.4-2.5-5.6-3.7-9.6-3.7-3.9 0-7.1 1.2-9.5 3.7-2.4 2.5-3.6 5.8-3.6 9.9v37c0 4.1 1.2 7.4 3.6 9.9 2.4 2.5 5.5 3.7 9.5 3.7s7.2-1.2 9.6-3.7z"></path></g><g class="st4"><path class="st5" d="M137.8 567.4c2.4 1.2 3.6 3.3 3.6 6.2 0 2.5-.8 4.3-2.5 5.6s-3.9 1.9-6.6 1.9h-9.8c-.1 0-.2 0-.3-.1-.1-.1-.1-.2-.1-.3V555c0-.1 0-.2.1-.3.1-.1.2-.1.3-.1h9.5c6 0 9 2.4 9 7.3 0 2.5-1.1 4.3-3.2 5.4-.1-.1-.1 0 0 .1zm-10.4-8.2v5.9c0 .1.1.2.2.2h4.4c1.2 0 2.1-.3 2.8-.8.7-.6 1-1.3 1-2.3 0-1-.3-1.8-1-2.3-.7-.6-1.6-.9-2.8-.9h-4.4c-.1 0-.2.1-.2.2zm7.7 16.3c.7-.6 1-1.4 1-2.5 0-1-.3-1.9-1-2.4-.7-.6-1.6-.9-2.8-.9h-4.7c-.1 0-.2.1-.2.2v6.3c0 .1.1.2.2.2h4.8c1.1 0 2-.3 2.7-.9zM165.1 558.9c-.1.1-.2.1-.3.1h-12.5c-.1 0-.2.1-.2.2v5.9c0 .1.1.2.2.2h8.2c.1 0 .2 0 .3.1.1.1.1.2.1.3v3.7c0 .1 0 .2-.1.3-.1.1-.2.1-.3.1h-8.2c-.1 0-.2.1-.2.2v6.2c0 .1.1.2.2.2h12.5c.1 0 .2 0 .3.1.1.1.1.2.1.3v3.7c0 .1 0 .2-.1.3-.1.1-.2.1-.3.1h-17.6c-.1 0-.2 0-.3-.1-.1-.1-.1-.2-.1-.3v-25.7c0-.1 0-.2.1-.3.1-.1.2-.1.3-.1h17.6c.1 0 .2 0 .3.1.1.1.1.2.1.3v3.7c0 .2 0 .3-.1.4z"></path></g><g class="st4"><path class="st5" d="M173.7 580.4c-1.5-.6-2.7-1.6-3.5-2.8-.8-1.2-1.2-2.6-1.2-4.2v-.8c0-.1 0-.2.1-.3.1-.1.2-.1.3-.1h4.3c.1 0 .2 0 .3.1.1.1.1.2.1.3v.6c0 1 .5 1.9 1.4 2.6.9.7 2.2 1 3.8 1 1.3 0 2.3-.3 3-.9s1-1.3 1-2.1c0-.6-.2-1.1-.6-1.5-.4-.4-1-.8-1.7-1.1s-1.8-.8-3.3-1.3c-1.7-.6-3.1-1.2-4.3-1.8-1.2-.6-2.2-1.4-3-2.5-.8-1.1-1.2-2.3-1.2-3.9 0-1.5.4-2.9 1.2-4 .8-1.1 1.9-2 3.3-2.6 1.4-.6 3-.9 4.8-.9 1.9 0 3.6.3 5.1 1 1.5.7 2.7 1.6 3.5 2.9.8 1.2 1.3 2.7 1.3 4.3v.6c0 .1 0 .2-.1.3-.1.1-.2.1-.3.1h-4.4c-.1 0-.2 0-.3-.1-.1-.1-.1-.2-.1-.3v-.3c0-1.1-.4-2-1.3-2.7-.9-.7-2.1-1.1-3.6-1.1-1.2 0-2.1.3-2.8.8-.7.5-1 1.2-1 2.1 0 .6.2 1.2.6 1.6.4.4 1 .8 1.7 1.2.8.3 2 .8 3.6 1.4 1.8.7 3.2 1.2 4.2 1.7s2 1.3 2.8 2.3c.8 1 1.2 2.3 1.2 3.9 0 2.4-.9 4.3-2.6 5.6s-4.1 2.1-7.1 2.1c-1.9-.3-3.7-.6-5.2-1.2z"></path></g><g class="st4"><path class="st5" d="M212.2 554.6c.1.1.1.2.1.3v3.7c0 .1 0 .2-.1.3-.1.1-.2.1-.3.1h-6.8c-.1 0-.2.1-.2.2v21.3c0 .1 0 .2-.1.3-.1.1-.2.1-.3.1H200c-.1 0-.2 0-.3-.1-.1-.1-.1-.2-.1-.3v-21.3c0-.1-.1-.2-.2-.2h-6.6c-.1 0-.2 0-.3-.1-.1-.1-.1-.2-.1-.3v-3.7c0-.1 0-.2.1-.3.1-.1.2-.1.3-.1H212c0-.1.1 0 .2.1zM229.5 580.4c-1.5-.6-2.7-1.6-3.5-2.8-.8-1.2-1.2-2.6-1.2-4.2v-.8c0-.1 0-.2.1-.3.1-.1.2-.1.3-.1h4.3c.1 0 .2 0 .3.1.1.1.1.2.1.3v.6c0 1 .5 1.9 1.4 2.6.9.7 2.2 1 3.8 1 1.3 0 2.3-.3 3-.9s1-1.3 1-2.1c0-.6-.2-1.1-.6-1.5-.4-.4-1-.8-1.7-1.1s-1.8-.8-3.3-1.3c-1.7-.6-3.1-1.2-4.3-1.8-1.2-.6-2.2-1.4-3-2.5-.8-1.1-1.2-2.3-1.2-3.9 0-1.5.4-2.9 1.2-4 .8-1.1 1.9-2 3.3-2.6 1.4-.6 3-.9 4.8-.9 1.9 0 3.6.3 5.1 1 1.5.7 2.7 1.6 3.5 2.9.8 1.2 1.3 2.7 1.3 4.3v.6c0 .1 0 .2-.1.3-.1.1-.2.1-.3.1h-4.4c-.1 0-.2 0-.3-.1-.1-.1-.1-.2-.1-.3v-.3c0-1.1-.4-2-1.3-2.7-.9-.7-2.1-1.1-3.6-1.1-1.2 0-2.1.3-2.8.8-.7.5-1 1.2-1 2.1 0 .6.2 1.2.6 1.6.4.4 1 .8 1.7 1.2.8.3 2 .8 3.6 1.4 1.8.7 3.2 1.2 4.2 1.7s2 1.3 2.8 2.3c.8 1 1.2 2.3 1.2 3.9 0 2.4-.9 4.3-2.6 5.6s-4.1 2.1-7.1 2.1c-1.9-.3-3.7-.6-5.2-1.2zM253.6 580.2c-1.5-.8-2.7-1.9-3.5-3.4-.8-1.5-1.3-3.1-1.3-5v-8.1c0-1.9.4-3.5 1.3-5s2-2.6 3.5-3.4c1.5-.8 3.2-1.2 5.2-1.2s3.8.4 5.3 1.2c1.5.8 2.7 1.9 3.5 3.4s1.3 3.1 1.3 5v8.1c0 1.9-.4 3.6-1.3 5.1s-2 2.6-3.5 3.4c-1.5.8-3.3 1.2-5.3 1.2-1.9-.1-3.6-.5-5.2-1.3zm8.7-4.7c.9-.9 1.3-2.1 1.3-3.5v-8.4c0-1.5-.4-2.7-1.3-3.6-.8-.9-2-1.3-3.4-1.3s-2.5.4-3.4 1.3c-.8.9-1.3 2.1-1.3 3.6v8.4c0 1.5.4 2.6 1.3 3.5.8.9 2 1.3 3.4 1.3s2.5-.4 3.4-1.3zM292.4 558.9c-.1.1-.2.1-.3.1h-12.4c-.1 0-.2.1-.2.2v5.9c0 .1.1.2.2.2h8.2c.1 0 .2 0 .3.1.1.1.1.2.1.3v3.7c0 .1 0 .2-.1.3-.1.1-.2.1-.3.1h-8.2c-.1 0-.2.1-.2.2v10.5c0 .1 0 .2-.1.3-.1.1-.2.1-.3.1h-4.4c-.1 0-.2 0-.3-.1-.1-.1-.1-.2-.1-.3v-25.7c0-.1 0-.2.1-.3.1-.1.2-.1.3-.1h17.5c.1 0 .2 0 .3.1.1.1.1.2.1.3v3.7c0 .2-.1.3-.2.4zM315.2 554.6c.1.1.1.2.1.3v3.7c0 .1 0 .2-.1.3-.1.1-.2.1-.3.1h-6.8c-.1 0-.2.1-.2.2v21.3c0 .1 0 .2-.1.3-.1.1-.2.1-.3.1H303c-.1 0-.2 0-.3-.1-.1-.1-.1-.2-.1-.3v-21.3c0-.1-.1-.2-.2-.2h-6.6c-.1 0-.2 0-.3-.1-.1-.1-.1-.2-.1-.3v-3.7c0-.1 0-.2.1-.3.1-.1.2-.1.3-.1H315c0-.1.2 0 .2.1z"></path></g><g class="st4"><path class="st5" d="m326 580.6-6.7-25.7v-.2c0-.2.1-.3.4-.3h4.7c.3 0 .4.1.5.4l3.6 15.5c0 .1.1.2.1.2s.1-.1.1-.2l3.5-15.4c.1-.3.2-.4.5-.4h4.6c.3 0 .5.1.5.4l3.8 15.5c0 .1.1.1.1.1.1 0 .1 0 .1-.1l3.5-15.4c.1-.3.2-.4.5-.4h4.5c.4 0 .5.2.4.5l-6.2 25.7c-.1.3-.3.4-.5.4h-4.5c-.3 0-.4-.1-.5-.4l-3.9-16.5c0-.1-.1-.2-.1-.2-.1 0-.1.1-.1.2l-3.6 16.4c-.1.3-.2.4-.5.4h-4.2c-.3-.1-.5-.2-.6-.5z"></path></g><g class="st4"><path class="st5" d="m367.1 580.6-1.1-3.7c-.1-.1-.1-.2-.2-.2h-9.3c-.1 0-.1.1-.2.2l-1.1 3.7c-.1.3-.2.4-.5.4h-4.8c-.2 0-.3 0-.3-.1-.1-.1-.1-.2 0-.4l8.2-25.7c.1-.3.2-.4.5-.4h6c.3 0 .4.1.5.4l8.2 25.7v.2c0 .2-.1.3-.4.3h-4.8c-.5 0-.6-.1-.7-.4zm-9.4-8h6.7c.2 0 .2-.1.2-.2l-3.4-11.3c0-.1-.1-.1-.1-.1-.1 0-.1.1-.1.1l-3.3 11.3c-.1.1-.1.2 0 .2zM391.4 580.7l-4.8-10.5c-.1-.1-.1-.2-.2-.2h-3.5c-.1 0-.2.1-.2.2v10.4c0 .1 0 .2-.1.3-.1.1-.2.1-.3.1h-4.4c-.1 0-.2 0-.3-.1-.1-.1-.1-.2-.1-.3v-25.7c0-.1 0-.2.1-.3.1-.1.2-.1.3-.1h10.9c1.6 0 3 .3 4.3 1s2.2 1.6 2.9 2.8c.7 1.2 1 2.6 1 4.2 0 1.7-.4 3.2-1.3 4.4-.9 1.2-2.1 2.1-3.6 2.6-.1.1-.2.1-.1.3l5.2 10.8c.1.1.1.2.1.2 0 .2-.1.3-.4.3h-4.7c-.6-.1-.7-.2-.8-.4zm-8.7-21.5v6.5c0 .1.1.2.2.2h5c1.1 0 1.9-.3 2.6-1 .7-.6 1-1.5 1-2.5s-.3-1.8-1-2.5c-.7-.6-1.5-1-2.6-1h-5c-.2.1-.2.2-.2.3zM420.1 558.9c-.1.1-.2.1-.3.1h-12.5c-.1 0-.2.1-.2.2v5.9c0 .1.1.2.2.2h8.2c.1 0 .2 0 .3.1.1.1.1.2.1.3v3.7c0 .1 0 .2-.1.3-.1.1-.2.1-.3.1h-8.2c-.1 0-.2.1-.2.2v6.2c0 .1.1.2.2.2h12.5c.1 0 .2 0 .3.1.1.1.1.2.1.3v3.7c0 .1 0 .2-.1.3-.1.1-.2.1-.3.1h-17.6c-.1 0-.2 0-.3-.1-.1-.1-.1-.2-.1-.3v-25.7c0-.1 0-.2.1-.3.1-.1.2-.1.3-.1h17.6c.1 0 .2 0 .3.1.1.1.1.2.1.3v3.7c0 .2 0 .3-.1.4z"></path></g><g class="st4"><path class="st5" d="m451.2 580.6-1.1-3.7c-.1-.1-.1-.2-.2-.2h-9.3c-.1 0-.1.1-.2.2l-1.1 3.7c-.1.3-.2.4-.5.4H434c-.2 0-.3 0-.3-.1-.1-.1-.1-.2 0-.4l8.2-25.7c.1-.3.2-.4.5-.4h6c.3 0 .4.1.5.4l8.2 25.7v.2c0 .2-.1.3-.4.3h-4.8c-.5 0-.6-.1-.7-.4zm-9.4-8h6.7c.2 0 .2-.1.2-.2l-3.4-11.3c0-.1-.1-.1-.1-.1-.1 0-.1.1-.1.1l-3.3 11.3c-.1.1-.1.2 0 .2z"></path></g><g class="st4"><path class="st5" d="m462.8 580.6-6.7-25.7v-.2c0-.2.1-.3.4-.3h4.7c.3 0 .4.1.5.4l3.6 15.5c0 .1.1.2.1.2s.1-.1.1-.2l3.5-15.4c.1-.3.2-.4.5-.4h4.6c.3 0 .5.1.5.4l3.8 15.5c0 .1.1.1.1.1.1 0 .1 0 .1-.1l3.5-15.4c.1-.3.2-.4.5-.4h4.5c.4 0 .5.2.4.5l-6.2 25.7c-.1.3-.3.4-.5.4h-4.5c-.3 0-.4-.1-.5-.4l-3.9-16.5c0-.1-.1-.2-.1-.2-.1 0-.1.1-.1.2l-3.6 16.4c-.1.3-.2.4-.5.4h-4.2c-.3-.1-.5-.2-.6-.5z"></path></g><g class="st4"><path class="st5" d="m503.9 580.6-1.1-3.7c-.1-.1-.1-.2-.2-.2h-9.3c-.1 0-.1.1-.2.2l-1.1 3.7c-.1.3-.2.4-.5.4h-4.8c-.2 0-.3 0-.3-.1-.1-.1-.1-.2 0-.4l8.2-25.7c.1-.3.2-.4.5-.4h6c.3 0 .4.1.5.4l8.2 25.7v.2c0 .2-.1.3-.4.3h-4.8c-.5 0-.6-.1-.7-.4zm-9.4-8h6.7c.2 0 .2-.1.2-.2l-3.4-11.3c0-.1-.1-.1-.1-.1-.1 0-.1.1-.1.1l-3.3 11.3c-.1.1-.1.2 0 .2zM528.2 580.7l-4.8-10.5c-.1-.1-.1-.2-.2-.2h-3.5c-.1 0-.2.1-.2.2v10.4c0 .1 0 .2-.1.3-.1.1-.2.1-.3.1h-4.4c-.1 0-.2 0-.3-.1-.1-.1-.1-.2-.1-.3v-25.7c0-.1 0-.2.1-.3.1-.1.2-.1.3-.1h10.9c1.6 0 3 .3 4.3 1 1.2.7 2.2 1.6 2.8 2.8.7 1.2 1 2.6 1 4.2 0 1.7-.4 3.2-1.3 4.4s-2.1 2.1-3.6 2.6c-.1.1-.2.1-.1.3l5.2 10.8c.1.1.1.2.1.2 0 .2-.1.3-.4.3h-4.7c-.5-.1-.6-.2-.7-.4zm-8.7-21.5v6.5c0 .1.1.2.2.2h5c1.1 0 1.9-.3 2.6-1 .7-.6 1-1.5 1-2.5s-.3-1.8-1-2.5c-.7-.6-1.5-1-2.6-1h-5c-.2.1-.2.2-.2.3zM538.7 580.9c-.1-.1-.1-.2-.1-.3v-25.7c0-.1 0-.2.1-.3.1-.1.2-.1.3-.1h9.5c1.9 0 3.6.3 5 1s2.5 1.6 3.3 2.8c.8 1.2 1.2 2.6 1.2 4.2V573c0 1.6-.4 3-1.2 4.2-.8 1.2-1.9 2.2-3.3 2.8-1.4.7-3.1 1-5 1H539c-.1 0-.2 0-.3-.1zm5.4-4.5h4.6c1.2 0 2.1-.4 2.8-1.2s1.1-1.8 1.1-3.2v-8.7c0-1.3-.4-2.4-1.1-3.2-.7-.8-1.7-1.2-2.9-1.2H544c-.1 0-.2.1-.2.2v17c.1.3.2.3.3.3zM567 580.4c-1.5-.6-2.7-1.6-3.5-2.8-.8-1.2-1.2-2.6-1.2-4.2v-.8c0-.1 0-.2.1-.3.1-.1.2-.1.3-.1h4.3c.1 0 .2 0 .3.1.1.1.1.2.1.3v.6c0 1 .5 1.9 1.4 2.6s2.2 1 3.8 1c1.3 0 2.3-.3 3-.9.7-.6 1-1.3 1-2.1 0-.6-.2-1.1-.6-1.5-.4-.4-1-.8-1.7-1.1-.7-.3-1.8-.8-3.3-1.3-1.7-.6-3.1-1.2-4.3-1.8-1.2-.6-2.2-1.4-3-2.5-.8-1.1-1.2-2.3-1.2-3.9 0-1.5.4-2.9 1.2-4 .8-1.1 1.9-2 3.3-2.6 1.4-.6 3-.9 4.8-.9 1.9 0 3.6.3 5.1 1 1.5.7 2.7 1.6 3.5 2.9.8 1.2 1.3 2.7 1.3 4.3v.6c0 .1 0 .2-.1.3-.1.1-.2.1-.3.1H577c-.1 0-.2 0-.3-.1-.1-.1-.1-.2-.1-.3v-.3c0-1.1-.4-2-1.3-2.7-.9-.7-2.1-1.1-3.6-1.1-1.2 0-2.1.3-2.8.8-.7.5-1 1.2-1 2.1 0 .6.2 1.2.6 1.6.4.4 1 .8 1.7 1.2.8.3 2 .8 3.6 1.4 1.8.7 3.2 1.2 4.2 1.7s2 1.3 2.8 2.3c.8 1 1.2 2.3 1.2 3.9 0 2.4-.9 4.3-2.6 5.6s-4.1 2.1-7.1 2.1c-2-.3-3.8-.6-5.3-1.2z"></path></g><g class="st4"><path class="st1" d="M119.5 465c-2.3-1-4.1-2.4-5.4-4.2-1.3-1.8-1.9-4-1.9-6.4v-1.3c0-.2.1-.4.2-.5.1-.1.3-.2.5-.2h6.6c.2 0 .4.1.5.2.1.1.2.3.2.5v.9c0 1.5.7 2.9 2.1 3.9 1.4 1.1 3.4 1.6 5.8 1.6 2 0 3.6-.4 4.6-1.3 1-.9 1.5-1.9 1.5-3.2 0-.9-.3-1.7-.9-2.3-.6-.6-1.5-1.2-2.5-1.7-1.1-.5-2.8-1.1-5.1-2-2.6-.9-4.8-1.8-6.6-2.7s-3.3-2.2-4.5-3.8c-1.2-1.6-1.8-3.6-1.8-5.9 0-2.3.6-4.3 1.8-6.1 1.2-1.7 2.9-3.1 5-4 2.1-.9 4.6-1.4 7.4-1.4 2.9 0 5.6.5 7.9 1.6 2.3 1 4.1 2.5 5.4 4.4 1.3 1.9 1.9 4.1 1.9 6.5v.9c0 .2-.1.4-.2.5-.1.1-.3.2-.5.2h-6.7c-.2 0-.4-.1-.5-.2-.1-.1-.2-.3-.2-.5v-.5c0-1.6-.7-3-2-4.1s-3.2-1.7-5.5-1.7c-1.8 0-3.2.4-4.3 1.2-1 .8-1.5 1.8-1.5 3.2 0 1 .3 1.8.9 2.4.6.7 1.5 1.2 2.7 1.8 1.2.5 3 1.2 5.5 2.1 2.7 1 4.9 1.9 6.5 2.7s3 1.9 4.2 3.5c1.3 1.5 1.9 3.5 1.9 5.9 0 3.6-1.3 6.5-4 8.6-2.7 2.1-6.3 3.2-10.8 3.2-3.2-.3-5.9-.8-8.2-1.8z"></path></g><g class="st4"><path class="st1" d="M152.3 463.9c-2.3-1.7-3.9-4-4.8-7-.5-1.8-.8-3.8-.8-5.9 0-2.3.3-4.3.8-6.1.9-2.9 2.5-5.1 4.8-6.7 2.3-1.6 5.1-2.4 8.4-2.4 3.2 0 5.9.8 8.1 2.4 2.2 1.6 3.8 3.8 4.8 6.7.6 1.9.9 4 .9 6.1 0 2.1-.3 4-.8 5.9-.9 3-2.4 5.4-4.7 7.1-2.3 1.7-5.1 2.6-8.3 2.6s-6.1-1-8.4-2.7zm11.6-5.6c.9-.8 1.5-1.8 1.9-3.2.3-1.2.5-2.6.5-4.1 0-1.6-.2-3-.5-4.1-.4-1.3-1.1-2.3-2-3.1-.9-.7-2-1.1-3.2-1.1-1.3 0-2.4.4-3.3 1.1-.9.7-1.5 1.8-1.9 3.1-.3.9-.5 2.3-.5 4.1 0 1.7.1 3.1.4 4.1.4 1.4 1 2.4 1.9 3.2.9.8 2 1.2 3.3 1.2 1.4 0 2.5-.4 3.4-1.2z"></path></g><g class="st4"><path class="st1" d="M196.5 436.4c.1.1.2.3.2.5v5.5c0 .2-.1.4-.2.5-.1.1-.3.2-.5.2h-5.6c-.2 0-.3.1-.3.3v22c0 .2-.1.4-.2.5-.1.1-.3.2-.5.2h-6.8c-.2 0-.4-.1-.5-.2-.1-.1-.2-.3-.2-.5v-22c0-.2-.1-.3-.3-.3h-3.4c-.2 0-.4-.1-.5-.2-.1-.1-.2-.3-.2-.5v-5.5c0-.2.1-.4.2-.5.1-.1.3-.2.5-.2h3.4c.2 0 .3-.1.3-.3v-1.3c0-2.4.4-4.3 1.1-5.6.7-1.3 1.9-2.3 3.6-2.8 1.6-.6 3.9-.8 6.8-.7h2.2c.2 0 .4.1.5.2.1.1.2.3.2.5v4.7c0 .2-.1.4-.2.5-.1.1-.3.2-.5.2h-1.9c-1.4 0-2.3.3-2.8.8s-.8 1.5-.8 2.9v.6c0 .2.1.3.3.3h5.6c.2 0 .3 0 .5.2zM218.3 442.6c-.1.1-.3.2-.5.2h-5.6c-.2 0-.3.1-.3.3v12.3c0 1.3.3 2.2.8 2.8.5.6 1.4.9 2.5.9h1.9c.2 0 .4.1.5.2.1.1.2.3.2.5v5.5c0 .4-.2.7-.7.8-1.6.1-2.8.1-3.5.1-3.2 0-5.6-.5-7.2-1.6-1.6-1.1-2.4-3.1-2.4-6v-15.5c0-.2-.1-.3-.3-.3h-3.3c-.2 0-.4-.1-.5-.2-.1-.1-.2-.3-.2-.5v-5.2c0-.2.1-.4.2-.5.1-.1.3-.2.5-.2h3.3c.2 0 .3-.1.3-.3V429c0-.2.1-.4.2-.5.1-.1.3-.2.5-.2h6.5c.2 0 .4.1.5.2.1.1.2.3.2.5v6.9c0 .2.1.3.3.3h5.6c.2 0 .4.1.5.2.1.1.2.3.2.5v5.2c0 .2 0 .3-.2.5z"></path></g><g class="st4"><path class="st1" d="m230.1 465.4-8.4-28.5-.1-.2c0-.4.2-.6.6-.6h7c.4 0 .7.2.8.6l4.2 17.5c0 .1.1.2.2.2s.1-.1.2-.2l4.4-17.5c.1-.4.4-.6.8-.6h6.1c.4 0 .7.2.8.6l4.6 17.6c0 .1.1.2.2.2s.1-.1.2-.2l4.5-17.6c.1-.4.4-.6.8-.6l7 .1c.2 0 .4.1.5.2.1.1.1.3.1.6l-8.5 28.4c-.1.4-.4.6-.8.6h-7c-.4 0-.7-.2-.8-.6l-4.5-15.5c0-.1-.1-.2-.2-.2s-.1.1-.2.2l-3.9 15.5c-.1.4-.4.6-.8.6h-7c-.5 0-.7-.2-.8-.6z"></path></g><g class="st4"><path class="st1" d="M285.9 437c2 .9 3.5 2.1 4.6 3.6 1.1 1.5 1.7 3.2 1.7 5v19.7c0 .2-.1.4-.2.5-.1.1-.3.2-.5.2h-6.8c-.2 0-.4-.1-.5-.2-.1-.1-.2-.3-.2-.5v-1.9c0-.1 0-.2-.1-.2s-.2 0-.2.1c-1.6 2.1-4.2 3.2-7.8 3.2-3 0-5.5-.7-7.3-2.2-1.9-1.5-2.8-3.6-2.8-6.5 0-3 1-5.3 3.1-6.9s5.1-2.5 8.9-2.5h5.9c.2 0 .3-.1.3-.3v-1.3c0-1.3-.4-2.3-1.2-3-.8-.7-1.9-1.1-3.5-1.1-1.2 0-2.2.2-3 .6-.8.4-1.3 1-1.5 1.8-.1.4-.4.6-.8.6l-7-.9c-.5-.1-.7-.2-.6-.5.2-1.6.8-3.1 1.9-4.4 1.1-1.3 2.6-2.3 4.5-3.1s4-1.1 6.3-1.1c2.6 0 4.8.5 6.8 1.3zm-3.6 22.1c1.2-.9 1.7-2 1.7-3.4v-2.1c0-.2-.1-.3-.3-.3h-4.2c-1.7 0-3.1.3-4.1 1-1 .7-1.5 1.6-1.5 2.8 0 1 .4 1.9 1.1 2.5.7.6 1.7.9 3 .9 1.7-.1 3.1-.6 4.3-1.4z"></path></g><g class="st4"><path class="st1" d="M316.1 436.6c.3.2.4.4.3.9l-1.2 6.6c0 .5-.3.6-.8.4-.6-.2-1.3-.3-2-.3-.3 0-.7 0-1.3.1-1.4.1-2.6.6-3.5 1.5-1 .9-1.5 2.1-1.5 3.6v15.8c0 .2-.1.4-.2.5-.1.1-.3.2-.5.2h-6.8c-.2 0-.4-.1-.5-.2-.1-.1-.2-.3-.2-.5v-28.4c0-.2.1-.4.2-.5.1-.1.3-.2.5-.2h6.8c.2 0 .4.1.5.2.1.1.2.3.2.5v2.2c0 .1 0 .2.1.2s.1 0 .2-.1c1.6-2.3 3.7-3.5 6.4-3.5 1.4.2 2.5.5 3.3 1z"></path></g><g class="st4"><path class="st1" d="M346 453c0 .5-.3.7-.8.7h-17.9c-.2 0-.3.1-.2.3.1.8.3 1.5.6 2.3 1 2.2 3.1 3.2 6.1 3.2 2.5 0 4.4-1 5.9-3 .2-.2.3-.3.5-.3.1 0 .3.1.4.2l4.2 4.1c.2.2.3.4.3.5 0 .1-.1.2-.2.5-1.3 1.6-2.9 2.8-4.9 3.7-2 .9-4.2 1.3-6.6 1.3-3.3 0-6.1-.8-8.4-2.3-2.3-1.5-4-3.6-5-6.3-.8-1.9-1.2-4.5-1.2-7.6 0-2.1.3-4 .9-5.6.9-2.7 2.4-4.9 4.7-6.6 2.2-1.6 4.9-2.4 7.9-2.4 3.9 0 7 1.1 9.3 3.4 2.3 2.2 3.8 5.2 4.3 9 .1 1.4.2 3.1.1 4.9zm-18.6-6.8c-.2.5-.3 1.1-.4 1.9 0 .2.1.3.3.3h10c.2 0 .3-.1.2-.3-.2-1.1-.3-1.7-.3-1.6-.3-1.2-1-2.1-1.8-2.7-.9-.6-1.9-1-3.2-1-2.4 0-4 1.1-4.8 3.4zM386.7 426.9c1.9 1 3.4 2.5 4.5 4.4 1.1 1.9 1.6 4.1 1.6 6.6 0 2.4-.6 4.6-1.7 6.4-1.1 1.9-2.6 3.3-4.6 4.3-2 1-4.3 1.5-6.9 1.5h-8.2c-.2 0-.3.1-.3.3v14.8c0 .2-.1.4-.2.5-.1.1-.3.2-.5.2h-6.8c-.2 0-.4-.1-.5-.2-.1-.1-.2-.3-.2-.5v-39.3c0-.2.1-.4.2-.5.1-.1.3-.2.5-.2H380c2.5.2 4.7.7 6.7 1.7zm-3.7 15.3c1.1-1 1.6-2.4 1.6-4 0-1.7-.5-3.1-1.6-4.1-1.1-1-2.5-1.6-4.3-1.6h-7.4c-.2 0-.3.1-.3.3v10.7c0 .2.1.3.3.3h7.4c1.8-.1 3.2-.6 4.3-1.6z"></path></g><g class="st4"><path class="st1" d="M415.5 436.6c.3.2.4.4.3.9l-1.2 6.6c0 .5-.3.6-.8.4-.6-.2-1.3-.3-2-.3-.3 0-.7 0-1.3.1-1.4.1-2.6.6-3.5 1.5-1 .9-1.5 2.1-1.5 3.6v15.8c0 .2-.1.4-.2.5-.1.1-.3.2-.5.2H398c-.2 0-.4-.1-.5-.2-.1-.1-.2-.3-.2-.5v-28.4c0-.2.1-.4.2-.5.1-.1.3-.2.5-.2h6.8c.2 0 .4.1.5.2.1.1.2.3.2.5v2.2c0 .1 0 .2.1.2s.1 0 .2-.1c1.6-2.3 3.7-3.5 6.4-3.5 1.4.2 2.5.5 3.3 1z"></path></g><g class="st4"><path class="st1" d="M423.6 463.9c-2.3-1.7-3.9-4-4.8-7-.5-1.8-.8-3.8-.8-5.9 0-2.3.3-4.3.8-6.1.9-2.9 2.5-5.1 4.8-6.7 2.3-1.6 5.1-2.4 8.4-2.4 3.2 0 5.9.8 8.1 2.4 2.2 1.6 3.8 3.8 4.8 6.7.6 1.9.9 4 .9 6.1 0 2.1-.3 4-.8 5.9-.9 3-2.4 5.4-4.7 7.1-2.3 1.7-5.1 2.6-8.3 2.6s-6.1-1-8.4-2.7zm11.6-5.6c.9-.8 1.5-1.8 1.9-3.2.3-1.2.5-2.6.5-4.1 0-1.6-.2-3-.5-4.1-.4-1.3-1.1-2.3-2-3.1-.9-.7-2-1.1-3.2-1.1-1.3 0-2.4.4-3.3 1.1-.9.7-1.5 1.8-1.9 3.1-.3.9-.5 2.3-.5 4.1 0 1.7.1 3.1.4 4.1.4 1.4 1 2.4 1.9 3.2.9.8 2 1.2 3.3 1.2 1.4 0 2.5-.4 3.4-1.2zM469.8 425.6c.1-.1.3-.2.5-.2h6.8c.2 0 .4.1.5.2.1.1.2.3.2.5v39.2c0 .2-.1.4-.2.5-.1.1-.3.2-.5.2h-6.8c-.2 0-.4-.1-.5-.2-.1-.1-.2-.3-.2-.5v-1.9c0-.1 0-.2-.1-.2s-.2 0-.2.1c-1.6 2.1-3.8 3.2-6.7 3.2-2.7 0-5-.8-7-2.3-2-1.5-3.4-3.6-4.2-6.2-.7-2-1-4.3-1-7s.3-5.1 1-7.2c.9-2.5 2.3-4.4 4.2-5.9 1.9-1.5 4.3-2.2 7.1-2.2s4.9 1 6.5 2.9c.1.1.2.2.2.1.1 0 .1-.1.1-.2v-12.4c.1-.2.2-.3.3-.5zm-.3 25.5c0-2.6-.4-4.6-1.3-6.1s-2.2-2.3-3.9-2.3c-1.8 0-3.2.8-4.1 2.3-1 1.5-1.5 3.6-1.5 6.1 0 2.3.4 4.3 1.2 5.8 1 1.7 2.4 2.5 4.3 2.5 1.7 0 3.1-.8 4.1-2.5.9-1.4 1.2-3.3 1.2-5.8zM501.5 436.4c.1-.1.3-.2.5-.2h6.8c.2 0 .4.1.5.2.1.1.2.3.2.5v28.4c0 .2-.1.4-.2.5-.1.1-.3.2-.5.2H502c-.2 0-.4-.1-.5-.2-.1-.1-.2-.3-.2-.5v-2c0-.1 0-.2-.1-.2s-.2 0-.2.1c-1.5 2.1-3.9 3.1-7.2 3.1-2.9 0-5.4-.9-7.2-2.7-1.9-1.8-2.8-4.3-2.8-7.5v-19.4c0-.2.1-.4.2-.5.1-.1.3-.2.5-.2h6.7c.2 0 .4.1.5.2.1.1.2.3.2.5V454c0 1.5.4 2.8 1.2 3.8.8 1 2 1.5 3.5 1.5 1.3 0 2.4-.4 3.2-1.2.8-.8 1.4-1.8 1.6-3.1v-18.3c-.1 0 0-.2.1-.3zM520.6 464.2c-2.3-1.5-3.9-3.7-4.8-6.4-.7-1.9-1-4.2-1-6.8 0-2.6.3-4.8 1-6.7.9-2.6 2.5-4.7 4.8-6.2s5-2.3 8.1-2.3c3.1 0 5.8.8 8.1 2.3 2.3 1.5 3.9 3.5 4.7 5.9.3.9.5 1.6.5 2.1v.1c0 .3-.2.6-.6.6l-6.7 1h-.1c-.3 0-.6-.2-.7-.6l-.2-.9c-.3-1-.9-1.8-1.8-2.5s-2-1-3.3-1c-1.2 0-2.3.3-3.1.9-.9.6-1.5 1.5-1.8 2.6-.4 1.2-.6 2.7-.6 4.8 0 2 .2 3.6.6 4.8.3 1.2 1 2.1 1.8 2.7.9.7 1.9 1 3.2 1 1.2 0 2.3-.3 3.2-1 .9-.6 1.5-1.5 1.9-2.6 0-.1.1-.2.1-.3 0 0 .1-.1.1-.2 0-.5.3-.7.8-.6l6.7 1c.4.1.6.3.6.6s-.1.9-.3 1.7c-.8 2.6-2.4 4.6-4.7 6.1-2.3 1.5-5 2.2-8.1 2.2-3.4 0-6.1-.8-8.4-2.3zM563.6 442.6c-.1.1-.3.2-.5.2h-5.6c-.2 0-.3.1-.3.3v12.3c0 1.3.3 2.2.8 2.8.5.6 1.4.9 2.5.9h1.9c.2 0 .4.1.5.2.1.1.2.3.2.5v5.5c0 .4-.2.7-.7.8-1.6.1-2.8.1-3.5.1-3.2 0-5.6-.5-7.2-1.6-1.6-1.1-2.4-3.1-2.4-6v-15.5c0-.2-.1-.3-.3-.3h-3.3c-.2 0-.4-.1-.5-.2-.1-.1-.2-.3-.2-.5v-5.2c0-.2.1-.4.2-.5.1-.1.3-.2.5-.2h3.3c.2 0 .3-.1.3-.3V429c0-.2.1-.4.2-.5.1-.1.3-.2.5-.2h6.5c.2 0 .4.1.5.2.1.1.2.3.2.5v6.9c0 .2.1.3.3.3h5.6c.2 0 .4.1.5.2.1.1.2.3.2.5v5.2c0 .2-.1.3-.2.5zM573.8 465.3c-1.9-.7-3.4-1.8-4.5-3.1s-1.6-2.8-1.6-4.5v-.6c0-.2.1-.4.2-.5.1-.1.3-.2.5-.2h6.4c.2 0 .4.1.5.2.1.1.2.3.2.5v.1c0 .9.5 1.6 1.4 2.2s2.1.9 3.6.9c1.3 0 2.4-.3 3.2-.8.8-.5 1.2-1.2 1.2-1.9s-.3-1.2-1-1.6c-.7-.3-1.8-.7-3.4-1.1-1.8-.5-3.2-.9-4.3-1.3-2.5-.8-4.4-1.9-5.9-3.1-1.5-1.2-2.2-3-2.2-5.3 0-2.9 1.1-5.1 3.3-6.8 2.2-1.7 5.2-2.5 8.8-2.5 2.5 0 4.6.4 6.5 1.2 1.9.8 3.3 1.9 4.3 3.3s1.5 3.1 1.5 4.9c0 .2-.1.4-.2.5-.1.1-.3.2-.5.2h-6.2c-.2 0-.4-.1-.5-.2-.1-.1-.2-.3-.2-.5 0-.8-.4-1.6-1.3-2.1s-2-.9-3.5-.9c-1.3 0-2.3.2-3.1.7-.8.5-1.2 1.1-1.2 1.9 0 .8.4 1.4 1.2 1.7.8.4 2.1.8 4 1.2.4.1.9.2 1.4.4.5.1 1.1.3 1.7.5 2.7.8 4.9 1.9 6.5 3.1 1.6 1.3 2.4 3.1 2.4 5.6 0 2.9-1.1 5.1-3.4 6.7-2.3 1.6-5.3 2.4-9.1 2.4-2.5-.1-4.7-.4-6.7-1.2z"></path></g><g class="st4"><path class="st5" d="M281.2 664.1c.1.1.2.2.3.2h20.8c.3 0 .5.1.7.3.2.2.3.4.3.7v7.4c0 .3-.1.5-.3.7-.2.2-.4.3-.7.3h-34.5c-.3 0-.5-.1-.7-.3-.2-.2-.3-.4-.3-.7v-7c0-.5.2-.8.5-1.1 2.5-2.5 5.1-5.1 7.7-8 2.6-2.9 4.2-4.7 4.9-5.4 1.4-1.7 2.9-3.3 4.4-4.8 4.6-5.2 7-9 7-11.5 0-1.8-.6-3.3-1.9-4.4-1.3-1.1-2.9-1.7-5-1.7-2 0-3.7.6-5 1.7-1.3 1.1-1.9 2.7-1.9 4.6v1.9c0 .3-.1.5-.3.7-.2.2-.4.3-.7.3h-9c-.3 0-.5-.1-.7-.3-.2-.2-.3-.4-.3-.7v-3.6c.2-2.8 1-5.2 2.6-7.3 1.6-2.1 3.7-3.7 6.3-4.9 2.6-1.1 5.6-1.7 8.8-1.7 3.6 0 6.8.7 9.5 2 2.7 1.4 4.7 3.2 6.2 5.5s2.2 4.9 2.2 7.7c0 2.1-.5 4.3-1.6 6.6-1.1 2.2-2.7 4.7-4.8 7.3-1.6 2-3.3 4-5.1 5.9-1.8 1.9-4.6 4.7-8.2 8.4l-1.1 1.1c-.1-.1-.1 0-.1.1zM314.8 669.7c-3.3-3.1-4.9-7.4-4.9-12.8v-20.2c0-5.3 1.6-9.5 4.9-12.6 3.3-3.1 7.7-4.7 13.3-4.7 5.6 0 10.1 1.6 13.4 4.7 3.3 3.1 4.9 7.3 4.9 12.6v20.2c0 5.4-1.6 9.7-4.9 12.8-3.3 3.1-7.7 4.7-13.4 4.7-5.6 0-10.1-1.6-13.3-4.7zm18.8-6.7c1.4-1.4 2-3.3 2-5.6v-21.1c0-2.3-.7-4.2-2-5.6-1.4-1.4-3.2-2.1-5.5-2.1-2.2 0-4 .7-5.4 2.1-1.4 1.4-2 3.3-2 5.6v21.1c0 2.3.7 4.2 2 5.6 1.4 1.4 3.2 2.1 5.4 2.1 2.3 0 4.1-.7 5.5-2.1zM367.8 664.1c.1.1.2.2.3.2h20.8c.3 0 .5.1.7.3.2.2.3.4.3.7v7.4c0 .3-.1.5-.3.7s-.4.3-.7.3h-34.5c-.3 0-.5-.1-.7-.3-.2-.2-.3-.4-.3-.7v-7c0-.5.2-.8.5-1.1 2.5-2.5 5.1-5.1 7.7-8 2.6-2.9 4.2-4.7 4.9-5.4 1.4-1.7 2.9-3.3 4.4-4.8 4.6-5.2 7-9 7-11.5 0-1.8-.6-3.3-1.9-4.4-1.3-1.1-2.9-1.7-5-1.7-2 0-3.7.6-5 1.7-1.3 1.1-1.9 2.7-1.9 4.6v1.9c0 .3-.1.5-.3.7-.2.2-.4.3-.7.3h-9c-.3 0-.5-.1-.7-.3-.2-.2-.3-.4-.3-.7v-3.6c.2-2.8 1-5.2 2.6-7.3 1.6-2.1 3.7-3.7 6.3-4.9 2.6-1.1 5.6-1.7 8.8-1.7 3.6 0 6.8.7 9.5 2 2.7 1.4 4.7 3.2 6.2 5.5s2.2 4.9 2.2 7.7c0 2.1-.5 4.3-1.6 6.6-1.1 2.2-2.7 4.7-4.8 7.3-1.6 2-3.3 4-5.1 5.9-1.8 1.9-4.6 4.7-8.2 8.4l-1.1 1.1c-.2-.1-.2 0-.1.1zM435.3 650.4c.2.2.3.4.3.7v7.7c0 .3-.1.5-.3.7-.2.2-.4.3-.7.3h-3.3c-.3 0-.4.1-.4.4v12.5c0 .3-.1.5-.3.7-.2.2-.4.3-.7.3h-9c-.3 0-.5-.1-.7-.3-.2-.2-.3-.4-.3-.7v-12.5c0-.3-.1-.4-.4-.4H396c-.3 0-.5-.1-.7-.3-.2-.2-.3-.4-.3-.7v-6.1c0-.3.1-.7.2-1.1l13.8-30.9c.2-.5.6-.7 1.1-.7h9.6c.4 0 .6.1.7.3.1.2.1.4 0 .8L408 649.7c-.1.1-.1.2 0 .3.1.1.1.2.2.2h11.6c.3 0 .4-.1.4-.4v-9.5c0-.3.1-.5.3-.7.2-.2.4-.3.7-.3h9c.3 0 .5.1.7.3.2.2.3.4.3.7v9.5c0 .3.1.4.4.4h3.3s.3.1.4.2z"></path></g></svg>